<svg width="36" height="36" viewBox="0 0 36 36" fill="none" xmlns="http://www.w3.org/2000/svg">
<path d="M17.1491 0L0.25 8.13663V12.3697H35.25V8.11417L17.1491 0ZM32.9167 10.0364H2.58333V9.60283L17.1842 2.57279L32.9167 9.62529V10.0364Z" fill="black"/>
<path d="M32.9164 28.7034H2.5831V31.0368H32.9164V28.7034Z" fill="black"/>
<path d="M35.25 32.7865H0.25V35.1198H35.25V32.7865Z" fill="black"/>
<path d="M5.50023 14.7034H3.1669V26.3701H5.50023V14.7034Z" fill="black"/>
<path d="M32.3333 14.7034H30V26.3701H32.3333V14.7034Z" fill="black"/>
<path d="M25.3333 14.7034H23V26.3701H25.3333V14.7034Z" fill="black"/>
<path d="M12.5002 14.7034H10.1669V26.3701H12.5002V14.7034Z" fill="black"/>
<path d="M18.9164 14.7034H16.5831V26.3701H18.9164V14.7034Z" fill="black"/>
</svg>
