<svg xmlns="http://www.w3.org/2000/svg" viewBox="0 0 200 200.04"><defs><style>.cls-1{fill:#6e82b6;}.cls-2{fill:#466088;}.cls-3{fill:#eceef0;}.cls-4{fill:#6e83b6;}.cls-5{fill:#7fd5fa;}.cls-6{fill:#80d5fa;}.cls-7{fill:#82d6fa;}.cls-8{fill:#7ed3f8;}.cls-9{fill:#7fd4f9;}.cls-10{fill:#7bccf1;}</style></defs><g id="Layer_2" data-name="Layer 2"><g id="Layer_1-2" data-name="Layer 1"><path class="cls-1" d="M100,161q0,18.78.09,37.57c0,1.16-.36,1.5-1.5,1.49-4.47-.06-8.94-.08-13.41,0-1.29,0-1.55-.64-1.82-1.64-2.37-8.6-4.81-17.18-7.13-25.79a3.17,3.17,0,0,0-2.42-2.6A13.64,13.64,0,0,1,70,168.48c-2-1.32-3.66-.79-5.57.32-7.37,4.28-14.84,8.39-22.22,12.64a1.74,1.74,0,0,1-2.55-.36Q29.39,170.69,19,160.4a1.85,1.85,0,0,1-.33-2.72c4.42-7.68,8.71-15.44,13.14-23.12a3.25,3.25,0,0,0,.08-3.74,7.84,7.84,0,0,1-1.1-2.6c-.61-3.3-2.86-4.34-5.84-5.09-7.79-2-15.5-4.28-23.26-6.37A1.89,1.89,0,0,1,0,114.55Q.08,100,0,85.5a1.89,1.89,0,0,1,1.67-2.22c8.61-2.32,17.19-4.77,25.8-7.11A3,3,0,0,0,30,73.91a11.86,11.86,0,0,1,1.36-3.37c1.58-2.39,1-4.37-.39-6.67-4.22-7.16-8.21-14.47-12.36-21.68a1.63,1.63,0,0,1,.28-2.4q10.54-10.42,21-21c.87-.88,1.44-.76,2.4-.21C50,23,57.78,27.39,65.53,31.82a3.19,3.19,0,0,0,3.55.15,16.78,16.78,0,0,1,4.3-1.78c1.92-.43,2.53-1.65,3-3.33C78.6,18.57,81,10.32,83.17,2c.4-1.5,1-2.07,2.57-2,4.26.12,8.53.08,12.8,0,1.14,0,1.51.32,1.5,1.48Q100,20.29,100,39.08c-1.87,1-4,.62-6,.83A59.55,59.55,0,0,0,59.42,55.39a58.13,58.13,0,0,0-19.2,36.35C37.79,110.07,42.74,126.32,55,140.2a58.74,58.74,0,0,0,36.58,19.62,48.49,48.49,0,0,0,6.25.64A2.83,2.83,0,0,1,100,161Z"/><path class="cls-2" d="M100,161a61.16,61.16,0,0,1-59-46A61.14,61.14,0,0,1,51.18,63.62c10-13.18,23.12-21.21,39.52-23.78a46.34,46.34,0,0,1,9.25-.76l0,24.35a4.47,4.47,0,0,1-4.46.17c-.83-1.06-.54-2.32-.58-3.51,0-1.35,0-2.7,0-4.05-.06-1.88-.49-2.21-2.33-2.14a1.54,1.54,0,0,0-1.7,1.76c0,1.76,0,3.51,0,5.27a3.72,3.72,0,0,1-.61,2.69,18.73,18.73,0,0,1-8.87,0,3.09,3.09,0,0,1-.68-2.46c0-1.75,0-3.51,0-5.27,0-1.47-.59-2-2.07-2s-2,.7-2,2.11c0,1.69,0,3.38,0,5.07a3.75,3.75,0,0,1-.57,2.52c-1.17.72-2.49.45-3.75.48-1.55,0-3.11,0-4.66,0-3.59,0-3.59,0-3.59,3.5,0,2,0,3.91,0,5.87A4.71,4.71,0,0,1,63.63,76c-1,.92-2.31.47-3.48.61-2,.23-4-.56-5.92.49-.76,2.66-.4,3.15,2.25,3.22,2.21.07,4.44-.26,6.64.25a1.31,1.31,0,0,1,.57.47,21.74,21.74,0,0,1-.06,9.19c-1,.92-2.31.46-3.48.6-2,.24-4-.56-5.92.5-.75,2.66-.4,3.14,2.25,3.22,2.22.06,4.44-.27,6.64.24a1.4,1.4,0,0,1,.57.48,21.69,21.69,0,0,1-.06,9.18c-1,.92-2.31.47-3.48.61-2,.23-4-.56-5.92.49-.75,2.67-.4,3.15,2.25,3.22,2.22.07,4.44-.26,6.64.25a1.31,1.31,0,0,1,.57.47,21.74,21.74,0,0,1-.06,9.19c-1,.92-2.31.46-3.48.6-2,.24-4-.56-5.92.5-.75,2.66-.39,3.14,2.25,3.22,2.21.06,4.44-.26,6.64.24a1.39,1.39,0,0,1,.56.46c.8,2.79.3,5.64.37,8.46.09,3.79,0,3.71,3.74,3.82,2.75.08,5.54-.5,8.24.43.8.91.59,2,.62,3.1,0,1.55,0,3.11,0,4.66,0,1.33.49,2,1.91,2s1.72-.77,1.72-1.95c0-1.76,0-3.51,0-5.27a3.39,3.39,0,0,1,.61-2.5,20.26,20.26,0,0,1,9.26,0c.79.73.67,1.72.69,2.65,0,1.83,0,3.66,0,5.48,0,1.24.7,1.62,1.83,1.63s1.77-.47,1.78-1.67c0-1.76,0-3.52,0-5.28a4.06,4.06,0,0,1,.56-2.72,5.09,5.09,0,0,1,4.89.14Z"/><path class="cls-3" d="M76.05,136.64c-3.44,0-6.88-.12-10.31,0-1.75.06-2.44-.3-2.36-2.25.16-3.56,0-7.14,0-10.71a5.57,5.57,0,0,1,0-4.94c0-3.09,0-6.19,0-9.28a5.59,5.59,0,0,1,0-4.95l0-9.28a5.57,5.57,0,0,1,0-4.94l0-9.28a5.59,5.59,0,0,1,0-5c0-3.69.08-7.39,0-11.08,0-1.27.37-1.58,1.59-1.56,3.7.06,7.39,0,11.09,0a5.41,5.41,0,0,1,5.18,0h9a5.43,5.43,0,0,1,5.19,0l4.48,0c4.5,0,4.44,0,4.53-4.39,0-1.92-.48-3.89.38-5.75.83,1,.58,2.16.61,3.28,0,1.54,0,3.09,0,4.63,0,1.06.5,1.6,1.6,1.6s1.58-.54,1.6-1.6c0-1.81,0-3.62,0-5.43a3.48,3.48,0,0,1,.61-2.48c.93,2.34.28,4.77.38,7.15.15,3.38-.34,3,3.08,3,1.35,0,2.7-.07,4,0s1.93-.37,1.86-1.82c-.1-2.15,0-4.31,0-6.47,0-.65-.24-1.37.4-1.89.82,1,.58,2.16.61,3.28,0,1.54,0,3.09,0,4.63,0,1.06.49,1.6,1.6,1.6s1.57-.54,1.6-1.6c0-1.81,0-3.62,0-5.43a3.49,3.49,0,0,1,.62-2.48c.92,2.35.27,4.78.38,7.18.14,3.28-.33,3,2.92,3,2.57,0,5.15.11,7.71,0,1.7-.1,2.13.56,2,2.1-.1,1.35,0,2.71,0,4.06a4.64,4.64,0,0,1,0,4.82c0,2.42,0,4.83,0,7.25-.05,1.31.39,1.77,1.72,1.74,3.22-.08,6.44,0,9.67,0-.28,1.22-1.32,1-2.12,1-2.22.1-4.45,0-6.68.05-1,0-1.88.19-1.91,1.52s.82,1.68,2,1.69c2.71,0,5.41,0,8.11,0,.93,0,1.92-.11,2.68.64-.74.71-1.67.36-2.51.37-2.84.05-5.69.15-8.52,0-2-.13-2.56.61-2.42,2.52.16,2.15.05,4.32.05,6.48a4.64,4.64,0,0,1,0,4.82c0,2.23.13,4.48-.05,6.69-.17,2,.64,2.39,2.42,2.31,3-.12,6.08,0,9.12,0,.65,0,1.38-.22,1.91.38-.77.75-1.75.62-2.68.63-2.64,0-5.27,0-7.91,0-1.15,0-2.19.11-2.16,1.69s1.06,1.51,2.11,1.52c2.16,0,4.33-.05,6.49,0,.79,0,1.83-.23,2.1,1-3.22,0-6.44.06-9.67,0-1.33,0-1.76.43-1.71,1.74.08,2.41,0,4.83,0,7.25a4.64,4.64,0,0,1,0,4.82c0,1.35-.09,2.71,0,4.06.12,1.54-.32,2.18-2,2.1-2.83-.14-5.69.06-8.52-.08-1.76-.08-2.22.57-2.12,2.21.12,2,0,4.06,0,6.09,0,.64.26,1.38-.43,1.88-.84-1.07-.52-2.33-.57-3.52,0-1,0-2,0-3,0-2.27.16-3.16-2.72-3a1.94,1.94,0,0,1-1.48-.55c-2.41,0-4.83.06-7.24-.05-1.46-.06-1.85.51-1.79,1.87.09,2.15,0,4.3,0,6.44,0,.64.25,1.37-.43,1.86-.83-1.07-.52-2.33-.57-3.52,0-1,0-2,0-3,0-2.27.17-3.16-2.71-3a1.94,1.94,0,0,1-1.48-.55H100l-4.76.06a5.12,5.12,0,0,1-5,0l-9.28,0A5.1,5.1,0,0,1,76.05,136.64Z"/><path class="cls-4" d="M146.29,37.17c-6.44-1.73-10.42-7.24-9.63-13.34a12.21,12.21,0,0,1,24.26,0c.8,6.09-3.18,11.61-9.63,13.34A4,4,0,0,1,146.29,37.17Z"/><path class="cls-4" d="M164.15,69.5C159.86,61,165.29,53,172.07,51.58a12.18,12.18,0,1,1-3.16,22.51c-.59-.32-1.19-.62-1.78-.93A4.57,4.57,0,0,1,164.15,69.5Z"/><path class="cls-4" d="M175.88,97.52c1.72-6.43,7.24-10.42,13.34-9.63a12.22,12.22,0,0,1,0,24.26c-6.09.8-11.63-3.19-13.34-9.63A3.87,3.87,0,0,1,175.88,97.52Z"/><path class="cls-4" d="M167.13,126.89c3.17-1.82,6.42-3.07,10.2-2.19A12.16,12.16,0,1,1,163.5,132c.2-.5.43-1,.65-1.48A4.56,4.56,0,0,1,167.13,126.89Z"/><path class="cls-4" d="M151.29,162.88c6.45,1.73,10.43,7.24,9.63,13.33a12.21,12.21,0,0,1-24.26,0c-.79-6.11,3.19-11.62,9.63-13.34A3.87,3.87,0,0,1,151.29,162.88Z"/><path class="cls-5" d="M146.29,37.17a11,11,0,0,0,5,0l-.06,34.7c0,2.56,0,2.56-2.65,2.56l-12,0V69.57c2.7,0,5.41-.07,8.11,0,1.19,0,1.67-.27,1.66-1.57C146.31,57.72,146.31,47.44,146.29,37.17Z"/><path class="cls-5" d="M151.29,162.88a11.11,11.11,0,0,0-5,0c0-10.28,0-20.55.09-30.82,0-1.3-.47-1.6-1.66-1.58-2.7.06-5.41,0-8.11,0v-4.82c4.26,0,8.52,0,12.78-.07,1.6,0,1.88.55,1.87,2C151.23,139.35,151.27,151.11,151.29,162.88Z"/><path class="cls-5" d="M175.88,97.52a11.11,11.11,0,0,0,0,5l-35-.06c-1.42,0-2.83,0-4.25,0V97.61q18.31,0,36.64,0C174.13,97.58,175,97.54,175.88,97.52Z"/><path class="cls-6" d="M164.15,69.5l3,3.66-10.42,9.25c-2.22,2-4.46,3.9-6.7,5.85-3.91,0-7.82-.08-11.72.06-2.24.08-1.58-1.41-1.69-2.56-.14-1.33.07-2.16,1.77-2.07,2.56.14,5.13,0,7.69,0,.64,0,1.36.23,1.91-.36Z"/><path class="cls-6" d="M167.13,126.89l-3,3.66L148,116.69c-1.67-.76-3.43-.22-5.15-.34-1.14-.09-2.29,0-3.43,0-2.63,0-3.57-1.36-2.75-3.86.31-1,1.05-.68,1.66-.69,3.91,0,7.82,0,11.72,0l16,13.91A13.63,13.63,0,0,1,167.13,126.89Z"/><path class="cls-6" d="M104.56,136.62c4.82-.11,4.83-.11,4.82,4.64,0,1.83,0,3.65,0,5.48-4.81.06-4.81.06-4.8-4.65C104.53,140.27,104.55,138.44,104.56,136.62Z"/><path class="cls-6" d="M118.78,136.62c4.83-.11,4.83-.11,4.82,4.64,0,1.83,0,3.65,0,5.48-4.81.06-4.81.06-4.81-4.65C118.75,140.27,118.77,138.44,118.78,136.62Z"/><path class="cls-7" d="M109.37,53.29c0,2.91,0,5.81.06,8.72.06,2-1.41,1.37-2.4,1.41s-2.26.44-2.2-1.41c.09-2.91,0-5.81.06-8.72Z"/><path class="cls-7" d="M123.6,53.29c0,2.91,0,5.81.06,8.72,0,2-1.41,1.37-2.41,1.41s-2.26.44-2.2-1.41c.1-2.91,0-5.81.07-8.72Z"/><path class="cls-8" d="M81.27,63.41H76.09c0-2.76.09-5.52,0-8.28,0-1.33.24-1.94,1.75-1.88,4,.15,3.27-.44,3.34,3.3C81.25,58.84,81.25,61.12,81.27,63.41Z"/><path class="cls-8" d="M95.5,63.41H90.31c0-2.76.1-5.52,0-8.28,0-1.33.25-1.94,1.76-1.88,4,.15,3.27-.44,3.34,3.3C95.48,58.84,95.48,61.12,95.5,63.41Z"/><path class="cls-9" d="M76.05,136.64l4.94,0c0,2.82-.06,5.64,0,8.46,0,1.18-.29,1.79-1.57,1.63a5.54,5.54,0,0,0-1.41,0c-1.46.21-2-.28-2-1.86C76.17,142.16,76.06,139.4,76.05,136.64Z"/><path class="cls-9" d="M90.27,136.64l5,0c0,2.82-.06,5.64,0,8.46,0,1.18-.28,1.79-1.56,1.63a5.54,5.54,0,0,0-1.41,0c-1.46.21-2-.28-2-1.86C90.39,142.16,90.29,139.4,90.27,136.64Z"/><path class="cls-9" d="M63,80.93c-2.63,0-5.27-.05-7.89.09-1.55.09-2.09-.44-1.89-1.94.11-.86.08-1.75.11-2.62,3-.45,6-.1,9-.2.59,0,.86.31.83.88C63.14,78.4,63.45,79.68,63,80.93Z"/><path class="cls-9" d="M63,95.15c-2.63,0-5.27,0-7.89.1-1.55.08-2.09-.45-1.89-1.94.11-.87.08-1.75.11-2.63,3-.45,6-.1,9-.19.59,0,.86.31.83.87C63.14,92.63,63.45,93.91,63,95.15Z"/><path class="cls-9" d="M63,109.38c-2.63,0-5.27,0-7.89.09-1.55.09-2.09-.45-1.89-1.94.11-.86.08-1.75.11-2.62,3-.45,6-.1,9-.2.59,0,.86.31.83.88C63.14,106.85,63.45,108.13,63,109.38Z"/><path class="cls-9" d="M63,123.6c-2.63,0-5.27,0-7.89.1-1.55.08-2.09-.45-1.89-2,.11-.86.08-1.74.11-2.62,3-.45,6-.1,9-.19.59,0,.86.31.83.87C63.14,121.08,63.45,122.36,63,123.6Z"/><path class="cls-10" d="M63,80.93c0-4.47,0-4.47-4.41-4.47H53.36c1.91-.79,3.9-.21,5.85-.35,1.39-.1,2.79,0,4.19,0,0,1.65,0,3.3,0,5A1.32,1.32,0,0,1,63,80.93Z"/><path class="cls-10" d="M63,95.15c0-4.47,0-4.47-4.41-4.47H53.36c1.91-.78,3.9-.2,5.85-.34,1.39-.1,2.79,0,4.19,0,0,1.65,0,3.29,0,4.94A1,1,0,0,1,63,95.15Z"/><path class="cls-10" d="M63,109.38c0-4.47,0-4.47-4.41-4.47H53.36c1.91-.79,3.9-.21,5.85-.35,1.39-.1,2.79,0,4.19,0,0,1.65,0,3.3,0,4.95A1.32,1.32,0,0,1,63,109.38Z"/><path class="cls-10" d="M63,123.6c0-4.47,0-4.47-4.41-4.47H53.36c1.91-.78,3.9-.2,5.85-.34,1.39-.1,2.79,0,4.19-.05,0,1.65,0,3.29,0,4.94A1,1,0,0,1,63,123.6Z"/><path class="cls-1" d="M130.5,100.23c0,9.41,0,18.83,0,28.24,0,1.51-.28,2.08-2,2.08q-28.54-.11-57.09,0c-1.7,0-2-.58-2-2.09q.07-28.44,0-56.88c0-1.52.28-2.09,2-2.08q28.55.1,57.1,0c1.7,0,2,.58,2,2.08C130.47,81.13,130.5,90.68,130.5,100.23Z"/><path class="cls-3" d="M120,88.71c.52-1.5.92-2.7,1.35-3.9.66-1.85,1.74-.39,2.61-.27s1.75.32,1.26,1.65c-1.2,3.3-2.34,6.62-3.45,10-.31.91-.67,1.14-1.61.78-3.22-1.21-6.48-2.33-9.72-3.51-2-.72-.34-1.86-.25-2.78s.58-1.54,1.78-1,2.74,1,4.3,1.5c-2.91-6.52-11.58-10.88-18.76-9.66-6.35,1.07-11.16,4.34-14.09,10.1-1.07,2.1-2.1.47-3.12.23-1.48-.35-.93-1.28-.5-2.17,6.12-12.53,23.29-16.36,34.16-7.6a17.35,17.35,0,0,1,3.24,3C118,86.21,118.89,87.32,120,88.71Z"/><path class="cls-3" d="M80.25,111.51A5.77,5.77,0,0,0,79.16,114c-.79,2.25-2.1,2.62-4.1,1.2a.72.72,0,0,1-.28-1c1.21-3.51,2.44-7,3.62-10.54.28-.82.72-.82,1.39-.57,3.3,1.2,6.63,2.34,9.91,3.59,1.94.74.23,1.89.15,2.82s-.48,1.49-1.63,1c-1.34-.59-2.76-1-4.24-1.52,1,3.2,5.07,6.92,9.28,8.51a18.49,18.49,0,0,0,23.21-8.7c1.14-2.19,2.18-.93,3.36-.51,1.68.59.7,1.59.28,2.4-7.65,14.93-28.89,16.31-38.69,2.51Z"/></g></g></svg>