<svg xmlns="http://www.w3.org/2000/svg" viewBox="0 0 200 200"><defs><style>.cls-1{fill:#a35acd;}.cls-2{fill:#51a0fd;}.cls-3{fill:#0061d6;}.cls-4{fill:#4e9efc;}.cls-5{fill:#2282f5;}.cls-6{fill:#358ef8;}.cls-7{fill:#1e7ff4;}.cls-8{fill:#167bf3;}.cls-9{fill:#4b9cfc;}.cls-10{fill:#1c7ef4;}.cls-11{fill:#55a2fe;}.cls-12{fill:#4a9cfc;}.cls-13{fill:#2685f6;}.cls-14{fill:#0069e7;}.cls-15{fill:#0069e8;}.cls-16{fill:#1b7df4;}.cls-17{fill:#4699fb;}.cls-18{fill:#0061d4;}.cls-19{fill:#3991f9;}.cls-20{fill:#2081f5;}.cls-21{fill:#2382f5;}.cls-22{fill:#318cf7;}.cls-23{fill:#4095fa;}.cls-24{fill:#2a87f6;}.cls-25{fill:#2b88f6;}.cls-26{fill:#a259cd;}.cls-27{fill:#4497fb;}.cls-28{fill:#1378f2;}.cls-29{fill:#4195fa;}.cls-30{fill:#2e8af7;}.cls-31{fill:#3e94fa;}.cls-32{fill:#197cf3;}.cls-33{fill:#3b92f9;}.cls-34{fill:#338df8;}.cls-35{fill:#0067e2;}.cls-36{fill:#0064da;}.cls-37{fill:#4d9dfc;}.cls-38{fill:#0065dc;}.cls-39{fill:#0064db;}.cls-40{fill:#a660cf;}.cls-41{fill:#0060d2;}.cls-42{fill:#0066e1;}.cls-43{fill:#0065de;}.cls-44{fill:#0068e4;}.cls-45{fill:#0063d8;}.cls-46{fill:#0062d7;}.cls-47{fill:#005fd0;}.cls-48{fill:#006cec;}.cls-49{fill:#0064dc;}.cls-50{fill:#0062d8;}.cls-51{fill:#0069e6;}.cls-52{fill:#0066e0;}.cls-53{fill:#0067e3;}.cls-54{fill:#005fd1;}.cls-55{fill:#af70d3;}.cls-56{fill:#006beb;}.cls-57{fill:#016ced;}.cls-58{fill:#ab69d1;}.cls-59{fill:#ab68d1;}.cls-60{fill:#0063da;}.cls-61{fill:#a863d0;}.cls-62{fill:#b378d6;}.cls-63{fill:#0068e5;}.cls-64{fill:#ba86da;}.cls-65{fill:#bb86da;}.cls-66{fill:#c699e0;}.cls-67{fill:#c499e0;}.cls-68{fill:#b479d6;}.cls-69{fill:#006ae8;}.cls-70{fill:#b67fd8;}.cls-71{fill:#cda7e3;}.cls-72{fill:#c49de1;}.cls-73{fill:#c396df;}.cls-74{fill:#0671f0;}.cls-75{fill:#0972f1;}.cls-76{fill:#026eef;}.cls-77{fill:#0c74f1;}.cls-78{fill:#1077f2;}.cls-79{fill:#015fd0;}.cls-80{fill:#dedee1;}.cls-81{fill:#babeea;}.cls-82{fill:#bec1e9;}.cls-83{fill:#cbcde6;}.cls-84{fill:#c8cae7;}.cls-85{fill:#b6baeb;}.cls-86{fill:#b2b7ec;}.cls-87{fill:#dadbe2;}.cls-88{fill:#c2c5e8;}.cls-89{fill:#d6d7e3;}.cls-90{fill:#bf8edd;}.cls-91{fill:#cfd1e5;}.cls-92{fill:#c6c8e7;}.cls-93{fill:#d3d4e4;}.cls-94{fill:#afb4ed;}.cls-95{fill:#c8cbe7;}.cls-96{fill:#c6c9e7;}.cls-97{fill:#a7aeef;}.cls-98{fill:#abb0ee;}.cls-99{fill:#0f76f1;}.cls-100{fill:#0a73f1;}.cls-101{fill:#0670f0;}.cls-102{fill:#4f9efc;}.cls-103{fill:#55a2fd;}.cls-104{fill:#4598fb;}.cls-105{fill:#4a9bfc;}.cls-106{fill:#308bf7;}.cls-107{fill:#2584f5;}.cls-108{fill:#c1c5e8;}.cls-109{fill:#2f8af7;}.cls-110{fill:#3c92f9;}.cls-111{fill:#c3c7e8;}</style></defs><g id="Layer_2" data-name="Layer 2"><g id="Layer_1-2" data-name="Layer 1"><path class="cls-1" d="M12.89,105.47A9.23,9.23,0,0,1,.82,100.73c-.24-.51-.25-1.15-.82-1.48V94.56c.53-.21.44-.85.81-1.17.85-.55,1.34.16,1.81.62q4.88,4.77,9.64,9.64C12.73,104.13,13.43,104.61,12.89,105.47Z"/><path class="cls-1" d="M94.5,200c-.33-.57-1-.58-1.48-.82a9.21,9.21,0,0,1-4.74-12.07c.86-.54,1.34.16,1.82.62q4.86,4.78,9.64,9.65c.46.47,1.17,1,.62,1.81-.4.51-1.22.19-1.56.81Z"/><path class="cls-2" d="M131.23,50l2,.07c1.21.49,1.75,1.69,2.63,2.54,4.53,4.35,8.77,9,13.45,13.21a3.4,3.4,0,0,1,.63,1l.07,2a3.82,3.82,0,0,1,.57,2.61,9.59,9.59,0,0,1-.24,2.56c-.3.6-.77.61-1.31.36a4.32,4.32,0,0,1-1.07-.84q-10.72-10.6-21.32-21.35c-.59-.61-1.7-1.27-.57-2.37a8.55,8.55,0,0,1,2.57-.27A3.83,3.83,0,0,1,131.23,50Z"/><path class="cls-3" d="M106.16,46.14c0,1.3,0,2.6.08,3.89-.68.72-1.59.5-2.42.59-1.3-.09-2.7.37-3.87-.58,0-.72,0-1.43,0-2.15,0-4,0-4-3.91-4.16a42,42,0,0,1-8.52-8.52v-7c.42-.85,1-.43,1.39-.05a55.56,55.56,0,0,1,4.72,4.74c0,.2,0,.39.06.58.08,4,.08,4,3.91,4.18Q102,41.72,106.16,46.14Z"/><path class="cls-4" d="M125.75,50.09c0,.9.8,1.3,1.32,1.85,3.17,3.41,6.49,6.69,9.76,10q6.09,6.12,12.36,12.08c.16.16.47.16.72.24a.54.54,0,0,1,.06.8c0,1.81-.05,3.63-.08,5.44-.67.18-1.13-.27-1.54-.64a116.5,116.5,0,0,1-11.2-11.24A5.8,5.8,0,0,1,137,66.9c-.09-2.8-.3-3.09-2.88-4.08-3.47-3.59-7-7.07-10.53-10.63-.54-.55-1.44-1-.93-2.08L125,50A.54.54,0,0,1,125.75,50.09Z"/><path class="cls-5" d="M134.34,150l-3.09.07c-1,.79-2.2.52-3.34.54a6.14,6.14,0,0,1-2.26-.22c-3.45-3.32-6.83-6.72-10.16-10.16-.75-.77-2.15-1.63-.69-3a21,21,0,0,1,4.62-.2,16.41,16.41,0,0,1,3.57.17c3.83,3.57,7.46,7.35,11.12,11.09C134.57,148.69,134.89,149.29,134.34,150Z"/><path class="cls-6" d="M66.39,50.11,68.7,50c1-.79,2.2-.51,3.34-.54a6.58,6.58,0,0,1,2.25.22c3.57,3.45,7.07,7,10.54,10.54.64.66,1.92,1.4.66,2.65a21.19,21.19,0,0,1-4.57.2,13.3,13.3,0,0,1-3.21-.19c-3.81-3.58-7.44-7.33-11.1-11.08C66.16,51.36,65.83,50.77,66.39,50.11Z"/><path class="cls-7" d="M114.42,137.58a4.29,4.29,0,0,0,1.51,2.43q4.14,4.13,8.27,8.27c.49.49,1.15.89,1.16,1.72a.26.26,0,0,1-.43,0l-7.78-.07c-3.57-3.28-7-6.76-10.29-10.27-.56-.59-1.91-1.33-.61-2.51a12.52,12.52,0,0,1,3.29-.21C111.18,137.08,112.92,136.43,114.42,137.58Z"/><path class="cls-8" d="M109.73,150h-8.2c-3.75-3.45-7.26-7.14-10.85-10.77-.58-.59-1.2-1.35,0-2a28.92,28.92,0,0,1,7.2-.06c1.21.49,1.79,1.66,2.66,2.5q4.19,4.08,8.26,8.26C109.35,148.41,110.25,148.9,109.73,150Z"/><path class="cls-9" d="M137.52,68.79c2.45,2.4,4.9,4.78,7.33,7.2a37.1,37.1,0,0,0,5,4.5V88.3a1.3,1.3,0,0,1-1.43-.36c-3.88-3.73-7.75-7.46-11.4-11.42a28.15,28.15,0,0,1-.17-4.68C137,70.8,136.6,69.66,137.52,68.79Z"/><path class="cls-10" d="M50.05,86.37V78.56c.91-.27,1.48.33,2,.86C55.66,83,59.2,86.53,62.78,90.08A2.82,2.82,0,0,1,63,91a35.78,35.78,0,0,1-.12,6.21c-.9,1.45-1.67.39-2.3-.21C58,94.48,55.4,91.9,52.87,89.3A15.05,15.05,0,0,1,50.05,86.37Z"/><path class="cls-11" d="M149.89,66.82a151.53,151.53,0,0,1-16.71-16.71A15.56,15.56,0,0,1,149.89,66.82Z"/><path class="cls-12" d="M111.3,50.11h7.81c3.65,3.35,7.08,6.94,10.54,10.48.55.55,1.5,1.26.48,2.25a6.69,6.69,0,0,1-2.18.26,30.34,30.34,0,0,1-4.86-.16c-1.69-1.12-2.84-2.79-4.29-4.16-2.24-2.15-4.42-4.36-6.58-6.59C111.68,51.64,110.79,51.16,111.3,50.11Z"/><path class="cls-13" d="M134.34,150c.13-.92-.51-1.42-1.06-2q-4.35-4.33-8.68-8.69c-.49-.5-1.16-.89-1.2-1.71,1.86-1.26,3.95-.44,5.92-.63a7,7,0,0,1,1.94.21c3.31,3.14,6.47,6.43,9.68,9.67.31.32.62.69.42,1.2A11.17,11.17,0,0,1,134.34,150Z"/><path class="cls-13" d="M50.05,65.65a13.06,13.06,0,0,1,1.73-7.07c.81-.47,1.36,0,1.86.54q4.61,4.53,9.15,9.12A5.26,5.26,0,0,1,63,70.13a34.29,34.29,0,0,1-.14,5.55c-.83,1.49-1.63.48-2.26-.13-2.61-2.5-5.15-5.08-7.69-7.65A11.48,11.48,0,0,0,50.05,65.65Z"/><path class="cls-14" d="M106.29,164.46c.13-1.49-.34-2.31-2-2a6.64,6.64,0,0,1-1.54,0,93.88,93.88,0,0,0-8.92-8.92l-.11-3.5c.57-.63,1.34-.54,2.07-.57,1.44.06,3-.42,4.26.57,0,.58-.05,1.16,0,1.75,0,1.41-.45,3.21.25,4.14s2.66.13,4,.41q4.22,3.91,8.12,8.13v4.69c-.64.48-1.12,0-1.49-.38C109.44,167.26,107.78,165.94,106.29,164.46Z"/><path class="cls-15" d="M162.45,87.6h5.47q3.63,3.33,7,7c.29,1.78-.77,4.24.46,5.19s3.48.25,5.3.28l1,0a18,18,0,0,1,0,6.17l-2.76,0q-5.21-4.89-10.09-10.09c-.4-.81.74-2.42-1.25-2.4a58.28,58.28,0,0,1-4.8-4.76C162.37,88.6,162,88.15,162.45,87.6Z"/><path class="cls-16" d="M109.73,150c0-.82-.7-1.21-1.19-1.7-3-3-6-6-8.94-9-.49-.5-1.15-.89-1.19-1.71a1.46,1.46,0,0,1,.94-.56c2.17.07,4.41-.71,6.48.56,2.86,4,6.72,7,10,10.53.51.56,1.27.95,1.32,1.84Z"/><path class="cls-17" d="M111.3,50.11c0,.82.7,1.21,1.19,1.7,3,3,6,6,8.94,9,.49.5,1.16.89,1.19,1.71-1.11,1-2.46.53-3.72.61a14.33,14.33,0,0,1-3.27-.16c-3.17-2.88-6.06-6-9.12-9-.65-.63-1.32-1.26-1.91-2-.46-.53-1-1.06-.71-1.88l2.35-.06Z"/><path class="cls-17" d="M137.52,77c.82,0,1.21.7,1.7,1.19q4.28,4.23,8.52,8.51a6.78,6.78,0,0,0,2.15,1.61v7.43c-.56.44-1,.09-1.36-.27-3.7-3.92-7.72-7.5-11.42-11.4a10.5,10.5,0,0,1-.2-3C137,79.71,136.45,78.23,137.52,77Z"/><path class="cls-18" d="M37.49,112.46H32.41q-3.82-3.52-7.35-7.35c0-.13,0-.26-.06-.39-.16-1.52.7-3.6-.36-4.42s-3-.24-4.51-.27c-.71,0-1.42,0-2.13,0l-.14-.21a1.62,1.62,0,0,1,.12-.76,3.55,3.55,0,0,0,.3-1.47c0-.18,0-.35,0-.53,0-.36,0-.72,0-1.09,0-.73-.51-1.5.13-2.19l2.73,0q5.19,4.89,10.09,10.08c.4.82-.75,2.43,1.24,2.41a60,60,0,0,1,4.81,4.76C37.57,111.45,37.93,111.91,37.49,112.46Z"/><path class="cls-19" d="M85.91,62.48c-.71-1.6-2.12-2.6-3.29-3.8-2.26-2.32-4.58-4.59-6.86-6.89-.49-.49-1.15-.89-1.17-1.71A.25.25,0,0,1,75,50l6.62.08c3.81,3.51,7.38,7.26,11,11,.5.5.94,1.19,0,1.79a7,7,0,0,1-2.27.24C88.87,63,87.27,63.6,85.91,62.48Z"/><path class="cls-20" d="M62.42,89.88c-.81,0-1.21-.7-1.7-1.19q-4.28-4.25-8.51-8.51a7.13,7.13,0,0,0-2.16-1.62L50,75.07a3.35,3.35,0,0,1-.5-2.52,2.14,2.14,0,0,1,.27-.9,1,1,0,0,1,1.54,0c3.93,3.84,8,7.58,11.62,11.71C63,85.57,63.66,87.8,62.42,89.88Z"/><path class="cls-8" d="M50,93.74l.08-1.9a1.46,1.46,0,0,1,1.58.48c3.8,3.71,7.63,7.37,11.24,11.27a18,18,0,0,1,0,5.77c-1,1.34-1.71.27-2.33-.33-2.93-2.83-5.8-5.73-8.66-8.64-.76-.77-1.79-1.3-2.25-2.37C49.41,96.57,49.09,95.1,50,93.74Z"/><path class="cls-21" d="M62.42,82.85c-.81,0-1.2-.7-1.69-1.18-3-3-6-6-9-9-.49-.48-.89-1.13-1.71-1.14a2.09,2.09,0,0,1,0-2.77l.07-3.1c1.13-.5,1.66.4,2.28,1,2.81,2.78,5.58,5.59,8.39,8.37.49.49.88,1.15,1.7,1.19,1.07,1.28.54,2.8.62,4.23C63,81.28,63.2,82.19,62.42,82.85Z"/><path class="cls-22" d="M66.39,50.11c-.13.91.5,1.41,1,2q4.35,4.34,8.69,8.69c.49.49,1.16.88,1.19,1.71-1,1-2.19.55-3.33.61a11.84,11.84,0,0,1-2.91-.17c-3.6-3.39-7-6.93-10.49-10.49a1.58,1.58,0,0,1-.47-1.23A11.49,11.49,0,0,1,66.39,50.11Z"/><path class="cls-1" d="M106.61,18l-.43.39a5.18,5.18,0,0,1-6.17,0c-5.59-2.89-7.61-7.48-5.48-12.46.86-.55,1.34.15,1.81.62q4.88,4.77,9.65,9.64C106.45,16.65,107.16,17.13,106.61,18Z"/><path class="cls-1" d="M75.37,36.74l-.43.38c-1.28,1.3-2.89,1-4.44.89a2.83,2.83,0,0,1-1.73-.89c-5.59-2.88-7.61-7.48-5.48-12.46.86-.55,1.34.16,1.81.62q4.88,4.77,9.65,9.64C75.21,35.4,75.91,35.88,75.37,36.74Z"/><path class="cls-1" d="M125,37.12c-5.58-2.87-7.61-7.48-5.48-12.46.86-.55,1.35.16,1.82.62q4.86,4.77,9.64,9.64c.46.48,1.17,1,.62,1.82l-.43.38c-1.28,1.29-2.89,1-4.44.89A2.83,2.83,0,0,1,125,37.12Z"/><path class="cls-1" d="M131.6,180.45a9.22,9.22,0,0,1-12.08-12.08c.86-.55,1.35.16,1.82.62q4.86,4.77,9.64,9.64C131.44,179.1,132.15,179.59,131.6,180.45Z"/><path class="cls-1" d="M31.63,80.48a8.86,8.86,0,0,1-10.18-2,8.84,8.84,0,0,1-1.9-10c.86-.55,1.34.16,1.81.62q4.88,4.77,9.65,9.64C31.47,79.13,32.18,79.62,31.63,80.48Z"/><path class="cls-23" d="M150,106.3l-.08,1.54c-.65.47-1.12,0-1.51-.38-3.76-3.63-7.37-7.4-11.15-11-.09-.08-.11-.23-.16-.35A22.9,22.9,0,0,1,137,91a1.92,1.92,0,0,1,.21-.58c.59-.69,1.21-.36,1.68.09,3.87,3.79,7.81,7.52,11.47,11.52C150.53,103.49,150.86,105,150,106.3Z"/><path class="cls-19" d="M149.89,118v6.26c-.66.48-1.13,0-1.52-.39-3.77-3.73-7.58-7.43-11.26-11.26a11.73,11.73,0,0,1-.19-3.13,7.68,7.68,0,0,1,.21-2.48c.58-.93,1.27-.52,1.78,0C142.63,110.58,146.37,114.17,149.89,118Z"/><path class="cls-6" d="M137.52,112.92c.83,0,1.22.7,1.71,1.19,3,3,6,6,9,8.94.49.49.88,1.15,1.7,1.19l.08.76a3.88,3.88,0,0,1,.56,2.62,9.27,9.27,0,0,1-.25,2.57c-.59.91-1.28.5-1.78,0-3.86-3.81-7.85-7.48-11.44-11.56C137,116.71,136.34,114.74,137.52,112.92Z"/><path class="cls-24" d="M141.36,148c-2.81-2.87-5.63-5.73-8.43-8.61-.52-.54-1.27-.95-1.33-1.84a1.88,1.88,0,0,1,1.78-.56,5.21,5.21,0,0,0,3.43-1.17,1.47,1.47,0,0,1,1.75.41c2.46,2.35,4.88,4.75,7.22,7.23a.94.94,0,0,1,.27,1A8.81,8.81,0,0,1,141.36,148Z"/><path class="cls-25" d="M62.42,68c-.89-.06-1.3-.8-1.84-1.33C58.27,64.4,56,62.09,53.69,59.8c-.55-.54-1-1.2-1.91-1.22A11.34,11.34,0,0,1,55.46,54c.63-.48,1.11-.06,1.52.32,2.4,2.31,4.77,4.67,7.07,7.08a1.25,1.25,0,0,1,.43,1.38A5.5,5.5,0,0,0,63,66.62,1.44,1.44,0,0,1,62.42,68Z"/><path class="cls-26" d="M175.33,136.71c-5,2.12-9.6.09-12.45-5.48a2.81,2.81,0,0,1-.88-1.72c-.07-1.56-.42-3.17.88-4.45l.38-.42c.79-.23,1.19.38,1.63.81q4.85,4.8,9.63,9.63C175,135.52,175.56,135.92,175.33,136.71Z"/><path class="cls-26" d="M162.88,68.83l.38-.43c.79-.22,1.19.39,1.63.82q4.85,4.78,9.63,9.63c.43.44,1,.84.81,1.63-5,2.12-9.6.09-12.45-5.48a2.81,2.81,0,0,1-.88-1.73C161.93,71.72,161.58,70.11,162.88,68.83Z"/><path class="cls-26" d="M181.62,106.24a11.64,11.64,0,0,1,0-6.17l.38-.42c.79-.23,1.19.38,1.63.81q4.85,4.79,9.63,9.63c.43.44,1,.84.82,1.63C189.1,113.84,184.52,111.83,181.62,106.24Z"/><path class="cls-27" d="M149.92,101.59c-.83,0-1.22-.69-1.72-1.18-3-3-6-6-9-9-.49-.49-.88-1.16-1.71-1.19a5.89,5.89,0,0,1,0-5.86,30.13,30.13,0,0,1,6.13,5.46,65.09,65.09,0,0,0,6.24,5.86c0,1.43.05,2.85.08,4.28A1.09,1.09,0,0,1,149.92,101.59Z"/><path class="cls-28" d="M100,150l-4.33,0c-3.58-3.4-7-6.93-10.48-10.46-.58-.6-1.65-1.35-.44-2.38a10.57,10.57,0,0,1,5.21.15l.22.26c.07.81.72,1.21,1.21,1.7,3,3,6,6,8.94,9,.49.49,1.16.88,1.19,1.7Z"/><path class="cls-29" d="M92.56,50.11h5.85c3.73,3.42,7.2,7.1,10.77,10.68.52.52,1.22,1.13.42,2A2.32,2.32,0,0,1,109,63a18.27,18.27,0,0,1-4.73-.08c-3.63-3.31-7-6.93-10.47-10.37C93.17,51.89,92.29,51.28,92.56,50.11Z"/><path class="cls-30" d="M146.05,144.54c-2.69-2.74-5.37-5.49-8.07-8.22a2.68,2.68,0,0,0-.86-.36c-.42-.69-.13-1.45-.19-2.17a17.11,17.11,0,0,1,.18-4.11c.53-1,1.23-.61,1.76-.11q5.12,4.86,10,10c.08.08,0,.24,0,.36A9.87,9.87,0,0,1,146.05,144.54Z"/><path class="cls-31" d="M92.56,50.11c.59,1.43,1.83,2.33,2.86,3.38,2.41,2.44,4.86,4.85,7.27,7.29.49.49,1.15.88,1.19,1.7-1,.94-2.16.54-3.28.6a5.81,5.81,0,0,1-1.9-.2C95,59.22,91.28,55.49,87.6,51.77c-.42-.43-1-.9-.52-1.66Z"/><path class="cls-27" d="M109.73,62.48c0-.82-.7-1.21-1.19-1.71-3-3-6-6-8.94-9-.49-.49-1.15-.88-1.19-1.7L100,50l3.94.05a9.12,9.12,0,0,0,2.43,3c2.56,2.57,5.14,5.13,7.69,7.7.49.5,1.16.89,1.19,1.71A5.23,5.23,0,0,1,109.73,62.48Z"/><path class="cls-32" d="M62.42,103.15c-.82,0-1.21-.7-1.7-1.19q-4.28-4.23-8.51-8.51a6.94,6.94,0,0,0-2.16-1.61V86.37c1.43.59,2.33,1.83,3.38,2.86,2.45,2.41,4.85,4.85,7.29,7.27.49.49.88,1.15,1.7,1.19.91.89.57,2,.64,3.09C63,101.6,63.21,102.52,62.42,103.15Z"/><path class="cls-33" d="M87.08,50.11c0,.82.71,1.21,1.2,1.7,3,3,6,6,8.94,9,.49.49,1.15.89,1.19,1.71a5.23,5.23,0,0,1-5.47,0c0-.82-.7-1.21-1.18-1.7q-4.24-4.28-8.52-8.52a6.78,6.78,0,0,1-1.61-2.15Z"/><path class="cls-30" d="M64.44,62.57C62,59.6,59,57,56.33,54.29c-.2-.2-.58-.23-.87-.34a9.62,9.62,0,0,1,4.66-2.75c3.08,3.15,6.17,6.28,9.23,9.44.53.54,1.28,1,1.33,1.84-1.39,1.13-3,.5-4.55.61A2.26,2.26,0,0,1,64.44,62.57Z"/><path class="cls-31" d="M137.52,96.52c1.71.77,2.77,2.3,4.07,3.55,2.23,2.16,4.39,4.39,6.6,6.58.5.49.89,1.15,1.7,1.19v5.45a1,1,0,0,1-1-.33c-4-3.83-7.84-7.74-11.72-11.65a6.34,6.34,0,0,1-.2-1.89C137,98.42,136.65,97.34,137.52,96.52Z"/><path class="cls-34" d="M137.52,119.19c.84,0,1.22.68,1.71,1.17,3,3,6,6,9,9,.49.49.89,1.16,1.71,1.18a.56.56,0,0,1,.05.81c-.16,1.84.31,3.72-.36,5.53-.71-1.43-2-2.33-3.07-3.43-3.13-3.18-6.37-6.25-9.43-9.5a8.29,8.29,0,0,1,.16-4.5Z"/><path class="cls-33" d="M137.52,101.59a11.53,11.53,0,0,1,3.38,2.87c3,2.93,6,5.89,9,8.83V118c-1.43-.59-2.32-1.82-3.38-2.86-2.44-2.41-4.85-4.85-7.29-7.27-.49-.48-.88-1.15-1.7-1.18A4.7,4.7,0,0,1,137.52,101.59Z"/><path class="cls-22" d="M137.52,124.24c.82,0,1.2.71,1.71,1.19,3.29,3.11,6.23,6.59,9.76,9.45.68.56.52,1.27.62,2a5.24,5.24,0,0,1-.81,3.06q-4.71-4.62-9.44-9.24c-.54-.53-.94-1.28-1.84-1.33a1.28,1.28,0,0,1-.52-.85,14.15,14.15,0,0,1,0-3.38A1.24,1.24,0,0,1,137.52,124.24Z"/><path class="cls-35" d="M168.77,96.12c.81,0,1.2.7,1.69,1.18q3.61,3.6,7.22,7.22c.48.49,1.14.88,1.18,1.69-2.26,0-4.52.09-6.77.05a3.09,3.09,0,0,1-3.37-3.37C168.68,100.63,168.75,98.38,168.77,96.12Z"/><path class="cls-36" d="M31.18,103.93c-.81,0-1.2-.69-1.69-1.17q-3.63-3.6-7.22-7.23c-.49-.49-1.15-.87-1.18-1.68,2.32,0,4.64-.1,7,0A3,3,0,0,1,31.22,97C31.27,99.29,31.2,101.62,31.18,103.93Z"/><path class="cls-37" d="M130.43,62.48c-.78-1.71-2.31-2.77-3.56-4.07-2.16-2.23-4.39-4.39-6.57-6.6-.49-.5-1.16-.89-1.19-1.7h3.51c0,.82.71,1.21,1.2,1.7,3,3,6,6,8.93,9,.49.5,1.16.89,1.2,1.71A2.63,2.63,0,0,1,130.43,62.48Z"/><path class="cls-38" d="M93.66,32.85c-1.9-.91-3-2.7-4.56-4-.44-.38-.73-1.18-1.55-.67.33-2.18,1.23-3,3.3-3.1.7,0,1.4,0,2.09.06a54.78,54.78,0,0,1,4.35,4.27c.48.49,1,1,.72,1.84a17.67,17.67,0,0,1-2.72,0C94,31.13,93.53,31.63,93.66,32.85Z"/><path class="cls-14" d="M99.19,25.12c.83,0,.79-.59.79-1.18,0-1.19,0-2.38.06-3.58.76-.51,1.22.1,1.65.52,1.51,1.49,3.1,2.92,4.47,4.56,0,.85.08,1.69,0,2.53-.08,2-.93,2.89-3.1,3.26-.09-1.86-1.8-2.54-2.74-3.78C99.84,26.75,98.7,26.34,99.19,25.12Z"/><path class="cls-39" d="M106.16,46.14c-2.42-1.25-3.89-3.55-5.81-5.34-1-.94-2.31-1.7-2.72-3.19,1.8,0,3.6-.1,5.4,0a3,3,0,0,1,3.17,3.17C106.26,42.54,106.17,44.34,106.16,46.14Z"/><path class="cls-40" d="M194.08,111.72q-5.82-6.25-12.08-12.07a3.59,3.59,0,0,1,1.1-2c.79-.27,1.2.34,1.63.78q5.25,5.19,10.45,10.44c.44.44,1,.85.84,1.63C195.46,111.05,195,111.7,194.08,111.72Z"/><path class="cls-40" d="M175.33,136.71q-5.82-6.26-12.07-12.07a3.58,3.58,0,0,1,1.09-2c.79-.26,1.2.35,1.64.78q5.25,5.19,10.45,10.44c.43.45,1,.85.84,1.63C176.72,136.05,176.22,136.7,175.33,136.71Z"/><path class="cls-40" d="M175.33,80.48q-5.82-6.26-12.07-12.08a3.64,3.64,0,0,1,1.09-2c.79-.26,1.2.35,1.64.78q5.25,5.2,10.45,10.45c.43.44,1,.85.84,1.63C176.72,79.81,176.22,80.46,175.33,80.48Z"/><path class="cls-41" d="M93.75,181.61q0-4.47,0-8.94c.76-.52,1.22.09,1.65.51,1.51,1.49,3.11,2.92,4.47,4.56l0,3.91c-.93.71-1.93,0-2.89.12h-.86a15.7,15.7,0,0,0-1.68.19A1,1,0,0,1,93.75,181.61Z"/><path class="cls-42" d="M99.19,25.12c.8,1.94,2.64,3,4,4.44.6.68.77,1.13,0,1.67H98c-.79-1.75-2.42-2.77-3.63-4.16-.53-.61-1.36-1-1.44-1.95Z"/><path class="cls-43" d="M43.67,105.11c-.19,2,.81,4.23-.74,6.12a16.16,16.16,0,0,1-5.38-5.34V100c.77-.51,1.23.1,1.65.52A60.11,60.11,0,0,1,43.67,105.11Z"/><path class="cls-44" d="M162.45,87.6c.28,1.3,1.49,1.86,2.26,2.76.95,1.11,2.23,1.94,2.81,3.36l-5,.08c-.62.46-1.12.08-1.52-.32a39.16,39.16,0,0,1-4.26-4.38C158.15,86.74,160.44,87.71,162.45,87.6Z"/><path class="cls-45" d="M37.55,105.89l5.38,5.34c-1.47,1.91-3.54,1.2-5.44,1.23-.28-1.31-1.49-1.86-2.26-2.76-.95-1.11-2.22-1.94-2.81-3.36C34.11,106,35.91,106.79,37.55,105.89Z"/><path class="cls-46" d="M162.07,104.34c-.88,2.35-2.85,1.94-4.69,1.87a54.78,54.78,0,0,1-4.35-4.27c-.48-.49-1-1-.72-1.85a28.29,28.29,0,0,1,2.91,0c1,.08,1-.52,1.05-1.18a1.49,1.49,0,0,1,1.57.46c1.44,1.24,2.73,2.67,4.12,4A.71.71,0,0,1,162.07,104.34Z"/><path class="cls-47" d="M87.54,35.21c2.95,2.73,5.79,5.56,8.52,8.52-1.76,0-3.52.09-5.27.05a3.08,3.08,0,0,1-3.3-3.3C87.45,38.72,87.52,37,87.54,35.21Z"/><path class="cls-48" d="M112.4,164.46a36.62,36.62,0,0,1-8.12-8.13c1.69,0,3.38-.11,5.07,0a3,3,0,0,1,3.09,3.1C112.51,161.07,112.42,162.77,112.4,164.46Z"/><path class="cls-43" d="M156.72,89.1c1.7.69,2.56,2.33,3.9,3.43.58.49,1,1.25,1.88,1.27l-.11,5.83c-.81.26-1.35-.24-1.84-.72a56.69,56.69,0,0,1-4.28-4.35C156.33,92.73,155.76,90.85,156.72,89.1Z"/><path class="cls-40" d="M131.6,180.45a1.82,1.82,0,0,0-.74-1.31q-5-5-10-10a1.82,1.82,0,0,0-1.31-.74,3.55,3.55,0,0,1,1.09-2c.8-.27,1.2.34,1.64.78q5.25,5.19,10.45,10.44c.43.44,1,.85.84,1.63C133,179.78,132.49,180.43,131.6,180.45Z"/><path class="cls-40" d="M131.6,36.74a1.82,1.82,0,0,0-.74-1.31q-5-5-10-10a1.85,1.85,0,0,0-1.31-.74,3.58,3.58,0,0,1,1.09-2c.8-.27,1.2.34,1.64.78q5.25,5.19,10.45,10.44c.43.44,1,.85.84,1.63C133,36.07,132.49,36.72,131.6,36.74Z"/><path class="cls-40" d="M75.37,36.74a1.83,1.83,0,0,0-.75-1.31l-10-10a1.81,1.81,0,0,0-1.3-.74,3.58,3.58,0,0,1,1.09-2c.79-.27,1.2.34,1.64.78q5.25,5.19,10.44,10.44c.44.44,1,.85.85,1.63C76.75,36.07,76.25,36.72,75.37,36.74Z"/><path class="cls-40" d="M31.63,80.48a1.83,1.83,0,0,0-.74-1.31q-5-5-10-10a1.82,1.82,0,0,0-1.31-.74,3.58,3.58,0,0,1,1.09-2c.79-.26,1.2.35,1.64.78q5.25,5.2,10.45,10.45c.43.44,1,.85.84,1.63C33,79.81,32.52,80.46,31.63,80.48Z"/><path class="cls-40" d="M100.36,199.19a1.81,1.81,0,0,0-.74-1.3l-10-10a1.87,1.87,0,0,0-1.31-.75,3.58,3.58,0,0,1,1.09-2c.79-.26,1.2.35,1.64.78q5.25,5.19,10.45,10.45c.43.44,1,.85.84,1.63C101.74,198.53,101.25,199.18,100.36,199.19Z"/><path class="cls-40" d="M106.61,18a1.81,1.81,0,0,0-.75-1.3l-10-10a1.82,1.82,0,0,0-1.31-.74,3.58,3.58,0,0,1,1.09-2c.79-.26,1.2.35,1.64.78q5.25,5.2,10.44,10.45c.44.44,1,.85.85,1.63C108,17.33,107.49,18,106.61,18Z"/><path class="cls-40" d="M12.89,105.47a1.87,1.87,0,0,0-.75-1.31q-5-5-10-10a1.83,1.83,0,0,0-1.3-.74,3.52,3.52,0,0,1,1.09-2c.79-.27,1.2.34,1.63.78Q8.78,97.38,14,102.63c.44.44,1,.85.84,1.63C14.26,104.8,13.77,105.45,12.89,105.47Z"/><path class="cls-49" d="M95.66,169.14c2.18-.79,4.43-.24,6.65-.32a62.07,62.07,0,0,1,4.56,4.47c.42.43,1,.89.52,1.65h-5.47C99.73,173.12,98,170.81,95.66,169.14Z"/><path class="cls-50" d="M95.66,169.14a1.77,1.77,0,0,1,1.56.58c1.52,1.79,3.63,3,4.7,5.22-2.58-.44-1.8,1.54-2,2.8-1.68-.57-2.45-2.2-3.75-3.22-.79-.62-1.23-1.68-2.37-1.85C93.61,171.07,94,169.75,95.66,169.14Z"/><path class="cls-51" d="M48,100c-1.42.37-3-.44-4.35.45-1,.14-1.42-.74-2-1.26-1.31-1.12-2.28-2.62-3.86-3.44C38.86,93.28,41,93.8,43,93.85a58.39,58.39,0,0,1,4.35,4.27C47.79,98.61,48.29,99.16,48,100Z"/><path class="cls-52" d="M107.39,174.94c-.45-1.52-1.92-2.18-2.81-3.33-.73-1-2-1.47-2.27-2.79,1.31-.32,2.73.39,4-.45a.56.56,0,0,1,.7-.13,18.49,18.49,0,0,1,4.82,4.84.55.55,0,0,1-.13.7C110.58,175.4,108.93,175,107.39,174.94Z"/><path class="cls-53" d="M37.79,95.71c.75-.39,1.16.11,1.62.57,1.41,1.39,2.84,2.75,4.26,4.13v4.7c-1.68-.58-2.45-2.21-3.74-3.22-.79-.63-1.23-1.69-2.38-1.86C37.6,98.59,37.14,97.12,37.79,95.71Z"/><path class="cls-54" d="M152.31,100.09c.83,1.81,2.51,2.87,3.76,4.3.5.57,1.25.94,1.31,1.82l-7.41.09c0-1.57,0-3.14-.05-4.71,0-.53,0-1.06.05-1.58Z"/><path class="cls-55" d="M17.55,101.13c-.38.57-.39,1.38-1.11,1.73q-6.53-6.49-13-13A3.19,3.19,0,0,1,5.07,88.7c.78-.22,1.19.36,1.63.8q5,5,10,10C17.15,99.94,17.71,100.36,17.55,101.13Z"/><path class="cls-55" d="M36.29,76.14c-.38.57-.39,1.37-1.1,1.73q-6.54-6.5-13-13a3.11,3.11,0,0,1,1.66-1.13c.78-.22,1.19.36,1.63.79q5,5,10,10C35.89,75,36.46,75.37,36.29,76.14Z"/><path class="cls-55" d="M122.13,164.81a3.19,3.19,0,0,1,1.66-1.13c.78-.22,1.19.36,1.63.79q5,5,10,10c.45.44,1,.86.84,1.63-.37.57-.39,1.38-1.1,1.73Q128.62,171.34,122.13,164.81Z"/><path class="cls-55" d="M90.89,183.56a3.22,3.22,0,0,1,1.66-1.14c.78-.22,1.19.37,1.63.8q5,5,10,10c.44.45,1,.86.84,1.63-.38.58-.39,1.38-1.1,1.73Q97.38,190.08,90.89,183.56Z"/><path class="cls-56" d="M48,100c-.79-1.75-2.42-2.77-3.62-4.16-.53-.61-1.37-1-1.44-2l7-.11,0,4.73a1.12,1.12,0,0,1,0,1.6Z"/><path class="cls-36" d="M156.27,94.56c1.31.28,1.86,1.49,2.76,2.26,1.11,1,1.94,2.23,3.36,2.81,0,1.57.44,3.18-.32,4.71a25.11,25.11,0,0,0-5.8-5.47Z"/><path class="cls-57" d="M174.89,94.56a27.13,27.13,0,0,1-7-7c1.22,0,2.44-.09,3.65-.06a3.13,3.13,0,0,1,3.37,3.37C175,92.13,174.91,93.34,174.89,94.56Z"/><path class="cls-56" d="M106.16,25.44c-1.68-.57-2.45-2.2-3.75-3.22-.79-.62-1.23-1.68-2.37-1.86l0-2a11.64,11.64,0,0,0,6.17,0C106.17,20.73,106.16,23.09,106.16,25.44Z"/><path class="cls-44" d="M111.67,173.78a16,16,0,0,0-5.39-5.41v-3.91c1.67.5,2.68,1.87,3.89,3,.7.63,1.15,1.58,2.22,1.72C112.35,170.72,113,172.4,111.67,173.78Z"/><path class="cls-58" d="M78.93,34.13l-.77.8A2.52,2.52,0,0,1,77,34.21L65.82,23a2.52,2.52,0,0,1-.72-1.12l.8-.77c.91-.45,1.47.18,2,.72q5.18,5.12,10.3,10.3C78.74,32.66,79.38,33.21,78.93,34.13Z"/><path class="cls-58" d="M3.41,89.83a2.19,2.19,0,0,1,1.48.83Q10.25,96,15.61,101.38a2.15,2.15,0,0,1,.83,1.48l-.76.8a2.52,2.52,0,0,1-1.12-.72Q8.94,97.33,3.34,91.72a2.54,2.54,0,0,1-.73-1.12Z"/><path class="cls-58" d="M122.13,164.81a2.19,2.19,0,0,1,1.48.83l10.72,10.72a2.19,2.19,0,0,1,.83,1.48l-.76.8a2.52,2.52,0,0,1-1.12-.72q-5.62-5.61-11.22-11.22a2.49,2.49,0,0,1-.73-1.13Z"/><path class="cls-58" d="M183.81,96.84l.8-.76c.92-.45,1.47.18,2,.72q5.18,5.11,10.29,10.29c.54.55,1.18,1.1.72,2l-.76.8a2.52,2.52,0,0,1-1.12-.72q-5.62-5.61-11.22-11.22A2.57,2.57,0,0,1,183.81,96.84Z"/><path class="cls-58" d="M22.16,64.84a2.19,2.19,0,0,1,1.48.83L34.35,76.39a2.2,2.2,0,0,1,.84,1.48l-.76.8a2.49,2.49,0,0,1-1.13-.73L22.08,66.73a2.55,2.55,0,0,1-.72-1.13Z"/><path class="cls-59" d="M110.17,15.38l-.76.81a2.57,2.57,0,0,1-1.13-.73q-5.61-5.6-11.22-11.22a2.52,2.52,0,0,1-.72-1.12l.8-.76c.92-.46,1.47.18,2,.72q5.17,5.12,10.3,10.29C110,13.91,110.63,14.46,110.17,15.38Z"/><path class="cls-58" d="M178.9,77.87l-.76.8a2.49,2.49,0,0,1-1.13-.73L165.79,66.73a2.55,2.55,0,0,1-.72-1.13l.8-.76c.92-.45,1.47.18,2,.72q5.18,5.11,10.3,10.29C178.71,76.39,179.36,77,178.9,77.87Z"/><path class="cls-58" d="M165.07,121.84l.8-.77c.92-.45,1.47.18,2,.72q5.18,5.13,10.3,10.3c.53.54,1.18,1.09.72,2l-.76.8a2.55,2.55,0,0,1-1.13-.72L165.79,123A2.52,2.52,0,0,1,165.07,121.84Z"/><path class="cls-58" d="M121.33,21.87l.8-.77c.92-.45,1.47.18,2,.72q5.17,5.12,10.29,10.3c.54.54,1.18,1.09.72,2l-.76.8a2.52,2.52,0,0,1-1.12-.72L122.06,23A2.46,2.46,0,0,1,121.33,21.87Z"/><path class="cls-58" d="M90.89,183.56a2.15,2.15,0,0,1,1.48.83q5.35,5.36,10.72,10.71a2.23,2.23,0,0,1,.83,1.48l-.76.8a2.47,2.47,0,0,1-1.13-.72q-5.61-5.59-11.21-11.22a2.46,2.46,0,0,1-.73-1.12Z"/><path class="cls-55" d="M197.64,109.11a2.19,2.19,0,0,0-.83-1.48q-5.37-5.35-10.72-10.72a2.19,2.19,0,0,0-1.48-.83,1.61,1.61,0,0,1,1.15-.79c.91-.42,1.48.17,2,.72q5,4.93,9.92,9.92c.55.56,1.13,1.13.72,2A1.63,1.63,0,0,1,197.64,109.11Z"/><path class="cls-55" d="M78.93,34.13a2.2,2.2,0,0,0-.84-1.48Q72.73,27.3,67.38,21.93a2.19,2.19,0,0,0-1.48-.83A1.59,1.59,0,0,1,67,20.31c.91-.42,1.48.17,2,.72Q74.06,26,79,31c.55.56,1.13,1.13.72,2A1.62,1.62,0,0,1,78.93,34.13Z"/><path class="cls-55" d="M135.16,34.13a2.23,2.23,0,0,0-.83-1.48Q129,27.3,123.61,21.93a2.19,2.19,0,0,0-1.48-.83,1.61,1.61,0,0,1,1.15-.79c.91-.42,1.48.17,2,.72q5,4.93,9.93,9.92c.55.56,1.13,1.13.72,2A1.63,1.63,0,0,1,135.16,34.13Z"/><path class="cls-55" d="M110.17,15.38a2.16,2.16,0,0,0-.84-1.47L98.62,3.19a2.19,2.19,0,0,0-1.48-.83,1.63,1.63,0,0,1,1.14-.8c.91-.41,1.48.18,2,.73q5,4.94,9.92,9.92c.56.56,1.13,1.13.72,2A1.57,1.57,0,0,1,110.17,15.38Z"/><path class="cls-55" d="M178.9,134.1a2.2,2.2,0,0,0-.84-1.48l-10.71-10.71a2.2,2.2,0,0,0-1.48-.84,1.62,1.62,0,0,1,1.14-.79c.91-.42,1.49.17,2,.72q5,4.94,9.92,9.92c.56.56,1.13,1.14.73,2A1.63,1.63,0,0,1,178.9,134.1Z"/><path class="cls-55" d="M178.9,77.87a2.2,2.2,0,0,0-.84-1.48L167.35,65.67a2.19,2.19,0,0,0-1.48-.83,1.59,1.59,0,0,1,1.14-.79c.91-.42,1.49.17,2,.72q5,4.94,9.92,9.92c.56.56,1.13,1.13.73,2A1.63,1.63,0,0,1,178.9,77.87Z"/><path class="cls-60" d="M125,157.83v-3.51a1.14,1.14,0,0,1,1.26.26c1.75,1.61,3.67,3.06,4.86,5.19l0,3.13c-.56.48-1.07.28-1.57-.12C128.29,160.94,126.44,159.58,125,157.83Z"/><path class="cls-35" d="M125,37.12l1.52.43c1.59,1.52,3.19,3,4.63,4.68v3.51a1.14,1.14,0,0,1-1.26-.26c-1.75-1.61-3.67-3.06-4.86-5.19Z"/><path class="cls-35" d="M68.77,37.12l1.52.43c1.59,1.52,3.18,3,4.62,4.68v3.51a1.12,1.12,0,0,1-1.25-.26c-1.75-1.61-3.67-3.06-4.86-5.19Z"/><path class="cls-35" d="M162.45,73.48c.14.51.28,1,.43,1.52l-3.17,0c-2.13-1.19-3.58-3.11-5.19-4.86a1.14,1.14,0,0,1-.26-1.26h3.51C159.43,70.29,160.94,71.89,162.45,73.48Z"/><path class="cls-35" d="M162.45,129.71c.14.51.28,1,.43,1.52l-3.17,0c-2.13-1.19-3.58-3.11-5.19-4.86a1.12,1.12,0,0,1-.26-1.25h3.51C159.43,126.53,160.94,128.12,162.45,129.71Z"/><path class="cls-60" d="M37.1,68.81l3.13,0c2.13,1.2,3.58,3.11,5.19,4.86A1.14,1.14,0,0,1,45.68,75h-3.5c-1.76-1.41-3.12-3.26-5-4.58A1.11,1.11,0,0,1,37.1,68.81Z"/><path class="cls-61" d="M96.34,3.12q6.84,6.22,13.07,13.07c-.22.3-.42.62-.86.6-4.2-4.4-8.43-8.77-12.93-12.86Z"/><path class="cls-61" d="M2.61,90.6q6.86,6.21,13.07,13.06c-.21.31-.42.62-.86.6C10.63,99.86,6.4,95.5,1.9,91.41Z"/><path class="cls-61" d="M121.33,165.57q6.86,6.23,13.07,13.07c-.21.31-.42.62-.86.6-4.19-4.4-8.42-8.76-12.93-12.85Z"/><path class="cls-61" d="M121.33,21.87q6.86,6.21,13.07,13.06c-.21.31-.42.62-.86.6-4.19-4.4-8.42-8.76-12.93-12.85Z"/><path class="cls-61" d="M183.81,96.84q6.85,6.22,13.07,13.07c-.21.31-.42.62-.86.6-4.19-4.4-8.42-8.76-12.92-12.85Z"/><path class="cls-61" d="M21.36,65.6q6.84,6.23,13.07,13.07c-.21.31-.42.62-.86.6-4.2-4.4-8.43-8.76-12.93-12.86Z"/><path class="cls-61" d="M165.07,65.6q6.84,6.23,13.07,13.07c-.22.31-.42.62-.86.6-4.2-4.4-8.43-8.76-12.93-12.86Z"/><path class="cls-61" d="M165.07,121.84q6.84,6.21,13.07,13.06c-.22.31-.42.62-.86.6-4.2-4.4-8.43-8.76-12.93-12.85Z"/><path class="cls-61" d="M65.1,21.87q6.84,6.21,13.06,13.06c-.21.31-.41.62-.85.6-4.2-4.4-8.43-8.76-12.93-12.85Z"/><path class="cls-61" d="M90.09,184.32q6.85,6.21,13.07,13.06c-.21.31-.42.63-.86.61-4.2-4.4-8.43-8.77-12.93-12.86Z"/><path class="cls-62" d="M111,14.25a2.23,2.23,0,0,0-.81-1.48q-5.2-5.19-10.39-10.39a2.24,2.24,0,0,0-1.48-.82A2.22,2.22,0,0,1,99.94.75a3.4,3.4,0,0,1,1.53,1.14q4.59,4.58,9.17,9.16a3.38,3.38,0,0,1,1.13,1.53A2.24,2.24,0,0,1,111,14.25Z"/><path class="cls-62" d="M198.44,108a2.22,2.22,0,0,0-.82-1.48L187.24,96.11a2.2,2.2,0,0,0-1.48-.82,2.18,2.18,0,0,1,1.65-.81A3.41,3.41,0,0,1,189,95.61q4.59,4.58,9.16,9.16a3.41,3.41,0,0,1,1.13,1.54A2.19,2.19,0,0,1,198.44,108Z"/><path class="cls-62" d="M136,33a2.26,2.26,0,0,0-.82-1.48q-5.2-5.19-10.38-10.38a2.26,2.26,0,0,0-1.48-.82,2.17,2.17,0,0,1,1.65-.81,3.46,3.46,0,0,1,1.54,1.13q4.58,4.57,9.16,9.16a3.46,3.46,0,0,1,1.13,1.54A2.23,2.23,0,0,1,136,33Z"/><path class="cls-62" d="M179.7,133a2.3,2.3,0,0,0-.82-1.48q-5.2-5.17-10.39-10.38a2.24,2.24,0,0,0-1.48-.82,2.19,2.19,0,0,1,1.66-.81,3.38,3.38,0,0,1,1.53,1.13l9.17,9.16a3.46,3.46,0,0,1,1.13,1.54A2.26,2.26,0,0,1,179.7,133Z"/><path class="cls-62" d="M179.7,76.73a2.28,2.28,0,0,0-.82-1.48q-5.2-5.19-10.39-10.39a2.23,2.23,0,0,0-1.48-.81,2.19,2.19,0,0,1,1.66-.81,3.38,3.38,0,0,1,1.53,1.13q4.59,4.57,9.17,9.16a3.36,3.36,0,0,1,1.13,1.54A2.26,2.26,0,0,1,179.7,76.73Z"/><path class="cls-62" d="M79.72,33a2.25,2.25,0,0,0-.81-1.48L68.52,21.13A2.24,2.24,0,0,0,67,20.31a2.19,2.19,0,0,1,1.66-.81,3.38,3.38,0,0,1,1.53,1.13q4.59,4.57,9.16,9.16a3.41,3.41,0,0,1,1.14,1.54A2.24,2.24,0,0,1,79.72,33Z"/><path class="cls-46" d="M150,71.54c0-.93,0-1.85,0-2.77l1.56.08c1.73,1.48,3.25,3.17,4.86,4.78.36.35.77.73.6,1.34h-3.52A23.8,23.8,0,0,1,150,71.54Z"/><path class="cls-46" d="M150,127.77c0-.93,0-1.85,0-2.77l1.55.09c1.73,1.47,3.25,3.17,4.86,4.77.36.36.77.73.6,1.34h-3.52A28.11,28.11,0,0,1,150,127.77Z"/><path class="cls-63" d="M124.93,150l.43,0,2.34,0a27.75,27.75,0,0,1,3.45,3.49V157c-.79.18-1.19-.42-1.63-.86-1.5-1.52-3.11-2.95-4.49-4.59Z"/><path class="cls-46" d="M75,50l-.42,0L72.23,50a28.11,28.11,0,0,1-3.43-3.47V43c.78-.17,1.18.43,1.62.87,1.51,1.52,3.11,3,4.49,4.59Z"/><path class="cls-46" d="M131.23,50l-2.77,0A23.31,23.31,0,0,1,125,46.54V43c.79-.17,1.19.43,1.62.87,1.51,1.52,3.12,3,4.5,4.59Z"/><path class="cls-63" d="M50,72.3c0,.93,0,1.85,0,2.77L48.42,75c-1.73-1.47-3.25-3.17-4.86-4.77-.36-.36-.77-.74-.6-1.35h3.51A36.78,36.78,0,0,1,50,72.3Z"/><path class="cls-64" d="M137.1,173.89a.53.53,0,0,1,0,.33c-.62.22-1-.2-1.35-.55-3.16-3.09-6.27-6.22-9.37-9.37-.41-.4-.85-.83-.65-1.52a1.24,1.24,0,0,1,1.54-.48c2.93,3,5.92,6,8.88,8.94a3.89,3.89,0,0,1,1.14,1.55A1.81,1.81,0,0,1,137.1,173.89Z"/><path class="cls-64" d="M18.66,97.68a2,2,0,0,1-.34,1.56c-.7.2-1.1-.3-1.5-.7q-4.58-4.52-9.1-9.1c-.39-.4-.91-.79-.69-1.5a.54.54,0,0,1,.33,0,1.85,1.85,0,0,1,1.09-.14,8.16,8.16,0,0,1,2.76,2.36C13.7,92.63,16.32,95,18.66,97.68Z"/><path class="cls-49" d="M157,131.2c-1.43-1.47-2.87-2.94-4.28-4.42-.48-.5-1.15-.88-1.18-1.69h2.74c1.31,2.49,3.82,3.91,5.45,6.11Z"/><path class="cls-49" d="M157,75c-1.43-1.47-2.87-2.94-4.28-4.43-.48-.5-1.15-.88-1.18-1.69h2.74c1.31,2.49,3.82,3.92,5.45,6.12Z"/><path class="cls-49" d="M131.15,48.48c-1.87-.76-2.82-2.55-4.28-3.77-.64-.53-1.23-1.12-1.84-1.69V40.29c2.2,1.63,3.63,4.14,6.12,5.45Z"/><path class="cls-64" d="M94.51,181.68a2,2,0,0,1,1.56-.34c3.39,3.32,7,6.42,9.93,10.21a1.78,1.78,0,0,1-.14,1.09.55.55,0,0,1,0,.33c-.71.22-1.1-.3-1.5-.69q-4.57-4.53-9.11-9.11C94.81,182.77,94.29,182.38,94.51,181.68Z"/><path class="cls-52" d="M125,151.58c1.86.75,2.82,2.55,4.28,3.76.64.54,1.23,1.13,1.84,1.69v2.74c-2.2-1.63-3.63-4.14-6.12-5.45Z"/><path class="cls-52" d="M43,68.85c1.43,1.48,2.87,2.94,4.29,4.43.47.5,1.14.88,1.17,1.69H45.68c-1.31-2.49-3.82-3.91-5.45-6.12Z"/><path class="cls-49" d="M74.91,48.48c-1.86-.76-2.81-2.55-4.27-3.77C70,44.18,69.41,43.59,68.8,43V40.29c2.2,1.63,3.62,4.14,6.11,5.45Z"/><path class="cls-64" d="M25.78,63a.51.51,0,0,1,.32-.05,1.84,1.84,0,0,1,1.11-.14A8,8,0,0,1,29.84,65c2.63,2.57,5.19,5.21,7.84,7.75a1.24,1.24,0,0,1-.42,1.56c-.86.27-1.32-.37-1.8-.85-3-3-5.94-5.9-8.88-8.88C26.15,64.14,25.55,63.74,25.78,63Z"/><path class="cls-65" d="M180.84,73.93a.51.51,0,0,1-.05.32c-.73.24-1.07-.34-1.47-.73q-4.57-4.53-9.11-9.11c-.39-.39-1-.73-.72-1.46a.59.59,0,0,1,.32-.06,1.92,1.92,0,0,1,1.11-.13,8,8,0,0,1,2.76,2.37c2.42,2.57,5.26,4.75,7.29,7.68A1.81,1.81,0,0,1,180.84,73.93Z"/><path class="cls-65" d="M188.23,94.19a.59.59,0,0,1,.32-.06,2,2,0,0,1,1.11-.13,7.81,7.81,0,0,1,2.76,2.37c2.42,2.57,5.27,4.75,7.3,7.68a1.87,1.87,0,0,1-.13,1.12.59.59,0,0,1-.06.32c-.73.24-1.07-.34-1.46-.73q-4.57-4.53-9.11-9.11C188.57,95.26,188,94.92,188.23,94.19Z"/><path class="cls-65" d="M125.75,19.21a.51.51,0,0,1,.32-.05,1.92,1.92,0,0,1,1.11-.14,7.9,7.9,0,0,1,2.76,2.37c2.42,2.57,5.26,4.75,7.3,7.69a1.93,1.93,0,0,1-.13,1.11.59.59,0,0,1-.06.32c-.73.24-1.07-.33-1.46-.72q-4.58-4.54-9.11-9.12C126.09,20.28,125.51,19.94,125.75,19.21Z"/><path class="cls-65" d="M69.52,19.21a.5.5,0,0,1,.32-.05A1.92,1.92,0,0,1,71,19a8,8,0,0,1,2.76,2.37C76.13,24,79,26.14,81,29.08a1.85,1.85,0,0,1-.13,1.11.51.51,0,0,1-.06.32c-.72.24-1.06-.33-1.46-.72q-4.57-4.54-9.11-9.12C69.85,20.28,69.27,19.94,69.52,19.21Z"/><path class="cls-65" d="M112.11,11.44a.47.47,0,0,1-.06.33c-.72.24-1.06-.34-1.46-.73Q106,6.51,101.48,1.93c-.39-.39-1-.73-.72-1.46a.59.59,0,0,1,.32-.06,1.84,1.84,0,0,1,1.11-.13A8,8,0,0,1,105,2.65c2.42,2.57,5.26,4.74,7.29,7.68A1.84,1.84,0,0,1,112.11,11.44Z"/><path class="cls-65" d="M180.84,130.16a.51.51,0,0,1-.05.32c-.73.25-1.07-.33-1.47-.72q-4.57-4.54-9.11-9.11c-.39-.4-1-.74-.72-1.47a.51.51,0,0,1,.32-.05,1.84,1.84,0,0,1,1.11-.13,7.86,7.86,0,0,1,2.76,2.36c2.42,2.58,5.26,4.75,7.29,7.69A1.77,1.77,0,0,1,180.84,130.16Z"/><path class="cls-66" d="M112.11,11.44l0-1.23C111,8.33,109.29,7,107.79,5.56,106,3.8,104.47,1.79,102.31.45l-1.23,0a5,5,0,0,1,4,0,36.17,36.17,0,0,1,7,7.05A4.94,4.94,0,0,1,112.11,11.44Z"/><path class="cls-66" d="M180.84,73.93l0-1.24c-1.08-1.87-2.79-3.17-4.29-4.65-1.77-1.75-3.31-3.77-5.47-5.11l-1.24,0a5,5,0,0,1,4,0A36.78,36.78,0,0,1,180.84,70,5,5,0,0,1,180.84,73.93Z"/><path class="cls-66" d="M80.87,30.19l0-1.23c-1.07-1.88-2.79-3.18-4.28-4.66-1.78-1.75-3.32-3.77-5.48-5.11l-1.23,0a5,5,0,0,1,4,0,36.44,36.44,0,0,1,7,7.05A5,5,0,0,1,80.87,30.19Z"/><path class="cls-66" d="M137.11,30.19l0-1.23c-1.08-1.88-2.79-3.18-4.29-4.66-1.77-1.75-3.31-3.77-5.47-5.11l-1.24,0a5,5,0,0,1,4,0,36.78,36.78,0,0,1,7,7.05A5,5,0,0,1,137.11,30.19Z"/><path class="cls-66" d="M199.59,105.17l0-1.24c-1.07-1.87-2.79-3.17-4.29-4.65-1.77-1.75-3.31-3.77-5.47-5.11l-1.23,0a5,5,0,0,1,4,0,36.22,36.22,0,0,1,7.05,7A5,5,0,0,1,199.59,105.17Z"/><path class="cls-66" d="M171.05,119.17l-1.24,0a5,5,0,0,1,4,0,36.22,36.22,0,0,1,7.05,7,5,5,0,0,1,0,4l0-1.23c-1.08-1.88-2.79-3.18-4.29-4.66C174.75,122.52,173.21,120.51,171.05,119.17Z"/><path class="cls-67" d="M137.1,173.89l0-1.22c-1.69-2.55-4.16-4.37-6.19-6.59-.74-.8-1.57-1.53-2.3-2.34-.35-.39-1-.79-.33-1.44a1.23,1.23,0,0,1,1.4.2,2.51,2.51,0,0,0,1.54.4.9.9,0,0,1,.12.36c.36,1.27,1.52,1.87,2.33,2.77,1.15,1.29,2.57,2.36,3.46,3.89A4.94,4.94,0,0,1,137.1,173.89Z"/><path class="cls-67" d="M105.86,192.64l0-1.23c-2.18-3.06-5.18-5.34-7.67-8.1-.53-.58-1.45-.95-1.3-2,1.07-.28,2,.32,3.08.33a.75.75,0,0,1,.13.35c.36,1.27,1.52,1.87,2.33,2.77,1.15,1.3,2.57,2.36,3.46,3.9A4.94,4.94,0,0,1,105.86,192.64Z"/><path class="cls-68" d="M17.55,101.13c-4-4.26-8.15-8.45-12.48-12.43a1.45,1.45,0,0,1,1.14-.47,15.57,15.57,0,0,1,3.56,3.26c2.76,2.84,5.79,5.39,8.24,8.52v0C18,100.48,18,100.91,17.55,101.13Z"/><path class="cls-68" d="M136.26,176.11c-4-4.27-8.14-8.46-12.47-12.43.27-.39.71-.41,1.11-.5,2.3,1.59,4,3.76,6,5.71s4.22,3.8,5.86,6.15C136.7,175.44,136.73,175.89,136.26,176.11Z"/><path class="cls-68" d="M36.29,76.14c-4-4.27-8.15-8.46-12.47-12.43A1.46,1.46,0,0,1,25,63.23c1.61.92,2.7,2.41,4,3.68,2.62,2.61,5.33,5.12,7.77,7.9a2,2,0,0,1,0,.26C36.73,75.49,36.76,75.92,36.29,76.14Z"/><path class="cls-68" d="M105,194.85c-4-4.26-8.15-8.45-12.47-12.43.27-.39.71-.4,1.11-.5,2.4,1.68,4.23,4,6.28,6s4,3.6,5.58,5.86C105.45,194.19,105.49,194.64,105,194.85Z"/><path class="cls-18" d="M37.06,74.25a2.06,2.06,0,0,0,.35-1.56,2.91,2.91,0,0,1-.27-.49,2.87,2.87,0,0,1,0-1.13,1.07,1.07,0,0,1,.41-.72A11.69,11.69,0,0,1,42.18,75l-5.43.1V75C36.5,74.61,36.78,74.43,37.06,74.25Z"/><path class="cls-69" d="M162.45,129.71a11.69,11.69,0,0,1-4.68-4.62l5.11,0A15.86,15.86,0,0,0,162.45,129.71Z"/><path class="cls-69" d="M74.91,42.23a11.63,11.63,0,0,1-4.62-4.68,15.86,15.86,0,0,0,4.65-.43Z"/><path class="cls-18" d="M129.65,162.5l-1.55.08a.65.65,0,0,1-.79,0,2.06,2.06,0,0,0-1.56.34.5.5,0,0,1-.76-.06l0-5A11.6,11.6,0,0,1,129.65,162.5Z"/><path class="cls-69" d="M131.15,42.23a11.65,11.65,0,0,1-4.63-4.68,15.8,15.8,0,0,0,4.65-.43C131.16,38.82,131.16,40.53,131.15,42.23Z"/><path class="cls-69" d="M162.45,73.48a11.65,11.65,0,0,1-4.68-4.63l5.11,0A15.8,15.8,0,0,0,162.45,73.48Z"/><path class="cls-70" d="M188.23,94.19q5.43,5.86,11.3,11.3a.85.85,0,0,1-.29.82,165,165,0,0,1-11.83-11.83A.89.89,0,0,1,188.23,94.19Z"/><path class="cls-70" d="M100.76.47q5.43,5.87,11.29,11.3a.83.83,0,0,1-.28.81A161,161,0,0,1,99.94.75.87.87,0,0,1,100.76.47Z"/><path class="cls-70" d="M125,162.87l.76.06q5.44,5.87,11.3,11.29a.87.87,0,0,1-.29.82,163.83,163.83,0,0,1-11.86-11.86A.47.47,0,0,1,125,162.87Z"/><path class="cls-70" d="M105.52,193.78a161.83,161.83,0,0,1-11.86-11.86.44.44,0,0,1,.09-.31l.76.07q5.44,5.85,11.3,11.29A.86.86,0,0,1,105.52,193.78Z"/><path class="cls-70" d="M69.52,19.21Q75,25.09,80.81,30.51a.84.84,0,0,1-.28.82A161,161,0,0,1,68.7,19.5.87.87,0,0,1,69.52,19.21Z"/><path class="cls-70" d="M169.49,119.18q5.43,5.88,11.3,11.3a.87.87,0,0,1-.29.82,161,161,0,0,1-11.83-11.83A.87.87,0,0,1,169.49,119.18Z"/><path class="cls-70" d="M169.49,63q5.43,5.86,11.3,11.3a.88.88,0,0,1-.29.82,163,163,0,0,1-11.83-11.83A.85.85,0,0,1,169.49,63Z"/><path class="cls-70" d="M125.75,19.21q5.43,5.88,11.3,11.3a.87.87,0,0,1-.29.82A161,161,0,0,1,124.93,19.5.88.88,0,0,1,125.75,19.21Z"/><path class="cls-70" d="M37.06,74.25l-.3.76A154.17,154.17,0,0,1,25,63.24l.82-.29Q31.2,68.82,37.06,74.25Z"/><path class="cls-70" d="M18,100A158,158,0,0,1,6.21,88.23L7,87.94c3.62,3.92,7.39,7.67,11.29,11.3C18.22,99.49,18.12,99.75,18,100Z"/><path class="cls-71" d="M137.1,26.21a61.76,61.76,0,0,1-7-7A8.68,8.68,0,0,1,137.1,26.21Z"/><path class="cls-71" d="M80.86,26.21a62.49,62.49,0,0,1-7-7A8.65,8.65,0,0,1,80.86,26.21Z"/><path class="cls-71" d="M180.84,70a61.76,61.76,0,0,1-7.05-7.05A8.68,8.68,0,0,1,180.84,70Z"/><path class="cls-71" d="M199.58,101.19a61.76,61.76,0,0,1-7.05-7A8.66,8.66,0,0,1,199.58,101.19Z"/><path class="cls-71" d="M180.84,126.19a63.42,63.42,0,0,1-7.05-7A8.66,8.66,0,0,1,180.84,126.19Z"/><path class="cls-71" d="M112.1,7.47a62.49,62.49,0,0,1-7-7A8.65,8.65,0,0,1,112.1,7.47Z"/><path class="cls-71" d="M105.86,188.67c-2.24-1.74-4-3.94-6.09-5.87-.54-.5-.33-.73.3-.8A8.35,8.35,0,0,1,105.86,188.67Z"/><path class="cls-71" d="M137.1,169.92c-2.24-1.73-4-3.93-6.09-5.86-.54-.51-.33-.74.3-.8A8.34,8.34,0,0,1,137.1,169.92Z"/><path class="cls-72" d="M37.5,70.35l-.1.76c-.94.15-1.35-.62-1.88-1.13-2.35-2.27-4.58-4.68-7-6.88a2.72,2.72,0,0,1-.11-.25c0-.09.07-.17.1-.25a2.85,2.85,0,0,1,2,.35c2.46,1.52,4.1,3.94,6.3,5.74a.82.82,0,0,1,.34.12A2.39,2.39,0,0,0,37.5,70.35Z"/><path class="cls-72" d="M18.36,93.81l.3,2.29c-.94.16-1.35-.62-1.88-1.13-2.36-2.27-4.59-4.67-7-6.88l-.12-.25c0-.08.07-.17.11-.25a2.92,2.92,0,0,1,2,.35c2.46,1.52,4.09,3.94,6.29,5.74A.87.87,0,0,1,18.36,93.81Z"/><path class="cls-71" d="M18,93.68c-.27.44-.53.21-.76,0l-5.53-5.71A8.51,8.51,0,0,1,18,93.68Z"/><path class="cls-71" d="M36.76,68.69c-.27.43-.53.2-.76,0L30.46,63A8.51,8.51,0,0,1,36.76,68.69Z"/><path class="cls-56" d="M50,72.3a6.7,6.7,0,0,1-3.5-3.45l3.51-.1c0,.92,0,1.85,0,2.77Z"/><path class="cls-54" d="M150,71.54A7.27,7.27,0,0,1,153.46,75l-3.49.08-.06-.8C149.94,73.35,150,72.44,150,71.54Z"/><path class="cls-54" d="M68.8,46.54A7.23,7.23,0,0,1,72.23,50L68.7,50C68.73,48.87,68.76,47.7,68.8,46.54Z"/><path class="cls-54" d="M125,46.54A7.27,7.27,0,0,1,128.46,50l-2.71.1L125,50C125,48.87,125,47.7,125,46.54Z"/><path class="cls-54" d="M150,127.77a7.23,7.23,0,0,1,3.47,3.43l-3.49.1c0-.27,0-.54-.05-.81C150,129.58,150,128.67,150,127.77Z"/><path class="cls-56" d="M131.15,153.52A7.26,7.26,0,0,1,127.7,150h3.55C131.22,151.19,131.18,152.36,131.15,153.52Z"/><path class="cls-73" d="M28.5,62.6c0,.11,0,.22,0,.33a.86.86,0,0,1-1.18,0l-1.23,0C26.84,62.32,27.69,62.58,28.5,62.6Z"/><path class="cls-73" d="M9.76,87.59v.33a.85.85,0,0,1-1.17,0l-1.23,0C8.1,87.32,8.94,87.57,9.76,87.59Z"/><path class="cls-74" d="M68.69,150,67.17,150q-8.72-8.4-17.12-17.12L50,131.31a3.74,3.74,0,0,1-.54-2.63,10.71,10.71,0,0,1,.21-2.88c.28-.67.78-.56,1.29-.34a5.26,5.26,0,0,1,1.54,1.19q10.43,10.41,20.84,20.84a4.9,4.9,0,0,1,1.28,1.71c.18.46.21.89-.35,1.14a11.27,11.27,0,0,1-2.9.25A4,4,0,0,1,68.69,150Z"/><path class="cls-75" d="M74.59,150A6.56,6.56,0,0,0,73,147.83L52.17,127A6.56,6.56,0,0,0,50,125.41a.26.26,0,0,1-.12-.28c0-.1.07-.15.1-.15,0-1.81.05-3.62.08-5.42,1-.51,1.43.28,1.94.78,3.6,3.54,7.14,7.14,10.75,10.67a6.07,6.07,0,0,1,.25,2.28c.06,2.57.37,3,2.83,3.9,3.62,3.75,7.36,7.37,11,11.11.42.42,1,.89.51,1.65L75,150A.27.27,0,0,1,74.59,150Z"/><path class="cls-76" d="M50.05,132.83c.67,0,1,.51,1.44.92l14.76,14.76c.41.41.91.77.92,1.44H65.59c-.79-.34-1.66.07-2.45-.29-6.24-.49-12.31-6.55-12.8-12.8-.35-.79,0-1.66-.29-2.46Z"/><path class="cls-77" d="M62.42,130.88c-.82,0-1.21-.7-1.71-1.19-3-3-6-6-9-8.94-.49-.49-.88-1.16-1.7-1.19v-7.81c.66-.48,1.13,0,1.52.38,3.75,3.59,7.29,7.38,11.1,10.91a1.12,1.12,0,0,1,.23.53,35.24,35.24,0,0,1,.12,5.72A1.87,1.87,0,0,1,62.42,130.88Z"/><path class="cls-77" d="M88.64,150H80.82c-3.77-3.48-7.3-7.21-10.91-10.86-.49-.49-1-1.11-.22-1.83A2.81,2.81,0,0,1,70.9,137a39,39,0,0,1,5.51.09.85.85,0,0,1,.36.12,126.3,126.3,0,0,1,11.52,11.5A1.23,1.23,0,0,1,88.64,150Z"/><path class="cls-78" d="M62.42,123.07c-1.71-.78-2.77-2.31-4.06-3.56-2.23-2.16-4.4-4.39-6.61-6.58-.49-.48-.88-1.15-1.7-1.18v-7.42c.55-.44,1-.1,1.36.25,3.86,3.78,7.75,7.53,11.45,11.47a15.77,15.77,0,0,1,.18,3.63C63,120.84,63.39,122.08,62.42,123.07Z"/><path class="cls-78" d="M88.64,150c-2.77-3.87-6.52-6.8-9.72-10.25l-2-2.12c1-1,2.33-.54,3.52-.63,1.32.08,2.74-.42,3.9.63.71,1.6,2.13,2.6,3.3,3.8,2.26,2.33,4.59,4.6,6.87,6.9.49.5,1.15.9,1.16,1.73l-2,0Z"/><path class="cls-1" d="M31.63,136.71a8.83,8.83,0,0,1-10.18-2,8.83,8.83,0,0,1-1.9-10c.86-.55,1.34.16,1.81.62Q26.24,130,31,134.9C31.47,135.37,32.18,135.85,31.63,136.71Z"/><path class="cls-1" d="M75.37,180.45a9.22,9.22,0,0,1-12.08-12.08c.86-.55,1.34.16,1.81.62q4.88,4.77,9.65,9.64C75.21,179.1,75.91,179.59,75.37,180.45Z"/><path class="cls-28" d="M62.42,115.65c-.82,0-1.21-.7-1.7-1.19-3-3-6-6-9-8.94-.49-.49-.88-1.16-1.7-1.19L50,100.07c0-.54,0-1.07,0-1.6.82,0,1.22.65,1.71,1.14,3,3,6,6,9,9,.49.48.89,1.13,1.69,1.19l.27.25C63.16,112,63.52,113.83,62.42,115.65Z"/><path class="cls-35" d="M93.79,153.53a3.26,3.26,0,0,1,1.85.94l6.12,6.13a3.24,3.24,0,0,1,.95,1.85c-1.93,0-3.87.1-5.79,0a3,3,0,0,1-3.17-3.17C93.69,157.39,93.77,155.46,93.79,153.53Z"/><path class="cls-75" d="M69.51,137.58c0,.82.7,1.21,1.19,1.7q4.24,4.28,8.51,8.51A6.94,6.94,0,0,1,80.82,150h-3.5c0-.82-.7-1.21-1.19-1.7q-4.23-4.27-8.51-8.51A7.43,7.43,0,0,1,66,137.58,2.62,2.62,0,0,1,69.51,137.58Z"/><path class="cls-40" d="M75.37,180.45a1.83,1.83,0,0,0-.75-1.31l-10-10a1.78,1.78,0,0,0-1.3-.74,3.52,3.52,0,0,1,1.09-2c.79-.27,1.2.34,1.64.78q5.25,5.19,10.44,10.44c.44.44,1,.85.85,1.63C76.75,179.78,76.25,180.43,75.37,180.45Z"/><path class="cls-40" d="M31.63,136.71a1.85,1.85,0,0,0-.74-1.31l-10-10a1.83,1.83,0,0,0-1.31-.75,3.58,3.58,0,0,1,1.09-2c.79-.26,1.2.35,1.64.78q5.25,5.19,10.45,10.44c.43.45,1,.85.84,1.63C33,136,32.52,136.69,31.63,136.71Z"/><path class="cls-55" d="M22.16,121.08a3.13,3.13,0,0,1,1.66-1.14c.78-.22,1.19.36,1.63.8q5,5,10,10c.44.44,1,.86.84,1.63-.38.57-.39,1.38-1.1,1.73Q28.65,127.61,22.16,121.08Z"/><path class="cls-55" d="M80,176.11c-.38.57-.39,1.38-1.11,1.73q-6.53-6.5-13-13a3.17,3.17,0,0,1,1.67-1.13c.77-.22,1.19.36,1.62.79q5,5,10,10C79.63,174.92,80.19,175.34,80,176.11Z"/><path class="cls-79" d="M25.06,105.11a30,30,0,0,1,7.35,7.35c-1.41,0-2.82.1-4.23.05A3.06,3.06,0,0,1,25,109.34C25,107.93,25,106.52,25.06,105.11Z"/><path class="cls-58" d="M22.16,121.08a2.14,2.14,0,0,1,1.48.82l10.71,10.72a2.2,2.2,0,0,1,.84,1.48l-.76.8a2.55,2.55,0,0,1-1.13-.72L22.08,123a2.52,2.52,0,0,1-.72-1.12Z"/><path class="cls-58" d="M65.89,164.81a2.19,2.19,0,0,1,1.48.83q5.35,5.37,10.72,10.72a2.15,2.15,0,0,1,.83,1.48l-.76.8a2.52,2.52,0,0,1-1.12-.72L65.82,166.7a2.55,2.55,0,0,1-.72-1.13Z"/><path class="cls-60" d="M45.68,131.2h-3.5c-1.76-1.41-3.12-3.26-5-4.57a1.11,1.11,0,0,1-.11-1.58l3.13,0c2.13,1.19,3.58,3.11,5.19,4.86A1.12,1.12,0,0,1,45.68,131.2Z"/><path class="cls-60" d="M68.8,157.83v-3.51a1.12,1.12,0,0,1,1.25.26c1.75,1.61,3.67,3.06,4.86,5.19l0,3.13c-.56.48-1.08.28-1.58-.12C72.06,160.94,70.21,159.58,68.8,157.83Z"/><path class="cls-61" d="M21.36,121.84q6.84,6.21,13.07,13.06c-.21.31-.42.62-.86.6-4.2-4.4-8.43-8.76-12.93-12.85Z"/><path class="cls-61" d="M65.1,165.57q6.84,6.23,13.06,13.07c-.21.31-.41.62-.85.6-4.2-4.4-8.43-8.76-12.93-12.85Z"/><path class="cls-63" d="M68.69,150h2.77a27.82,27.82,0,0,1,3.45,3.5V157c-.78.18-1.18-.42-1.62-.86-1.51-1.52-3.11-2.95-4.49-4.59Z"/><path class="cls-63" d="M50,128.54v2.77l-1.55-.11c-1.73-1.47-3.25-3.17-4.86-4.77-.36-.36-.77-.73-.6-1.34h3.51A40.82,40.82,0,0,1,50,128.54Z"/><path class="cls-52" d="M43,125.09c1.43,1.47,2.87,2.94,4.29,4.43.47.49,1.14.87,1.17,1.68H45.68c-1.31-2.49-3.82-3.91-5.45-6.11Z"/><path class="cls-64" d="M80.87,173.89a.61.61,0,0,1-.06.33c-.61.22-1-.2-1.35-.55-3.15-3.09-6.26-6.22-9.37-9.37-.4-.4-.85-.83-.65-1.52A1.25,1.25,0,0,1,71,162.3c2.93,3,5.92,6,8.88,8.94A3.87,3.87,0,0,1,81,172.79,1.81,1.81,0,0,1,80.87,173.89Z"/><path class="cls-64" d="M25.78,119.19a.51.51,0,0,1,.32-.06,1.84,1.84,0,0,1,1.11-.13,7.94,7.94,0,0,1,2.63,2.22c2.63,2.57,5.19,5.21,7.84,7.76a1.23,1.23,0,0,1-.42,1.55c-.86.27-1.32-.37-1.8-.85-3-2.94-5.94-5.89-8.88-8.87C26.15,120.37,25.55,120,25.78,119.19Z"/><path class="cls-52" d="M68.8,151.58c1.86.75,2.81,2.55,4.27,3.76.64.54,1.23,1.13,1.84,1.69v2.74c-2.2-1.63-3.62-4.14-6.11-5.45Z"/><path class="cls-67" d="M80.87,173.89l0-1.22c-1.68-2.55-4.15-4.37-6.18-6.59-.74-.8-1.57-1.53-2.3-2.34-.36-.39-1-.79-.33-1.44a1.21,1.21,0,0,1,1.39.2,2.55,2.55,0,0,0,1.54.4.92.92,0,0,1,.13.36c.35,1.27,1.52,1.87,2.32,2.77a25.08,25.08,0,0,1,3.46,3.89A4.94,4.94,0,0,1,80.87,173.89Z"/><path class="cls-68" d="M80,176.11c-4-4.27-8.15-8.46-12.47-12.43.26-.39.7-.41,1.11-.5,2.29,1.59,4,3.76,6,5.71s4.22,3.8,5.86,6.15C80.46,175.44,80.5,175.89,80,176.11Z"/><path class="cls-68" d="M36.29,132.37c-4-4.26-8.15-8.45-12.47-12.43a1.45,1.45,0,0,1,1.14-.47c1.61.91,2.7,2.4,4,3.68,2.62,2.6,5.33,5.11,7.77,7.89a2.56,2.56,0,0,1,0,.27C36.73,131.72,36.76,132.15,36.29,132.37Z"/><path class="cls-18" d="M37.06,130.48a2,2,0,0,0,.35-1.55,3.46,3.46,0,0,1-.27-.5,2.82,2.82,0,0,1,0-1.12,1,1,0,0,1,.41-.72,11.6,11.6,0,0,1,4.68,4.61l-5.43.11v-.06C36.5,130.85,36.78,130.66,37.06,130.48Z"/><path class="cls-18" d="M73.41,162.5l-1.54.08a.66.66,0,0,1-.8,0,2,2,0,0,0-1.55.34.5.5,0,0,1-.76-.06l0-5A11.52,11.52,0,0,1,73.41,162.5Z"/><path class="cls-70" d="M68.76,162.87l.76.06Q75,168.8,80.81,174.22a.84.84,0,0,1-.28.82,163.83,163.83,0,0,1-11.86-11.86A.42.42,0,0,1,68.76,162.87Z"/><path class="cls-70" d="M37.06,130.48l-.3.77A154.3,154.3,0,0,1,25,119.47l.82-.28C29.39,123.1,33.16,126.85,37.06,130.48Z"/><path class="cls-71" d="M80.86,169.92c-2.24-1.73-4-3.93-6.09-5.86-.53-.51-.33-.74.31-.8A8.33,8.33,0,0,1,80.86,169.92Z"/><path class="cls-72" d="M37.5,126.59l-.1.76c-.94.15-1.35-.63-1.88-1.14-2.35-2.27-4.58-4.67-7-6.88a1.89,1.89,0,0,1-.11-.25l.1-.25a2.91,2.91,0,0,1,2,.35c2.46,1.52,4.1,3.94,6.3,5.75a.7.7,0,0,1,.34.12A2.42,2.42,0,0,0,37.5,126.59Z"/><path class="cls-71" d="M36.76,124.93c-.27.43-.53.2-.76,0l-5.54-5.71A8.52,8.52,0,0,1,36.76,124.93Z"/><path class="cls-56" d="M50,128.54a6.72,6.72,0,0,1-3.51-3.45L50,125l0,.43Z"/><path class="cls-56" d="M74.91,153.52a7.29,7.29,0,0,1-3.45-3.5h3.13l.43,0Z"/><path class="cls-74" d="M63.14,149.66c.83.05,1.69-.31,2.45.29A4.13,4.13,0,0,1,63.14,149.66Z"/><path class="cls-74" d="M50.05,134.4c.6.77.24,1.64.29,2.46A4,4,0,0,1,50.05,134.4Z"/><path class="cls-73" d="M28.5,118.83c0,.11,0,.22,0,.33a.86.86,0,0,1-1.18,0l-1.23,0C26.84,118.56,27.69,118.81,28.5,118.83Z"/><path class="cls-80" d="M130.43,62.48H134c2.7.39,3.49,1.3,3.51,4,0,.77,0,1.53.06,2.3l-.12,3.1c-.91.29-1.47-.32-2-.85q-3.27-3.17-6.43-6.43c-.53-.54-1.14-1.1-.85-2Z"/><path class="cls-81" d="M62.42,82.85l.13-2.35c.86-.53,1.33.2,1.8.66Q77.79,94.53,91.18,108a2.37,2.37,0,0,1,.9,1.67,2.06,2.06,0,0,1-.36,1,6.58,6.58,0,0,0-.46.92,2.48,2.48,0,0,0,.18,2.17,2.94,2.94,0,0,0,2.79,1.41,8.33,8.33,0,0,1,2.11.13c1.26.51,1.19,2.21,2.45,2.71a3.05,3.05,0,0,0,2.22.2h.26a1,1,0,0,1,.49.22c5.26,5.57,10.82,10.85,16.17,16.33.74.75,1.8,1.38,1.56,2.72l-5.07.12-5.07-.13a19.87,19.87,0,0,1-2.27-2.13L63.85,92.1a15,15,0,0,1-1.31-1.45l-.12-.77Z"/><path class="cls-82" d="M119.49,137.46a7,7,0,0,0-1.62-2.17q-7.52-7.48-15-15c-.53-.53-1.28-1-1.32-1.84s.72-1.24.94-1.93c.42-1.37,1.69-1.32,2.74-1.64,1-.15,1.85-.92,2.93-.8,2.66,3.29,5.84,6.08,8.79,9.08,3.91,4,7.9,7.89,11.82,11.86.63.65,1.64,1.25.89,2.45l-6.25.12Z"/><path class="cls-83" d="M137.52,112.92v6.27l-.12-.06c-1.14.17-1.81-.63-2.47-1.29q-12.56-12.47-25-25a4.91,4.91,0,0,1-1.72-3,3.11,3.11,0,0,1,.39-1.33c.48-2.56-.38-3.5-3.29-3.61a2.62,2.62,0,0,1-3-1.57c-.6-1.41-2-1.49-3.26-1.72a4.72,4.72,0,0,1-1.66-1.31q-7.57-7.56-15.12-15.14c-.7-.7-1.69-1.31-1.41-2.58l5.06-.12,4.69.12a20,20,0,0,1,2.27,2.15L136.09,108a15,15,0,0,1,1.31,1.45Z"/><path class="cls-84" d="M80.85,62.6a6.74,6.74,0,0,0,1.62,2.16q7.5,7.49,15,15c.49.49.92,1.07,1.37,1.61a.43.43,0,0,1,0,.47,5.6,5.6,0,0,0-1,1.14c-.49,1.24-1.18,2.18-2.73,1.82a3.63,3.63,0,0,1-1.75-1.17q-9.21-9.18-18.38-18.4c-.68-.69-1.63-1.38-1.08-2.63l3.51-.12Z"/><path class="cls-85" d="M62.54,90.65c.82,0,1.22.71,1.71,1.2l43.9,43.9c.49.49,1.16.88,1.2,1.7l-3.52.13-6.65-.13c-1.17-.45-1.69-1.59-2.5-2.4Q80.78,119.21,65,103.32c-.81-.81-2-1.33-2.4-2.5,0-1-.09-2.09-.13-3.13Z"/><path class="cls-86" d="M62.55,100.82a18.87,18.87,0,0,1,3.55,3q15,15,30.07,30.07a18.87,18.87,0,0,1,3,3.55l-.77.13H90.19l0-.13a33.16,33.16,0,0,1-3.37-3.23q-11.52-11.49-23-23a11.83,11.83,0,0,1-1.29-1.45l-.13,0v-6.66C62.46,102.38,62.5,101.6,62.55,100.82Z"/><path class="cls-87" d="M128.11,62.6a46.73,46.73,0,0,0,9.29,9.29l.12,5.1-.12,4.29c-.87.54-1.34-.19-1.8-.65q-8.16-8.07-16.23-16.23c-.46-.46-1.19-.93-.65-1.8l3.9-.12Z"/><path class="cls-88" d="M129.65,137.46c.14-1-.6-1.51-1.18-2.1q-9.54-9.54-19.08-19.09c-.58-.58-1.37-1.06-1.19-2.08,0-.09,0-.17,0-.26a5.5,5.5,0,0,1,1.29-1.62,9.43,9.43,0,0,0,1.46-2c.33-.38.49-1,1.12-1a3.4,3.4,0,0,1,1.8,1.11q11.53,11.49,23,23c.18.19.31.42.49.61a3.66,3.66,0,0,1-.28,2c-1.38,2.11-3.59,1.39-5.52,1.62Z"/><path class="cls-82" d="M91.82,109.93c0-.89-.69-1.36-1.23-1.9Q77.42,94.86,64.25,81.7c-.49-.49-.88-1.16-1.7-1.2,0-1.43-.09-2.86-.13-4.29L62.54,70c1.26-.53,1.74.59,2.36,1.21q9.75,9.66,19.43,19.42c1.1,1.1,2.33,2.07,3.38,3.21.27.6.24,1.27.47,1.88a9.26,9.26,0,0,0,6.66,6.77,5.36,5.36,0,0,1,1,.52c1.4,1.6,2.85,3.14,4.34,4.66.51.52,1.19,1.11.46,2a1.69,1.69,0,0,1-.57.24,24.45,24.45,0,0,1-3.53.09c-1.37.06-2.74-.1-4.11.09A1.2,1.2,0,0,1,91.82,109.93Z"/><path class="cls-88" d="M87.41,93.78A7.71,7.71,0,0,1,85.12,92Q74.77,81.64,64.38,71.29c-.53-.54-.95-1.27-1.84-1.33L62.42,68c.2-2-.41-4.28,2-5.44l1.56,0c3.45,3.17,6.66,6.57,10,9.86,4.29,4.25,8.55,8.54,12.81,12.82A6.94,6.94,0,0,1,90.32,87c.14.84-.56,1.28-.89,1.9a5.67,5.67,0,0,0-.83,1.6,22,22,0,0,0-.81,2.85A1,1,0,0,1,87.41,93.78Z"/><path class="cls-89" d="M118.72,62.6c0,.67.5,1,.91,1.43q8.16,8.18,16.34,16.34c.41.41.76.91,1.43.91l.12,3.13v5.86l-.12.38c-.87.54-1.34-.19-1.8-.65Q122.76,77.25,110,64.4c-.46-.46-1.19-.93-.65-1.8l.38-.12h5.47Z"/><path class="cls-90" d="M8.59,87.93H9.76c3,2.55,5.54,5.45,8.33,8.15a3,3,0,0,1,.58,1.2v.41c-.88-.06-1.29-.8-1.82-1.33C14.07,93.56,11.34,90.74,8.59,87.93Z"/><path class="cls-73" d="M18.67,97.27c-2.23-2.76-5-5-7.37-7.62-.53-.56-1-1.15-1.54-1.73.9,0,1.32.76,1.85,1.28,2.36,2.29,4.7,4.6,7.05,6.9C18.66,96.49,18.67,96.88,18.67,97.27Z"/><path class="cls-91" d="M137.4,109.4c-.83,0-1.22-.7-1.71-1.2q-22-21.93-43.89-43.89c-.5-.49-1.17-.88-1.2-1.71l2.34-.12h5.47l2,.12a21.75,21.75,0,0,1,2.26,2.14q16.73,16.73,33.46,33.45a15,15,0,0,1,1.31,1.45l.12,2v5.08Z"/><path class="cls-92" d="M90.15,87.13,74.77,71.9q-3.8-3.78-7.58-7.59C66.7,63.82,66,63.43,66,62.6l4.68-.12,3.13.12a3.48,3.48,0,0,0,1.09,2q9.7,9.7,19.42,19.4a4,4,0,0,0,.64.43.46.46,0,0,1-.07.49,1.48,1.48,0,0,1-.45.28,8.27,8.27,0,0,0-2.12,1c-.62.31-1.08.85-1.72,1.14A.47.47,0,0,1,90.15,87.13Z"/><path class="cls-93" d="M137.4,99.64c-.82,0-1.21-.7-1.71-1.19L101.55,64.31c-.49-.49-1.15-.89-1.18-1.71l3.51-.12,5.47.12c0,.82.69,1.21,1.18,1.7Q123.1,76.9,135.7,89.47c.49.49.88,1.15,1.7,1.18l.12,5.87Z"/><path class="cls-94" d="M62.55,109.77c.72,0,1.11.62,1.56,1.07l25,25c.45.45,1,.84,1.07,1.56l-5.88.13-3.9-.13q-9.12-8.79-17.9-17.9c0-1.3-.09-2.6-.13-3.9Q62.48,112.71,62.55,109.77Z"/><path class="cls-92" d="M137.4,134c-.9-.05-1.31-.8-1.84-1.33l-20.81-20.78c-.87-.87-1.79-1.68-2.68-2.52a1.29,1.29,0,0,1-.32-1.16c.35-1.06,0-2.21.43-3.27,1-1.07,1.65,0,2.24.52,1.89,1.78,3.69,3.67,5.54,5.49,5.64,5.58,11.14,11.3,16.89,16.78a2.73,2.73,0,0,1,.55.79l.12.8Z"/><path class="cls-95" d="M108.53,89.8a6.26,6.26,0,0,0,1.87,2.89q12.34,12.35,24.7,24.67a22.27,22.27,0,0,0,2.3,1.77l.12,5.11-.12.78c-.73.51-1.21-.1-1.74-.41a10.59,10.59,0,0,1-2-1.8L105.32,94.52a11.13,11.13,0,0,1-2-2.37c-.31-.55-.76-1.13-.06-1.73a4.45,4.45,0,0,1,2-.28,6,6,0,0,0,1.93-.17A2.24,2.24,0,0,1,108.53,89.8Z"/><path class="cls-96" d="M103.1,90.72A6.8,6.8,0,0,0,105,93.57l29.52,29.52A6.89,6.89,0,0,0,137.4,125v3.5a7,7,0,0,1-2.3-1.75Q124.72,116.38,114.33,106c-.54-.54-1-1.27-1.87-1.29-.73-.24-.82-.94-1.08-1.52a9,9,0,0,0-8.27-5.8,2.74,2.74,0,0,1-1.12-.26c-1.42-1.5-2.88-3-4.33-4.44-.53-.54-1.21-1-1-2a1.07,1.07,0,0,1,.47-.37,10,10,0,0,1,2.5-.22,11.46,11.46,0,0,1,2.92.19A1.07,1.07,0,0,1,103.1,90.72Z"/><path class="cls-90" d="M96.86,181.32l7.84,8c.59.6,1.28,1.13,1.13,2.11-3.17-3.12-6.35-6.23-9.5-9.36-.16-.16-.18-.47-.26-.71Z"/><path class="cls-90" d="M127.31,162.59h.79l7.84,8c.59.59,1.28,1.12,1.13,2.11-3.17-3.12-6.35-6.24-9.5-9.37C127.41,163.14,127.39,162.83,127.31,162.59Z"/><path class="cls-90" d="M27.33,62.93h1.18c2.94,2.54,5.54,5.45,8.33,8.15a3.11,3.11,0,0,1,.58,1.2v.41c-.89-.07-1.3-.8-1.83-1.33C32.82,68.56,30.08,65.74,27.33,62.93Z"/><path class="cls-90" d="M171.05,62.93a2,2,0,0,1,1.71.73q3.65,3.68,7.32,7.32a2,2,0,0,1,.73,1.71Q175.68,68.05,171.05,62.93Z"/><path class="cls-90" d="M189.79,94.17a2,2,0,0,1,1.72.73q3.63,3.67,7.31,7.32a1.94,1.94,0,0,1,.73,1.71Q194.43,99.3,189.79,94.17Z"/><path class="cls-90" d="M127.31,19.19a2,2,0,0,1,1.71.73q3.64,3.67,7.32,7.32a2,2,0,0,1,.73,1.72Q132,24.31,127.31,19.19Z"/><path class="cls-90" d="M71.07,19.19a2,2,0,0,1,1.72.73q3.64,3.67,7.32,7.32A2,2,0,0,1,80.83,29Q75.72,24.31,71.07,19.19Z"/><path class="cls-90" d="M102.31.45a2,2,0,0,1,1.72.73q3.64,3.68,7.32,7.31a2,2,0,0,1,.73,1.72Q107,5.57,102.31.45Z"/><path class="cls-90" d="M171.05,119.17a2,2,0,0,1,1.71.72c2.43,2.46,4.87,4.89,7.32,7.32a2,2,0,0,1,.73,1.72Q175.68,124.28,171.05,119.17Z"/><path class="cls-73" d="M37.42,72.28c-2.23-2.76-5-5-7.38-7.63-.53-.56-1-1.14-1.53-1.72.9,0,1.31.75,1.85,1.28,2.36,2.29,4.7,4.6,7,6.9C37.41,71.5,37.41,71.89,37.42,72.28Z"/><path class="cls-97" d="M69.51,137.58H66c-2.72-.4-3.49-1.29-3.52-4,0-.89,0-1.79-.06-2.68,0-.52.08-1,.13-1.56.75-.51,1.21.09,1.65.5,2,2,4,4,6,6,.42.44,1,.9.5,1.65Z"/><path class="cls-98" d="M70.68,137.45c-1.4-2.55-3.85-4.14-5.75-6.24-.68-.74-1.23-1.72-2.38-1.89q-.07-3.13-.13-6.25c0-1.17.08-2.34.13-3.52.66,0,1,.51,1.43.92q7.79,7.77,15.55,15.55c.41.41.91.77.92,1.43l-3.52.13Z"/><path class="cls-90" d="M71.07,162.59h.8l7.84,8c.58.59,1.28,1.12,1.12,2.11q-4.76-4.68-9.5-9.37C71.17,163.14,71.16,162.83,71.07,162.59Z"/><path class="cls-90" d="M27.33,119.17h1.18c2.94,2.55,5.54,5.45,8.33,8.15a3.09,3.09,0,0,1,.58,1.21v.41c-.89-.07-1.3-.81-1.83-1.34C32.82,124.8,30.08,122,27.33,119.17Z"/><path class="cls-73" d="M37.42,128.52c-2.23-2.77-5-5.06-7.38-7.63-.53-.56-1-1.15-1.53-1.73.9,0,1.31.76,1.85,1.28q3.54,3.44,7,6.91C37.41,127.74,37.41,128.13,37.42,128.52Z"/><path class="cls-99" d="M92.24,109.81c1.35-.77,2.8-.3,4.21-.34,2,1.7,3.78,3.67,5.65,5.53.48.48,1,1,.61,1.83,0,.79-.7,1.13-1.17,1.61l-.39,0c-2.23-2.06-4.31-4.27-6.45-6.41C93.92,111.2,93.06,110.53,92.24,109.81Z"/><path class="cls-100" d="M92.24,109.81a1.67,1.67,0,0,1,1.41.49c2.38,2.41,4.78,4.79,7.15,7.21.21.2.24.58.35.88h0a3.39,3.39,0,0,1-2.37,0c-1.63-.23-1.5-1.92-2.34-2.81-1.83-1.53-3.39-3.33-5.08-5,.16-.21.31-.43.46-.64Z"/><path class="cls-101" d="M91.36,110.57a13.5,13.5,0,0,1,5.08,5c-1.4,0-2.82.35-4.16-.31a2,2,0,0,1-1.3-1.54,3.53,3.53,0,0,1,0-2.4C91,111,91,110.69,91.36,110.57Z"/><path class="cls-99" d="M98.78,118.39h2.37A1.89,1.89,0,0,1,98.78,118.39Z"/><path class="cls-100" d="M91,111.33v2.4A1.94,1.94,0,0,1,91,111.33Z"/><path class="cls-8" d="M102.71,116.83c-.33-1.51-1.76-2.13-2.63-3.21-1.15-1.44-2.9-2.35-3.63-4.15h3.92c2.11,1.11,3.48,3,5.06,4.71a.73.73,0,0,1,0,1C104.54,115.78,103,115.28,102.71,116.83Z"/><path class="cls-7" d="M105.44,115.23c-.64-1.81-2.37-2.67-3.5-4-.49-.6-1-1.14-1.57-1.71l.38-.14c1-.65,2.18-.47,3.3-.5a33.15,33.15,0,0,1,3.9,3.87c.35.35.67.82.2,1.34l0,.15A7.91,7.91,0,0,1,105.44,115.23Z"/><path class="cls-102" d="M108.53,89.8l-1.12.5a49.93,49.93,0,0,1-8.62-8.63c0-.1,0-.2,0-.3,2-.31,3.5.21,4.16,2.22.47,1.43,1.65.53,2.45.88,1.15.86,2,2,3.12,2.92.39.34.8.72.4,1.32Z"/><path class="cls-103" d="M109,88.71c-.46-1.17-1.68-1.63-2.39-2.57-.4-.54-1.1-.88-1.13-1.67C108.54,84.41,109.88,86,109,88.71Z"/><path class="cls-104" d="M103.1,90.72l-.41-.12A8.59,8.59,0,0,1,99.63,88a10.25,10.25,0,0,0-4.79-3.25c0-.11.08-.22.12-.33,1.84.61,1.89-1.18,2.66-2,1.77.48,7.5,6.28,7.86,8,0,0,0,.12-.06.18Z"/><path class="cls-105" d="M105.42,90.6c-2.12-3.18-5.06-5.57-7.8-8.15a1.35,1.35,0,0,1,1.17-.78c1.27.07,1.47,1.33,2.16,2a79,79,0,0,1,6.46,6.61C106.82,90.92,106.1,90.59,105.42,90.6Z"/><path class="cls-106" d="M112.1,108.28l0,1.09-.8,1.12c-2.15-1-3.29-3.21-5.2-4.5a5.68,5.68,0,0,0-2.76-2.69c-1.38-1.7-3-3.17-4.48-4.76-.46-.49-1.34-1-.61-1.89a4.08,4.08,0,0,1,2.65-.07c3.79,3.69,7.44,7.53,11.28,11.18A.45.45,0,0,1,112.1,108.28Z"/><path class="cls-24" d="M106.27,105.89c2.12,1,3.4,3,5,4.6a4.28,4.28,0,0,1-1.49,2.15,28.38,28.38,0,0,1-4.2-4.56A2.49,2.49,0,0,1,106.27,105.89Z"/><path class="cls-107" d="M105.7,108.18c1.56,1.3,3.31,2.43,4.08,4.46a3.69,3.69,0,0,1-1.63,1.4c-.29-1.4-1.63-2-2.4-3-.51-.65-1.38-1-1.49-2A1.46,1.46,0,0,1,105.7,108.18Z"/><path class="cls-108" d="M105.7,108.18l-1.44.91a7.45,7.45,0,0,1-3.51.24c-.2-1.19-1.27-1.72-2-2.49a19.55,19.55,0,0,1-3.07-3.66c.88-.86,2-.52,3-.58.69,0,1.38,0,2.08,0a4.48,4.48,0,0,1,2.69.5,3.57,3.57,0,0,1,2.8,2.79A5.86,5.86,0,0,1,105.7,108.18Z"/><path class="cls-5" d="M98.8,103.09l-3.12.09-.84-.39a1.24,1.24,0,0,0-.37-1.56c-1.7-1.68-3.39-3.38-5.07-5.07a1.23,1.23,0,0,0-1.56-.37c-.52-.59-.25-1.35-.43-2l.13-.41c.46-1.63.8-1.81,1.94-.73,3,2.91,6,5.91,8.94,8.93C98.8,102,99.28,102.43,98.8,103.09Z"/><path class="cls-7" d="M87.84,95.79c.07-.74.09-1.69,1.14-.68q3.31,3.23,6.54,6.54c1,1,.07,1.07-.68,1.14A8.56,8.56,0,0,1,87.84,95.79Z"/><path class="cls-13" d="M98.8,103.09a1.71,1.71,0,0,0-.63-1.16c-3-3-6-5.91-8.91-8.94-1-1-1.32-.52-1.72.38a5.13,5.13,0,0,1,.74-3.1c1-.21,1.34.59,1.88,1.08a32.4,32.4,0,0,0,3.66,3.36,10.55,10.55,0,0,1,1.73,1.74c1.22,1.74,2.91,3,4.31,4.59.5.57,1.42,1,.89,2Z"/><path class="cls-109" d="M90.15,87.13l.34,0a6.47,6.47,0,0,1,4.33,4.32,1.6,1.6,0,0,1-1,1.39c-2.27-.55-3.63-2.19-4.78-4.07Z"/><path class="cls-24" d="M89.08,88.72c1.66,1.22,2.8,3,4.75,3.92A1.81,1.81,0,0,1,93.76,95c-1.7-.41-2.39-2-3.63-3-.65-.51-1.23-1.1-1.85-1.66A2.52,2.52,0,0,1,89.08,88.72Z"/><path class="cls-23" d="M94.84,84.77a4,4,0,0,1,3.85,1.64c1.26,1.46,2.66,2.8,4,4.19H99.56a66.38,66.38,0,0,1-4.75-4.74.89.89,0,0,1-.3-1A.61.61,0,0,1,94.84,84.77Z"/><path class="cls-33" d="M94.51,84.82c1.47,2.12,3.89,3.4,5,5.78H96.83c-1.68-1.48-3.22-3.1-4.79-4.69A3.89,3.89,0,0,1,94.51,84.82Z"/><path class="cls-6" d="M92,85.91a11.34,11.34,0,0,1,4.79,4.69l0,.12a3.21,3.21,0,0,1-2.33.8c-.78-2-2.53-3.11-4.05-4.44A2.65,2.65,0,0,1,92,85.91Z"/><path class="cls-110" d="M112.1,108.28l0-.43c-1.1-4.71-5.44-6.76-8.28-10-.23-.27-.72-.33-.66-.84a9.16,9.16,0,0,1,8.59,5.79c.26.65.51,1.31.76,2C112.31,105.9,112.81,107.15,112.1,108.28Z"/><path class="cls-111" d="M94.54,91.52c.73-.39,1.4-1,2.33-.8.42,1.55,1.91,2.19,2.79,3.34.73,1,2,1.47,2.27,2.78a.56.56,0,0,1-.79.13H98a1.85,1.85,0,0,1-2.74-.41L93.76,95c0-.77,0-1.54.07-2.31Z"/><path class="cls-6" d="M101.14,97l.79-.13,1.18.12a5.08,5.08,0,0,1,2.28,1.61,54.94,54.94,0,0,0,5,4.93,4.19,4.19,0,0,1,1.7,4.35,1.7,1.7,0,0,1-1.17-.62q-4.55-4.56-9.1-9.1A1.68,1.68,0,0,1,101.14,97Z"/><path class="cls-24" d="M95.29,96.56A8.75,8.75,0,0,0,98,97c1.62,2.21,4.16,3.62,5.44,6.13h-2.72c-.75-1.87-2.57-2.8-3.76-4.29C96.41,98.07,95.41,97.65,95.29,96.56Z"/></g></g></svg>