<svg xmlns="http://www.w3.org/2000/svg" viewBox="0 0 200 250.06"><defs><style>.cls-1{fill:#e1e6f5;}.cls-2{fill:#213d68;}.cls-3{fill:#efad42;}.cls-4{fill:#f8d166;}.cls-5{fill:#3b5891;}.cls-6{fill:#eef1f8;}.cls-7{fill:#5e86c9;}.cls-8{fill:#4c6cb4;}.cls-9{fill:#efae42;}.cls-10{fill:#f8d165;}</style></defs><g id="Layer_2" data-name="Layer 2"><g id="Layer_1-2" data-name="Layer 1"><path class="cls-1" d="M83.5,150.56c1,1.3.27,2.86.7,4.28,1.23,4.13,4,7,7.33,9.45,7.24,5.32,14.76,10.27,20.84,17a64.07,64.07,0,0,1,15.85,32.62,59.35,59.35,0,0,1,1.05,11,2.42,2.42,0,0,1-2.09.84,130.38,130.38,0,0,1-14-.17,7.21,7.21,0,0,1-3.19-2.56c-8-9.08-18.19-13.61-30.22-14-5.46-.16-10.92,0-16.38,0-12.76.05-23.46,4.66-31.89,14.34a6.38,6.38,0,0,1-2.84,2.2c-4.67.49-9.35.2-14,.18a2.43,2.43,0,0,1-2.1-.84c.39-17.88,6.52-33.31,19.27-46.09,5.6-5.62,12.23-9.84,18.48-14.59,3.29-2.51,6.09-5.33,7.33-9.46.42-1.42-.29-3,.7-4.28.74.53.69,1.35.76,2.12a21.8,21.8,0,0,0,2,6.94,10.06,10.06,0,0,0,9.9,6.32,10,10,0,0,0,9.64-6.32,22.05,22.05,0,0,0,2-6.94C82.8,151.91,82.75,151.09,83.5,150.56Z"/><path class="cls-2" d="M12.56,225l16.68.07a7,7,0,0,1,4-.84h75.35a7.06,7.06,0,0,1,4,.84l16.67-.07c6.28.66,10.49,3.86,12,9.13a12.36,12.36,0,0,1-4.5,13.43,12.14,12.14,0,0,1-7.51,2.52q-58.32,0-116.65,0A12.44,12.44,0,0,1,.09,238.22C-.22,231.06,4.74,225.8,12.56,225Z"/><path class="cls-3" d="M154.32,187.56a37.5,37.5,0,1,1,37.44-37.44A37.54,37.54,0,0,1,154.32,187.56Z"/><path class="cls-4" d="M127.15,50c-5.69-17.17.74-33.94,13.9-43.08a37.38,37.38,0,0,1,58.6,25.45c2.65,19.92-10,37.93-29.6,42-10.64,2.19-20.45-.19-29.41-6.26-.66-.92-.15-1.82.06-2.73a12,12,0,0,0-10.41-14.54C129.21,50.66,128,51,127.15,50Z"/><path class="cls-5" d="M12.57,75.14C5.89,74.73.75,70.33.1,64.45-.65,57.73,3,52.26,9.35,50.39a9,9,0,0,1,2.56-.33q53.6,0,107.2,0c.26,0,.52,0,.78.07.68,1,.29,2,.21,3a97.92,97.92,0,0,1-4,20.34,3.69,3.69,0,0,1-.95,1.82,3,3,0,0,1-.91.39,18.67,18.67,0,0,1-3.88.19q-46.52,0-93,0C15.73,75.89,14,76.22,12.57,75.14Z"/><path class="cls-6" d="M12.57,75.14c3.55,0,7.1-.08,10.64-.08q44.17,0,88.34,0c1,0,2.08.06,3.12.09.72.78.38,1.63.08,2.42a111.47,111.47,0,0,1-10.07,21.19,7.41,7.41,0,0,1-1.64,2,3.4,3.4,0,0,1-.71.42,53.77,53.77,0,0,0-9.45,4.25c-8.6,4.65-17.48,5-26.53,1.25-4.3-1.79-8.2-4.71-12.91-5.35-7-1-14-1.35-20.73,1.36-3.94,1.57-7.84,3.23-11.83,4.68a69.38,69.38,0,0,1-8.2-25.71A54.1,54.1,0,0,1,12.57,75.14Z"/><path class="cls-7" d="M20.88,107.35c.08-.43.18-.82.68-1,5.29-1.88,10.22-4.93,15.81-5.73,8.28-1.2,16.56-1.46,24.24,3,5.4,3.12,11.14,5.1,17.52,4.82a28.37,28.37,0,0,0,14.51-4.18,20.28,20.28,0,0,1,9.07-3.59c.34,1.07-.34,1.83-.87,2.59a110.45,110.45,0,0,1-44.27,37.52,3.12,3.12,0,0,1-1.74.42c-3.19-4.12-7.57-6.84-11.76-9.7C34.63,125,26.64,117.28,20.88,107.35Z"/><path class="cls-8" d="M55.83,141.17c4.81-2.91,9.94-5.21,14.67-8.29A110,110,0,0,0,94.18,112a93.73,93.73,0,0,0,8.53-11.4l0-.15a9.26,9.26,0,0,1,5.2-1.28c4.41.07,8.83,0,13.24.06,1.11,0,2.53-.31,3,1.3-6,14.26-16.6,24.43-29.22,32.82a57.35,57.35,0,0,0-5.81,4.34,15.62,15.62,0,0,0-5.61,12.83c.38,3.41-.83,6.49-2.19,9.45a10.78,10.78,0,0,1-10.52,6.65A10.74,10.74,0,0,1,60.52,160c-1.36-3-2.56-6-2.18-9.45A16.87,16.87,0,0,0,55.83,141.17Z"/><path class="cls-2" d="M115.2,75c.87-3.69,1.87-7.35,2.56-11.07.84-4.57,1.43-9.19,2.13-13.78l7.26-.16a35.19,35.19,0,0,1,4.12.24,12.53,12.53,0,0,1,9.9,16.13c-.17.57-.35,1.14-.53,1.71a13.42,13.42,0,0,1-11.37,7.09,4,4,0,0,1-2.69.73c-2.84,0-5.68,0-8.52,0C117,75.85,116,75.89,115.2,75Z"/><path class="cls-1" d="M115.2,75l14.07.16a68.31,68.31,0,0,1-5.13,25.43,1.08,1.08,0,0,0-1.1-.5c-6.79.16-13.6-.44-20.37.42a89.85,89.85,0,0,0,12-25.34Z"/><path class="cls-5" d="M112.6,225.05H29.24q13.4-17,35-16.65c6.5.1,13-.46,19.51.28A41.12,41.12,0,0,1,112.6,225.05Z"/><path class="cls-8" d="M58.41,183.3c0,4.26,0,4.26-4.91,4.26-3.42,0-3.42,0-3.42-5,0-3.36,0-3.36,5.05-3.35C58.41,179.23,58.41,179.23,58.41,183.3Z"/><path class="cls-8" d="M87.34,187.56c-3.92,0-3.92,0-3.92-4,0-4.37,0-4.37,4.29-4.37,4,0,4,0,4,4.09C91.75,187.56,91.75,187.56,87.34,187.56Z"/><path class="cls-8" d="M75.08,192c0,3.91,0,3.91-4,3.91-4.37,0-4.37,0-4.37-4.28,0-4.05,0-4.05,4.09-4.05S75.08,187.56,75.08,192Z"/><path class="cls-4" d="M158.43,139.74v1c0,4.45,0,4.45,4.09,5.86a12.62,12.62,0,0,1,8.39,11.65c0,2.24.36,4.53-.22,6.73-1.39,5.32-4.76,8.79-10.18,9.88-1.64.33-2.3.81-2.09,2.43s-.54,2-2,1.91a26,26,0,0,0-3.64,0c-1.85.15-3.1-.19-2.73-2.47.19-1.18-.43-1.52-1.6-1.78-7.58-1.69-11.73-7.31-10.82-14.94.41-3.44,3.33-1.16,5-1.55,1.06-.25,3.17-1.07,3.23,1.55,0,1.71-.37,3.51.8,5,.66.86,1.54,1.67,2.59,1.47,1.35-.24.67-1.56.75-2.4.1-1.21,0-2.43,0-3.64,0-1.82.45-3.85-.2-5.4-.72-1.72-3.19-1.08-4.76-1.91-4.44-2.36-7.27-5.84-7.5-11-.1-2.41-.38-4.86.24-7.25a12.69,12.69,0,0,1,10.29-9.78c1.53-.33,2.14-.8,1.93-2.29-.22-1.66.61-2.14,2.13-2a18.17,18.17,0,0,0,3.38,0c2-.22,3.19.31,2.84,2.63-.16,1.09.43,1.43,1.5,1.6,7.66,1.26,11.79,7.83,11,14.84-.43,3.61-3.28,1.3-5,1.67-1.13.25-3.37,1.15-3.37-1.68,0-1.79.38-3.69-1-5.19-.66-.71-1.51-1.44-2.46-1.17-1.11.31-.59,1.47-.63,2.27C158.37,137.13,158.43,138.44,158.43,139.74Z"/><path class="cls-3" d="M158.43,47.79v-1c0-4.36,0-4.36-4.17-5.81A12.55,12.55,0,0,1,146,29.25c0-2.25-.34-4.52.23-6.73a12.77,12.77,0,0,1,10.26-9.83c1.48-.32,2.21-.69,2-2.25s.49-2.22,2.08-2.07a18.08,18.08,0,0,0,2.85,0c2.08-.16,3.92-.15,3.43,2.83-.17,1,.53,1.23,1.43,1.38,7.71,1.22,11.74,7.86,11.08,14.8-.13,1.29-.44,2-1.82,1.83-.43,0-.86,0-1.3,0-1.55,0-3.38.4-4.6-.27-1.49-.82-.41-2.85-.65-4.33a4.08,4.08,0,0,0-1.6-2.87c-.6-.43-1.29-1.06-2.11-.62s-.44,1.24-.44,1.89c0,2.86,0,5.73,0,8.59,0,1.13.3,1.64,1.56,1.83A13.34,13.34,0,0,1,179.37,47.3c-.17,4.81-.9,9-4.68,12.38a12.06,12.06,0,0,1-5.8,2.69c-1.57.32-2.37.72-2.14,2.41.21,1.44-.43,2.07-1.91,2a21.19,21.19,0,0,0-3.38,0c-2,.18-3.47-.11-3.05-2.69.18-1.12-.55-1.32-1.55-1.55-7.63-1.75-11.58-7.19-10.93-14.91,0-.26-.08-.62.06-.76,2-2,4.53-.51,6.79-.91,1.36-.24,1.48.79,1.49,1.84,0,1.71-.36,3.51.93,5,.7.79,1.57,1.62,2.65,1.27s.51-1.51.56-2.32C158.48,50.4,158.43,49.09,158.43,47.79Z"/><path class="cls-9" d="M150.09,139.82c0,1.48,0,3,0,4.43.05,1.88-.9,1.78-2.12,1.08a4.34,4.34,0,0,1-1.17-1c-1.33-1.66-1.3-7.87.06-9.45.68-.81,1.57-1.63,2.64-1.27s.52,1.51.56,2.31C150.15,137.22,150.09,138.52,150.09,139.82Z"/><path class="cls-9" d="M158.43,160.38c0-1.39,0-2.78,0-4.16,0-.65-.3-1.5.57-1.82.72-.27,1.34.24,1.9.61a3.34,3.34,0,0,1,1.6,2.57,49.62,49.62,0,0,1,0,5.72,3.39,3.39,0,0,1-1.36,2.44c-.61.49-1.31,1.06-2.1.83-1-.31-.6-1.31-.63-2C158.39,163.16,158.43,161.77,158.43,160.38Z"/><path class="cls-10" d="M158.43,27.19c0,1.47-.05,2.95,0,4.42.07,2-.94,2-2.24,1.14a2.92,2.92,0,0,1-1.26-1.25,11.73,11.73,0,0,1,.06-8.81,2.56,2.56,0,0,1,2.73-1.62c1.24.28.6,1.61.67,2.48C158.5,24.76,158.43,26,158.43,27.19Z"/><path class="cls-10" d="M170.91,48.27c.11,2,.17,4.14-2,5.39-1.23.7-2.15.81-2.13-1.08,0-3,.05-6.07,0-9.11,0-2.1,1-1.89,2.26-1.11C171.28,43.74,171,46,170.91,48.27Z"/></g></g></svg>