<svg xmlns="http://www.w3.org/2000/svg" viewBox="0 0 200 200.04"><defs><style>.cls-1{fill:#bcc2c6;}.cls-2{fill:#efc319;}.cls-3{fill:#464f5d;}.cls-4{fill:#fe5364;}.cls-5{fill:#3b97d2;}.cls-6{fill:#3b96d2;}.cls-7{fill:#de4d60;}.cls-8{fill:#65dcb8;}</style></defs><g id="Layer_2" data-name="Layer 2"><g id="Layer_1-2" data-name="Layer 1"><path class="cls-1" d="M107.34,170.66c-.54.61-.33,1.36-.33,2.06,0,6.63,0,13.26,0,19.9,0,2.9-1.14,5.3-3.92,6.65a6.64,6.64,0,0,1-7.48-.89A7.05,7.05,0,0,1,93,192.73c-.05-1.69,0-3.38,0-5.07,0-.91-.3-1.33-1.24-1.26-.51,0-1,0-1.56,0q-39.49,0-79,0c-1,0-2.09.29-3-.4,1-1,2.34-.66,3.54-.66q38.07,0,76.14,0c4.9,0,4.46.43,4.47-4.36V19.07c0-4.73.42-4.36-4.27-4.36q-38.18,0-76.34,0c-1.2,0-2.5.31-3.54-.67.94-.68,2-.39,3-.39q39.71,0,79.42,0c2.06,0,2.66-.6,2.39-2.5-.1-.7,0-1.43,0-2.14C92.65,4.7,94.3,1.6,98.44,0h3.12c4,1,5.93,3.31,6,7.6.1,4.61.06,9.22,0,13.83a16.94,16.94,0,0,0,.2,3.1c-.31,13.57,0,27.14-.13,40.71a32.66,32.66,0,0,1-.11,3.7,3.23,3.23,0,0,1-.1.76,42.2,42.2,0,0,0-.07,9.92c.11,1.29.28,2.58.28,3.88q0,30.77,0,61.52c0,.91,0,1.82-.11,2.73a3.84,3.84,0,0,1-.09.75,8.12,8.12,0,0,0-.28,2.69,172.39,172.39,0,0,0,.51,17.46C107.76,169.34,108,170.08,107.34,170.66Z"/><path class="cls-2" d="M177.34,0a17.25,17.25,0,0,1,3,1.65C183.46,4.38,184,9.74,179.27,13a5.16,5.16,0,0,1-6.87,0c-5.29-4.27-4.53-9.64,1.82-12.95Z"/><path class="cls-2" d="M189.82,30.27c-2.82-1.81-4.1-4.38-3.4-7.66a6.53,6.53,0,0,1,5.24-5.19,6.88,6.88,0,0,1,7.65,3.7c.25.51.11,1.19.69,1.54v3.12c-.86,1.73-1.77,3.43-3.53,4.44A5.07,5.07,0,0,1,189.82,30.27Z"/><path class="cls-2" d="M196.47,169.79a8.25,8.25,0,0,1,3.53,4.83v3.13c-.49.2-.49.73-.7,1.11a6.86,6.86,0,0,1-12.83-1.13,6.88,6.88,0,0,1,2.57-7.41c.25-.2.52-.38.78-.57A5.06,5.06,0,0,1,196.47,169.79Z"/><path class="cls-3" d="M8.18,14q41.49,0,83-.12c1.86,0,1.9.83,1.89,2.23q0,53.61,0,107.22,0,30.17,0,60.34c0,1.8-.33,2.43-2.3,2.43Q51,186,11.3,186.07c-1,0-2.08,0-3.12-.08C2.74,184.41,0,180.8,0,175.13V24.89C0,19.22,2.76,15.58,8.18,14Z"/><path class="cls-4" d="M155.05,31A20.64,20.64,0,0,1,160,38a7,7,0,0,1,1,6.89c-.18.58.09,1.24-.37,1.76a8.21,8.21,0,0,0-4.23-.22A28.5,28.5,0,0,0,133,70.49a18.84,18.84,0,0,0-.08,3.9c.11,1.76,1.14,2.78,2.65,2.76a2.82,2.82,0,0,0,2.91-2.79,26.41,26.41,0,0,1,3-10.82c3.28-6,8.5-9.49,15-11.17a2.88,2.88,0,0,1,1.92,0c1.39.77,3,.63,4.48,1a21.54,21.54,0,0,1,15.64,24.87,3,3,0,0,0,.89,3.06,23.41,23.41,0,0,1,1.19,31.56c-.41.48-1,.84-1.06,1.58-2.61,2.75-6,4-9.54,5a22.87,22.87,0,0,1-6.34,1c-2.32,0-3.8,1.3-3.73,3.09s1.64,3,4,2.85c6.89-.45,13.3-2.37,18.84-6.69a2.86,2.86,0,0,1,.8-.53,17.87,17.87,0,0,1-12.44,26.9c-1.05.18-1.58.33-1,1.54a22.61,22.61,0,0,1,1.75,7.53,7.84,7.84,0,0,1-1.16,6.91,25.8,25.8,0,0,1-4.25,6.92,2.6,2.6,0,0,1-1.16,1.73c-3.33,2.71-7,4.75-11.43,4.68a5,5,0,0,0-2.08.39c-3.47,6.88-8.77,11.61-16.39,13.24-13.11,2.81-25.21-5.18-28.09-18.37-.85-7.1-.56-14.23-.59-21.35a3.47,3.47,0,0,1,.26-.91,1.61,1.61,0,0,1,.51,1.41c0,4,.32,8-.35,12.18,0,.12.46-.12.2-.09,0,0,0,0,0-.09a7.37,7.37,0,0,1,.87-3.91c3.47-7,8.9-11.19,16.78-12a18.74,18.74,0,0,0,2.12-.35,3,3,0,0,0,2.61-2.93c-.07-1.46-1.27-2.51-3.08-2.65a19.25,19.25,0,0,0-7.31,1,25.4,25.4,0,0,0-10.2,5.91c-.58.56-1.06,1.38-2.09,1.19q0-27.81-.06-55.63c0-7-.16-13.92-.22-20.88a3.26,3.26,0,0,1,.26-2.08c.79.8.52,1.83.53,2.77a46.49,46.49,0,0,1-.09,5.55c1.09-2.4,3.19-3.53,5.74-4,.44-.08.91-.07,1.35-.19A3,3,0,0,0,117,70.53a3.09,3.09,0,0,0-3-2.77,13.43,13.43,0,0,0-4.55.93c-.79.23-1.52.79-2.42.48q0-21.21,0-42.41a21.24,21.24,0,0,1,.28-2.5c2.07-8.36,7.83-11.72,16.74-9.66a53.39,53.39,0,0,1,17,7.67c-.24.73-.92.85-1.51,1.1C131,26.94,126.57,33.5,125.56,42.51c-.26,2.33,1.09,4,3,4,1.75,0,2.78-1.3,3-3.68a15,15,0,0,1,4.59-10.26c4-3.79,8.67-5.63,14.26-4.42C152.19,28.66,154,29.28,155.05,31Z"/><path class="cls-5" d="M170.74,162.07a35.89,35.89,0,0,0,1.16-6.91c4.6,0,9.21,0,13.81,0,6.37,0,10.75,4.4,10.81,10.74,0,1.3,0,2.59-.05,3.89a7.82,7.82,0,0,0-6.65,0c-.06-1.36,0-2.72-.18-4.07-.24-2.5-1.41-3.56-3.93-3.57C180.72,162.07,175.73,162.08,170.74,162.07Z"/><path class="cls-6" d="M151.82,175.79c.26-.59.82-.59,1.32-.61A20,20,0,0,0,166.49,169a26.41,26.41,0,0,1,5,.31,10.37,10.37,0,0,1,7.76,9.58c.07,2.72,0,5.44,0,8.16a63,63,0,0,0-6.87,0c0-2.28,0-4.55,0-6.83,0-3.19-1.18-4.37-4.34-4.39Q159.92,175.8,151.82,175.79Z"/><path class="cls-2" d="M172.4,187.06a7.89,7.89,0,0,1,6.87,0c2.56,1.86,4,4.23,3.31,7.51a6.8,6.8,0,0,1-6.1,5.44,6.9,6.9,0,0,1-5-12.2Z"/><path class="cls-7" d="M107,148.07a29.69,29.69,0,0,1,10.75-7.15,23.23,23.23,0,0,1,9.33-1.45,3.32,3.32,0,0,1,.16,6.63c-4,.33-7.86,1-11.21,3.36a21.14,21.14,0,0,0-9,13v-14A.53.53,0,0,1,107,148.07Z"/><path class="cls-7" d="M107,69.17a18,18,0,0,1,5.7-1.92c2.86-.53,5,1.19,4.85,3.77a3.1,3.1,0,0,1-3,3.1A8.53,8.53,0,0,0,107,78.9V69.48A.37.37,0,0,1,107,69.17Z"/><path class="cls-7" d="M158.45,52.38a34.47,34.47,0,0,0-8,2.86c-6.2,3.46-9.68,8.82-11,15.69a19.18,19.18,0,0,0-.45,3.65c0,1.92-1.42,3.14-3.45,3.16a3,3,0,0,1-3.15-3.21c-.13-10.11,4.14-18,12.28-23.83a25.73,25.73,0,0,1,14.27-5c.71,0,1.49-.12,1.64.9A12.66,12.66,0,0,1,158.45,52.38Z"/><path class="cls-5" d="M161,44.85A23.3,23.3,0,0,0,160,38l24.89,0c3.64,0,4.71-1.07,4.78-4.75,0-1,.07-1.94.11-2.9a7.82,7.82,0,0,0,6.65-.05,28.72,28.72,0,0,1-.12,6.22,10.31,10.31,0,0,1-10.45,8.41C177.59,44.89,169.29,44.86,161,44.85Z"/><path class="cls-7" d="M183.59,119.19c-.44,1.76-2.14,2.21-3.39,3a35.78,35.78,0,0,1-15.83,4.8,6.1,6.1,0,0,1-2.5-.26,3.21,3.21,0,0,1-2.46-3.5,3.09,3.09,0,0,1,2.92-3.16c6.41.06,12-2.22,17.26-5.55A12.09,12.09,0,0,1,183.59,119.19Z"/><path class="cls-6" d="M155.05,31a21,21,0,0,0-4.69-2.52c-2.07-.74-3.68-2.23-5.46-3.45a.66.66,0,0,1-.33-.81l23.12-.08c3.56,0,4.66-1.09,4.67-4.62q0-3.3,0-6.61a7.89,7.89,0,0,0,6.87,0c0,2.67.07,5.34,0,8a10.1,10.1,0,0,1-9.79,10C164.68,31.08,159.86,31,155.05,31Z"/><path class="cls-7" d="M144.57,24.26l5.79,4.26c-6.77-1.14-12,1.35-15.94,6.83a13.78,13.78,0,0,0-2.4,7.86c-.08,3.11-2.8,4.8-5.31,3.32A3.74,3.74,0,0,1,125,42.66c.76-9.09,6.18-17,14.9-20,.36-.13.72-.28,1.08-.42Z"/><path class="cls-8" d="M58.53,100c-6.76,0-13.52,0-20.29,0a3.53,3.53,0,0,1-3.77-3.18,3.59,3.59,0,0,1,3.27-3.7A11.34,11.34,0,0,1,39.49,93H77.72c.52,0,1,0,1.56,0a3.68,3.68,0,0,1,3.49,3.74A3.56,3.56,0,0,1,79,100c-5,0-10,0-15,0Z"/><path class="cls-8" d="M58.8,120.7H78.5c2.54,0,4.19,1.29,4.27,3.28s-1.53,3.65-4.15,3.66q-20,0-40,0c-2.55,0-4.15-1.41-4.18-3.44s1.64-3.5,4.26-3.5C45.41,120.69,52.1,120.7,58.8,120.7Z"/><path class="cls-8" d="M58.66,72.34H38a3.38,3.38,0,0,1-1.57-6.4,3.69,3.69,0,0,1,1.9-.36H79.09A3.49,3.49,0,0,1,82.77,69a3.37,3.37,0,0,1-3.62,3.29C72.32,72.36,65.49,72.34,58.66,72.34Z"/><path class="cls-8" d="M58.79,148.37q10.16,0,20.3,0a3.31,3.31,0,0,1,3.52,2.49c.51,1.59-.23,2.76-1.43,3.73a3.24,3.24,0,0,1-2.22.55q-20.31,0-40.6,0c-2.33,0-4-1.5-3.88-3.46a3.61,3.61,0,0,1,4-3.34C45.26,148.45,52,148.37,58.79,148.37Z"/><path class="cls-8" d="M30.92,37.81a3.25,3.25,0,0,1-1.37,2.94C25,44.14,20.52,47.57,16,50.93a3.44,3.44,0,1,1-4.05-5.56c2.73-2.11,5.47-4.2,8.28-6.19,1.26-.89,1.6-1.39.09-2.44-2.93-2-5.74-4.26-8.57-6.45a3.27,3.27,0,0,1-.94-4.22,3.18,3.18,0,0,1,3.53-1.86,3.4,3.4,0,0,1,1.75.8q6.57,4.89,13.11,9.82C30.17,35.59,31.07,36.46,30.92,37.81Z"/><path class="cls-8" d="M58.73,79.31c4.36,0,8.72,0,13.08,0,2.42,0,4,1.31,4,3.32s-1.44,3.61-3.93,3.62q-13.28,0-26.54,0c-2.4,0-3.91-1.42-3.92-3.45s1.56-3.48,4.05-3.49C49.88,79.3,54.31,79.31,58.73,79.31Z"/><path class="cls-8" d="M58.62,141.41c-4.35,0-8.71,0-13.07,0-2.53,0-4.1-1.32-4.14-3.41s1.52-3.53,4-3.54q13.17,0,26.34,0c2.53,0,4.06,1.41,4,3.52s-1.58,3.42-4.1,3.43C67.34,141.42,63,141.41,58.62,141.41Z"/><path class="cls-8" d="M58.67,169.06c-4.1,0-8.19,0-12.29,0a9.91,9.91,0,0,1-2.31-.24,3.25,3.25,0,0,1-2.66-3.55,3.47,3.47,0,0,1,3.21-3.13c1.17-.08,2.34,0,3.52,0,8,0,16,0,24,0a3.42,3.42,0,0,1,3.42,2.11,3.18,3.18,0,0,1-.62,3.63,4.72,4.72,0,0,1-3.77,1.23Z"/><path class="cls-8" d="M58.79,107c4.36,0,8.72,0,13.08,0,2.54,0,3.9,1.18,3.93,3.31s-1.34,3.44-4,3.45q-13.17,0-26.35,0c-2.64,0-4.07-1.25-4.05-3.42S42.82,107,45.52,107C49.94,107,54.37,107,58.79,107Z"/><path class="cls-8" d="M48.29,51.64c-2.28,0-4.55,0-6.82,0a3.38,3.38,0,0,1-3.55-3.35,3.47,3.47,0,0,1,3.53-3.38c4.55,0,9.09,0,13.64,0a3.32,3.32,0,0,1,3.5,3.38,3.23,3.23,0,0,1-3.49,3.35C52.83,51.68,50.56,51.64,48.29,51.64Z"/><path class="cls-8" d="M18.93,141.41c-1.62,0-3.24,0-4.86,0-2.29-.08-3.61-1.38-3.61-3.46a3.37,3.37,0,0,1,3.61-3.49q4.86-.09,9.72,0c2.31,0,3.88,1.59,3.8,3.58s-1.54,3.3-3.8,3.37C22.18,141.44,20.55,141.41,18.93,141.41Z"/><path class="cls-8" d="M18.92,100c-1.69,0-3.38,0-5.06,0a3.22,3.22,0,0,1-3.39-3,3.17,3.17,0,0,1,2.85-3.74,58.73,58.73,0,0,1,11.25,0,3.22,3.22,0,0,1,3,3.65A3.45,3.45,0,0,1,24,100h-5Z"/><path class="cls-8" d="M18.82,86.27c-1.49,0-3,0-4.47,0-2.52-.08-3.95-1.44-3.89-3.61s1.38-3.31,3.91-3.33c3.11,0,6.23,0,9.34,0,2.32,0,3.87,1.42,3.88,3.45s-1.46,3.35-3.71,3.48c-1.68.09-3.37,0-5.06,0Z"/><path class="cls-8" d="M19,120.71c1.69,0,3.39,0,5.08,0A3.42,3.42,0,0,1,27.57,124a3.34,3.34,0,0,1-3,3.51,58.34,58.34,0,0,1-11.29,0c-2-.21-3-1.82-2.82-3.78a3.23,3.23,0,0,1,3.46-3C15.62,120.67,17.32,120.71,19,120.71Z"/><path class="cls-8" d="M19,169.09c-2-.14-3.86.18-5.72-.23a3.2,3.2,0,0,1-2.76-3.61,3.13,3.13,0,0,1,3.29-3.12c3.5-.06,7-.07,10.5,0a3.4,3.4,0,0,1,3.35,3.17,3.53,3.53,0,0,1-2.94,3.55C22.74,169.28,20.79,168.93,19,169.09Z"/><path class="cls-8" d="M19.06,72.34c-1.75,0-3.51,0-5.26,0a3.36,3.36,0,0,1,0-6.72q5.17-.07,10.34,0a3.43,3.43,0,0,1,3.46,3.28,3.47,3.47,0,0,1-3.48,3.44C22.45,72.38,20.75,72.34,19.06,72.34Z"/><path class="cls-8" d="M19,155.13c-1.69,0-3.38,0-5.07,0a3.2,3.2,0,0,1-3.42-3.42c0-2,1.25-3.29,3.48-3.31q5.07-.06,10.14,0a3.47,3.47,0,0,1,3.55,3.38A3.51,3.51,0,0,1,24,155.12C22.33,155.17,20.64,155.13,19,155.13Z"/><path class="cls-8" d="M19,113.73c-1.75,0-3.51.06-5.26,0a3.15,3.15,0,0,1-3.3-3.51A3.11,3.11,0,0,1,13.85,107c3.38-.06,6.77,0,10.14,0a3.37,3.37,0,1,1,.1,6.73C22.41,113.78,20.71,113.73,19,113.73Z"/><path class="cls-7" d="M168.15,71.84c-.57,7.68-2.47,13-6.24,17.64a26.28,26.28,0,0,1-13.42,8.83c-1.41.41-1.09.89-.63,1.71a12.69,12.69,0,0,0,9.11,6.63c3.2.61,4.59,2.45,3.57,4.89a3.33,3.33,0,0,1-3.95,2.1c-7.65-1.28-13-5.48-15.85-12.75a2.15,2.15,0,0,0-2.16-1.71,25.22,25.22,0,0,1-16.49-7.77,3.22,3.22,0,0,1-.24-4.43,3.36,3.36,0,0,1,4.35-.8c2.08,1.29,3.76,3.12,6,4.2,8.24,3.91,16.53,2.37,23-3.72a18.08,18.08,0,0,0,5.73-12.84c.08-2.57,1-4.23,2.75-4.61C165.82,68.74,168.35,69.83,168.15,71.84Z"/><path class="cls-7" d="M130,121.49c8.56.45,15,4.6,19.66,11.58a21.9,21.9,0,0,1,3.81,12.46c0,1.16.4,1.53,1.54,1.19a4.49,4.49,0,0,1,4.87,1.06,2.86,2.86,0,0,1,.67,3.4,3.92,3.92,0,0,1-3.72,2.34A18.08,18.08,0,0,0,144.35,159c-3.51,3.46-4.89,7.84-5.28,12.62-.19,2.39-1.35,3.51-3.56,3.4-2-.09-3.12-1.32-3.08-3.68.13-9.43,4.43-16.52,12.42-21.31a3.77,3.77,0,0,0,1.89-3.84c-.51-10.43-8.16-17.26-17.55-18-2.52-.2-4.23-1.52-4.18-3.4s1.84-3.26,4.25-3.26Z"/></g></g></svg>