<svg xmlns="http://www.w3.org/2000/svg" viewBox="0 0 200 200.06"><defs><style>.cls-1{fill:#6dc7f7;}.cls-2{fill:#89d2f8;}.cls-3{fill:#f8d68e;}.cls-4{fill:#f7cc73;}.cls-5{fill:#cbcbcb;}.cls-6{fill:#f8d281;}.cls-7{fill:#f8d282;}.cls-8{fill:#f7d07e;}.cls-9{fill:#f8d180;}.cls-10{fill:#f8d07f;}.cls-11{fill:#f8d182;}.cls-12{fill:#fefefe;}.cls-13{fill:#f0ce7e;}</style></defs><g id="Layer_2" data-name="Layer 2"><g id="Layer_1-2" data-name="Layer 1"><path class="cls-1" d="M73.31,200c-4.42-.07-8.87.46-13.27-.34a16.45,16.45,0,0,1-13.35-15.87c-.06-12.33,0-24.67,0-37,1-1,2.33-.72,3.54-.72q19.25,0,38.5,0c.69,0,1.38,0,2.08,0,1.32,0,1.86-.64,1.86-1.92v-8.12c0-1.28-.54-1.91-1.86-1.92H86.64c-12.21,0-24.42,0-36.63,0-1.14,0-2.38.27-3.33-.72,0-3.31,0-6.62,0-9.93.47-1.06,1.52-1.15,2.42-1.42A150.65,150.65,0,0,0,91.05,102a137.86,137.86,0,0,0,15.76-12.57,125.43,125.43,0,0,0,16.51-18.64,2.67,2.67,0,0,1,1.58-1.27c4.7-.36,9.41-.11,14.11-.16,3.8,0,7.61,0,11.41,0,1,0,2.11-.17,2.91.72l0,27c-.26.81-1,.87-1.67,1-16.46,3.44-29.29,17.73-30.89,34.26,0,.49-.17,1-.2,1.45,0,1.92,0,3.84,0,5.76a40.08,40.08,0,0,0,8.4,21.57,67.45,67.45,0,0,0,5,5.25A38,38,0,0,0,150.66,175c1,.23,2.13.15,2.69,1.27-.18,3.39.31,6.79-.35,10.16A16.51,16.51,0,0,1,136.89,200c-3.4,0-6.79,0-10.19,0a3.12,3.12,0,0,1-.65-2.34c0-1.17,0-2.35,0-3.53-.1-4.37-2.35-6.67-6.69-6.77-2.84-.06-5.68,0-8.53,0-9.77,0-19.54,0-29.31,0-5.39,0-7.46,2.17-7.56,7.61C73.92,196.6,74.45,198.39,73.31,200Z"/><path class="cls-2" d="M124.18,70.08c-1.31,2.86-3.47,5.12-5.41,7.51a101.16,101.16,0,0,1-8.34,9.21,145.75,145.75,0,0,1-30.31,22.55,162.86,162.86,0,0,1-32.25,13.53c-.39.12-.76.3-1.15.46l-.06-20.43c.34-.87,1.18-.86,1.9-1,11.8-2.81,20.74-9.54,26.35-20.22s6.15-22.12,1.47-33.52a35.77,35.77,0,0,0-8.69-12.78A37,37,0,0,0,48.93,24.87c-.83-.21-1.87-.08-2.28-1.14.23-3.72-.4-7.46.43-11.15C48.71,5.4,56.36-.71,63.71.07a6.74,6.74,0,0,1,2.51,1.78C69.3,5,72.42,8,75.47,11.13a5,5,0,0,0,3.85,1.65q20.69,0,41.37,0a5,5,0,0,0,3.85-1.65C127.6,8,130.71,5,133.79,1.85A6.7,6.7,0,0,1,136.31.07a11.66,11.66,0,0,1,7.45,1.6c-.57,3.06.22,6.08.22,9.12a100.57,100.57,0,0,1-8.7,41.2c-.8,1.8-1.13,3.92-3,5.07a9.8,9.8,0,0,1-3.1.27c-6.39,0-12.78,0-19.16,0-2.46,0-2.62.18-2.64,2.58,0,2.22,0,4.44,0,6.66,0,2.6.15,2.74,2.68,2.76,3.75,0,7.5,0,11.25,0C122.28,69.37,123.38,69.17,124.18,70.08Z"/><path class="cls-3" d="M133.73,166.68c-7.57-6.38-11.79-14.6-13.31-24.29-.13-.81-.17-1.64-.25-2.46.08-2.18.08-4.35,0-6.53,1.64-18.19,14.23-32.25,32.22-36a6.64,6.64,0,0,0,1-.36l.43.09c.54.12,1.09.41,1.59-.09.8-.6,1.71-.33,2.58-.33a8.78,8.78,0,0,0,3.68,0c10.22.53,19.12,4.07,26.31,11.51,2.53,5.22,2.94,10.8,2.5,16.43-.87,11.19-5.71,20.57-13.72,28.32a45.69,45.69,0,0,1-10.94,7.85c-.77.4-1.55,1-2.52.5-.9-1.75.32-2.39,1.59-2.94a12.48,12.48,0,0,0,7.45-8.67,12.65,12.65,0,0,0-11.65-15.8,8.12,8.12,0,0,1-5.53-2,7,7,0,0,1-1.83-7.82,7,7,0,0,1,6.36-4.62,7.14,7.14,0,0,1,6.88,4.16c1.1,2.35,2.55,3,5.06,2.42,1.24-.29,1-1.11.82-1.94-.92-3.93-3-7.11-6.74-8.72-2.33-1-3-2.44-2.94-4.81.14-3.25-1.28-4.2-4.45-3.31a1.28,1.28,0,0,0-1,1.56c.56,3.65-.9,5.67-4.27,7.42-4.79,2.49-6.67,8.38-5.27,13.73a12.76,12.76,0,0,0,11.45,9.4c2.15.13,4.12.48,5.74,2a7,7,0,0,1,1.84,7.62,7.08,7.08,0,0,1-6.49,4.77c-3.07.14-5.62-1.25-6.65-4.07-.89-2.47-2.4-2.69-4.47-2.54-1.79.12-2.09.41-1.6,2.19a12.84,12.84,0,0,0,6.92,8.66c3,1.43,3.55,3.23,2.17,6.38A12.07,12.07,0,0,1,152,166C145.93,167.19,139.87,167.94,133.73,166.68Z"/><path class="cls-3" d="M46.65,23.73c5.13,1.2,10.13,2.75,14.6,5.67A27.45,27.45,0,0,1,68,34.89c2.51,5.22,2.93,10.81,2.5,16.44-.87,11.19-5.71,20.57-13.72,28.32A46.09,46.09,0,0,1,45.79,87.5c-.77.4-1.56,1-2.53.5-.89-1.75.32-2.39,1.59-2.94a12.44,12.44,0,0,0,7.45-8.67,12.65,12.65,0,0,0-11.64-15.8,8.16,8.16,0,0,1-5.54-2,7,7,0,0,1-1.82-7.82,6.92,6.92,0,0,1,6.35-4.62,7.14,7.14,0,0,1,6.89,4.16c1.1,2.34,2.55,3,5.05,2.42,1.24-.29,1-1.11.83-1.94-.93-3.93-3-7.11-6.75-8.72-2.33-1-3-2.44-2.93-4.81.14-3.25-1.28-4.21-4.45-3.31a1.28,1.28,0,0,0-1,1.56c.57,3.65-.9,5.67-4.26,7.42-4.8,2.49-6.67,8.38-5.28,13.73a12.79,12.79,0,0,0,11.46,9.4c2.14.13,4.12.48,5.73,2a7,7,0,0,1,1.85,7.62,7.08,7.08,0,0,1-6.5,4.77c-3.07.14-5.62-1.25-6.64-4.08-.89-2.46-2.41-2.67-4.48-2.53-1.79.12-2.08.41-1.6,2.2a12.84,12.84,0,0,0,6.93,8.65c3,1.43,3.55,3.23,2.16,6.38A12,12,0,0,1,32,92.62c-6,1.25-12.09,2-18.23.75A38.37,38.37,0,0,1,.48,69.55C.6,69,.88,68.47.4,68c-.62-.79-.33-1.7-.34-2.58a11,11,0,0,0,0-4.09c0-.88-.26-1.79.34-2.58.5-.5.2-1.05.09-1.59A37.91,37.91,0,0,1,9.57,37.48c1-.48,1.59-1.46,2.42-2.16a11.75,11.75,0,0,0,2.15-2.41,38.21,38.21,0,0,1,19.65-9.09c.54.12,1.08.41,1.59-.09.79-.6,1.7-.33,2.58-.33a8.78,8.78,0,0,0,3.68,0C43.34,23.06,45,23.87,46.65,23.73Z"/><path class="cls-4" d="M124.18,70.08c-5.18,0-10.37-.11-15.56,0-1.53,0-2.05-.36-2-2,.13-3.18.14-6.37,0-9.54-.07-1.66.56-1.92,2-1.91,8,0,15.91,0,23.87,0a5.21,5.21,0,0,1,2.6-.6c5.28,0,10.56,0,15.83,0a3.39,3.39,0,0,1,2.37.6c4,0,7.91,0,11.86.08,1.23,0,1.52-.46,1.5-1.59-.05-3.78,0-7.57,0-11.75,3.13,2.68,6,5.08,8.78,7.5,4.42,3.79,8.81,7.6,13.26,11.36,1,.84,1,1.41,0,2.26Q177.86,73.68,167.06,83s-.12,0-.39-.07c0-3.68,0-7.4,0-11.11,0-1.31-.29-1.84-1.72-1.81-3.88.11-7.76.08-11.65.1Z"/><path class="cls-4" d="M46.68,133.27c12.35,0,24.71,0,37.07.08a72.62,72.62,0,0,1,9.33.17c.57,3.08.18,6.19.24,9.29.07,3.86,0,3.86-3.73,3.86H49.17c-.83,0-1.66,0-2.49.06-4,0-7.91,0-11.86-.08-1.23,0-1.52.45-1.5,1.58,0,3.79,0,7.57,0,11.75l-8.77-7.5Q18,146.87,11.46,141.26c-.92-.78-1.38-1.36-.16-2.4,7.25-6.12,14.44-12.31,21.65-18.48,0,0,.13,0,.39.08,0,3.67,0,7.39,0,11.1,0,1.31.3,1.84,1.72,1.8C38.91,133.26,42.79,133.29,46.68,133.27Z"/><path class="cls-4" d="M43.4,87.94a44.67,44.67,0,0,0,16-12,42.55,42.55,0,0,0,9.41-17.81,39.73,39.73,0,0,0-.6-21.86A9.67,9.67,0,0,1,68,34.89,36.94,36.94,0,0,1,79.5,57.17C82,74.33,74.34,89.7,59.31,98.37a45.89,45.89,0,0,1-12.65,4.54A43.1,43.1,0,0,1,30,102.07a38,38,0,0,1-16.28-8.7A1.18,1.18,0,0,1,15,93c6.23,1,12.33.13,18.39-1.29,1.07-.25,2.13-.54,3.2-.81,1.24,1.81,2.65,2.3,4.91,1.86,1-.19,1.14-.83,1.21-1.64C42.84,90,42.44,88.82,43.4,87.94Z"/><path class="cls-4" d="M163.41,161.27a44.85,44.85,0,0,0,16-11.94,42.63,42.63,0,0,0,9.4-17.82,39.63,39.63,0,0,0-.6-21.86,9.54,9.54,0,0,1-.22-1.42,36.78,36.78,0,0,1,11.55,22.22c2,13.82-2,25.79-12.24,35.39-9,8.45-19.75,11.89-32,10.48-.62-.07-1.24,0-1.87-.08-6-1.34-11.64-3.36-16.61-7.06a15,15,0,0,1-3-2.5,1.23,1.23,0,0,1,1.31-.4c6.3,1,12.46.09,18.58-1.32,1-.23,2-.52,3-.78,1.24,1.81,2.65,2.3,4.92,1.86,1-.19,1.13-.83,1.21-1.64C162.84,163.33,162.45,162.15,163.41,161.27Z"/><path class="cls-5" d="M136.31.07Q130.1,6.34,123.9,12.63a2.63,2.63,0,0,1-2.07.72H78.18a2.63,2.63,0,0,1-2.07-.72Q69.93,6.33,63.71.07L112.38,0C120.36,0,128.33.05,136.31.07Z"/><path class="cls-5" d="M73.31,200c0-2.15,0-4.3,0-6.45a6.53,6.53,0,0,1,6.8-6.82q19.86,0,39.72,0a6.54,6.54,0,0,1,6.81,6.82c0,2.15,0,4.3,0,6.45Z"/><path class="cls-1" d="M153.33,56.61h-20.8a103,103,0,0,0,9.9-31.44,99.12,99.12,0,0,0,.89-18c0-1.37-.56-2.7-.41-4.11.07-.62,0-1.29.85-1.4,6.22,3,9.44,8.07,9.53,14.85C153.45,29.88,153.34,43.25,153.33,56.61Z"/><path class="cls-6" d="M12.08,35.42c-.74.8-1.16,2-2.51,2.06a11.46,11.46,0,0,1,2.48-2.58A.3.3,0,0,1,12.08,35.42Z"/><path class="cls-7" d="M12.08,35.42l0-.52a8.24,8.24,0,0,1,2.09-2C14.09,34.27,12.88,34.67,12.08,35.42Z"/><path class="cls-8" d="M.05,61.29a5,5,0,0,1,0,4.09C.06,64,.06,62.65.05,61.29Z"/><path class="cls-8" d="M41.64,23.39a4.17,4.17,0,0,1-3.68,0Z"/><path class="cls-8" d="M161.64,96.72a4.17,4.17,0,0,1-3.68,0Z"/><path class="cls-9" d="M35.38,23.73c.14.11.7.2.33.34a1.7,1.7,0,0,1-1.92-.25Z"/><path class="cls-10" d="M.48,57.12A1.7,1.7,0,0,1,.73,59c-.14.37-.23-.18-.34-.33Z"/><path class="cls-11" d="M.4,68c.1-.15.19-.7.34-.33a1.72,1.72,0,0,1-.26,1.92C.45,69,.42,68.49.4,68Z"/><path class="cls-9" d="M155.38,97.06c.15.11.7.2.33.34a1.7,1.7,0,0,1-1.92-.25Z"/><path class="cls-12" d="M93.15,163.33c-6,0-11.93,0-17.9,0-1.34,0-2-.21-2-1.78,0-4.91-.07-4.91,4.82-4.91,11,0,22.06,0,33.09,0,1.77,0,2.21.5,2.17,2.2-.1,4.5,0,4.5-4.62,4.5Z"/><path class="cls-12" d="M106.68,169.56c3.89,0,7.77,0,11.65,0,1.2,0,1.68.27,1.71,1.6.11,5.09.16,5.09-4.86,5.09-6.65,0-13.3,0-20,0-1.38,0-1.92-.29-1.92-1.81,0-4.88-.06-4.88,4.86-4.88Z"/><path class="cls-13" d="M120.17,133.4a17.28,17.28,0,0,1,0,6.53A26.92,26.92,0,0,1,120.17,133.4Z"/><path class="cls-12" d="M106.46,46.67c-5.89,0-11.78,0-17.67,0-1.53,0-2.2-.25-2.17-2,.09-4.68,0-4.68,4.67-4.68,11,0,22,0,33.06,0,1.72,0,2.44.27,2.37,2.23-.14,4.47,0,4.47-4.46,4.47Z"/><path class="cls-12" d="M119.86,33.34c-3.88,0-7.76,0-11.64,0-1.14,0-1.53-.34-1.58-1.53-.19-5.16-.22-5.16,5-5.16,6.57,0,13.15,0,19.73,0,1.53,0,2,.37,2,2,0,4.74,0,4.74-4.8,4.74Z"/><path class="cls-12" d="M163.41,161.27c0,.27,0,.55-.07.82-.18,1.48.73,3.67-.43,4.28-1.42.75-3.5.36-5.28.26s-.58-1.66-1-2.45c0-.27,0-.55.06-.83.37-2.5-.26-4-3-5.16-4.13-1.69-6.09-5.45-7-9.73-.27-1.32.19-2,1.63-1.8a6.53,6.53,0,0,0,1.25,0c2.12-.14,3.79-.18,4.44,2.74s4.5,4.52,7.46,3.77a6.81,6.81,0,0,0,5.15-7.13,6.6,6.6,0,0,0-6.37-6c-4.68-.12-8.49-1.86-11.18-5.74a13.07,13.07,0,0,1,5.55-19.68,2.86,2.86,0,0,0,2.05-3.21c-.09-4.81,0-4.76,4.76-4.76,1.43,0,2.07.36,1.88,1.85-.42,3.28,0,5.65,3.82,7.18s5.34,5.42,6.1,9.4c.22,1.13-.13,1.73-1.39,1.61a6.59,6.59,0,0,0-1.66,0c-2.21.31-3.57-.1-4.23-2.72-.75-2.95-4.48-4.54-7.46-3.8a6.66,6.66,0,0,0,1.36,13.16c5.64.19,9.87,2.68,12.2,7.84,3.21,7.1,0,14.83-7.26,17.83C163.63,159.48,163.12,160,163.41,161.27Z"/><path class="cls-12" d="M43.4,87.94c0,.27,0,.55-.06.82-.19,1.48.72,3.67-.44,4.28-1.42.75-3.5.36-5.28.26s-.57-1.66-1-2.45c0-.28,0-.55.06-.83.36-2.5-.26-4-3-5.16-4.12-1.69-6.09-5.45-7-9.73-.27-1.32.19-2,1.63-1.8a6.42,6.42,0,0,0,1.24,0c2.13-.14,3.79-.18,4.45,2.74s4.49,4.52,7.45,3.77a6.81,6.81,0,0,0,5.15-7.13,6.6,6.6,0,0,0-6.37-6c-4.68-.12-8.49-1.86-11.17-5.74a13.06,13.06,0,0,1,5.55-19.68,2.86,2.86,0,0,0,2-3.21c-.08-4.81,0-4.76,4.77-4.76,1.42,0,2.06.36,1.87,1.85-.42,3.28,0,5.65,3.83,7.18s5.34,5.42,6.1,9.4c.21,1.13-.13,1.73-1.39,1.61a6.67,6.67,0,0,0-1.67,0c-2.21.31-3.56-.1-4.23-2.72-.74-3-4.48-4.54-7.46-3.8A6.66,6.66,0,0,0,39.88,60c5.64.19,9.87,2.68,12.21,7.84,3.2,7.1,0,14.83-7.27,17.83C43.62,86.15,43.12,86.7,43.4,87.94Z"/></g></g></svg>