<svg xmlns="http://www.w3.org/2000/svg" viewBox="0 0 112 98.84"><defs><style>.cls-1{fill:#fff;}</style></defs><g id="Layer_2" data-name="Layer 2"><g id="Layer_1-2" data-name="Layer 1"><path class="cls-1" d="M0,48.54c1.62-1.8,3.13-3.71,4.88-5.38A94.85,94.85,0,0,1,32.8,24.32c16.08-6.87,32.09-6.57,48,.69a97.28,97.28,0,0,1,30,21.77c1.66,1.75,1.73,3.46.14,5.11-10,10.49-21.52,19-35.26,24a55.39,55.39,0,0,1-40.05-.3C22.16,70.49,10.94,62.17,1.1,51.88A11.82,11.82,0,0,1,0,50.29ZM55.88,73A23.56,23.56,0,1,0,32.16,49.15,23.79,23.79,0,0,0,55.88,73Zm25.4-6.73a94,94,0,0,0,22.86-16.83A94.13,94.13,0,0,0,81.28,32.58C88.08,43.88,88.06,55,81.28,66.25Zm-50.59,0c-6.81-11.3-6.79-22.39,0-33.66A93.47,93.47,0,0,0,7.83,49.42,94,94,0,0,0,30.69,66.25Z"/><path class="cls-1" d="M52.7,92.14c0-1.12,0-2.25,0-3.38a3.27,3.27,0,0,1,6.54,0c0,2.29,0,4.58,0,6.87a3.27,3.27,0,0,1-6.54,0C52.67,94.47,52.71,93.31,52.7,92.14Z"/><path class="cls-1" d="M32.51,79.37c2.93,0,4.54,2.49,3.44,4.64s-2.38,4.33-3.7,6.41a3.24,3.24,0,0,1-5.57-3.26c1.15-2.18,2.4-4.31,3.69-6.41A2.77,2.77,0,0,1,32.51,79.37Z"/><path class="cls-1" d="M79.39,79.37a3,3,0,0,1,2.31,1.51c1.2,2,2.37,4,3.49,6a3.27,3.27,0,0,1-1.27,4.44,3.22,3.22,0,0,1-4.37-1.17c-1.21-2-2.4-4-3.48-6C74.89,81.91,76.49,79.35,79.39,79.37Z"/><path class="cls-1" d="M59.26,6.56c0,1.09,0,2.18,0,3.27a3.27,3.27,0,1,1-6.54-.06q0-3.21,0-6.43a3.28,3.28,0,1,1,6.55.05C59.28,4.45,59.26,5.5,59.26,6.56Z"/><path class="cls-1" d="M33,19.27a3.15,3.15,0,0,1-2.89-1.64C29,15.75,27.84,13.87,26.79,12A3.27,3.27,0,0,1,28,7.49a3.21,3.21,0,0,1,4.39,1.15c1.17,1.92,2.33,3.86,3.38,5.86A3.23,3.23,0,0,1,33,19.27Z"/><path class="cls-1" d="M79.05,19.27a3.2,3.2,0,0,1-2.93-4.63c1.07-2.1,2.28-4.14,3.53-6.15a3.24,3.24,0,0,1,5.66,3.12c-1.12,2.16-2.37,4.26-3.64,6.34A2.88,2.88,0,0,1,79.05,19.27Z"/><path class="cls-1" d="M65.77,50.77c-2.41,2.44-4.63,4.69-6.86,6.93s-3.76,2.1-5.88,0c-1.18-1.18-2.35-2.37-3.64-3.68-1.43,1.47-2.76,2.86-4.13,4.21a3.16,3.16,0,0,1-3.42.8,3.29,3.29,0,0,1-1.21-5.44c2.13-2.14,4.25-4.3,6.42-6.41a3.23,3.23,0,0,1,4.78,0c1.38,1.34,2.69,2.74,4,4.05l5.1-5.1c-.54,0-1.1,0-1.66,0A3.3,3.3,0,0,1,56,42.84a3.26,3.26,0,0,1,3.29-3.25q4.86,0,9.72,0A3.25,3.25,0,0,1,72.38,43c0,2.8,0,5.61,0,8.41a3.28,3.28,0,1,1-6.56.13Z"/></g></g></svg>