<?xml version="1.0" encoding="utf-8"?>
<!-- Generator: Adobe Illustrator 25.3.0, SVG Export Plug-In . SVG Version: 6.00 Build 0)  -->
<svg version="1.1" id="Layer_1" xmlns="http://www.w3.org/2000/svg" xmlns:xlink="http://www.w3.org/1999/xlink" x="0px" y="0px"
	 viewBox="0 0 112 112" style="enable-background:new 0 0 112 112;" xml:space="preserve">
<style type="text/css">
	.st0{fill:#0A416C;}
</style>
<g id="Layer_2_1_">
	<g id="Layer_1-2">
		<path class="st0" d="M59.5,0c2,0.3,4.1,0.5,6.1,0.9c2.2,0.4,4.5,1,6.7,1.6c1.5,0.3,2.6,1.7,2.3,3.2c0,0.1-0.1,0.3-0.1,0.4
			c-0.5,1.5-2,2.2-3.8,1.7c-5.5-1.7-11.4-2.4-17.2-2.1c-12.9,0.5-25.2,6.1-34,15.5c-8.1,8.5-13,18.6-13.7,30.3
			C4.4,72.6,13,89,31.2,99.9c9.8,5.9,21.3,8.1,32.6,6c18.8-3.3,32-13.9,39.2-31.6c4.3-10.4,4.7-22,1.3-32.8
			c-0.7-2.5,0.9-4.3,2.8-4.1c1.3,0.1,2.3,1,2.5,2.3c1,3.7,1.7,7.4,2.2,11.1c1.4,15.9-3.1,30.1-13.6,42.2
			c-9,10.6-21.7,17.3-35.6,18.7c-19,2-35.2-4.1-48.2-18.2c-8.3-9-13.3-20.6-14.2-32.9c0-0.4-0.1-0.7-0.2-1.1v-7
			c0.1-0.3,0.1-0.6,0.2-1c0.4-2.8,0.7-5.7,1.4-8.5C6.7,21.3,24.4,4.7,46.4,0.8c2-0.3,4.1-0.6,6.2-0.9H59.5z"/>
		<path class="st0" d="M56.3,95.1c-19.1-0.2-35.3-14-38.6-32.8c-3.6-21.2,10.6-41.4,31.9-45c0.4-0.1,0.8-0.1,1.2-0.2
			c2.5-0.3,5-0.3,7.5-0.3c1.4-0.1,2.6,0.8,3,2.1c0.5,1.4-0.2,2.9-1.6,3.4c-0.4,0.2-0.9,0.2-1.3,0.1c-6.2-0.5-12.5,0.8-18,3.8
			c-16.3,8.7-22.5,29-13.8,45.3s29,22.5,45.3,13.8c9.4-5,15.9-14.2,17.4-24.7c0.3-2.3,0.3-4.7,0.2-7c0-1.8,0.9-3.1,2.5-3.3
			c1.5-0.2,2.9,0.8,3.1,2.3c0,0.2,0,0.3,0,0.5c0.1,3.2,0,6.3-0.5,9.5c-3.5,16.6-13.5,27-29.9,31.3C61.9,94.5,59.1,94.9,56.3,95.1z"
			/>
		<path class="st0" d="M82.2,39.1c-1.3,0-2.7,0-4,0C77.3,39,76.5,39.4,76,40c-5.7,5.8-11.5,11.5-17.2,17.3c-0.3,0.4-0.7,0.7-1.2,1
			c-1.3,0.8-3,0.4-3.8-0.9c-0.6-0.9-0.5-2.1,0.1-3c0.3-0.4,0.6-0.7,1-1c5.8-5.8,11.5-11.6,17.3-17.4c0.6-0.5,0.9-1.2,0.8-2
			c0-2.7,0-5.5,0-8.2c0-1.2,0.4-2.3,1.3-3.1c5.3-5.3,10.6-10.6,15.9-15.9c0.8-1,2.2-1.4,3.4-0.9c1.2,0.5,1.9,1.7,1.7,3
			c0,2.3,0,4.7,0,7c0,0.7,0.2,0.9,0.9,0.9c2.3,0,4.7,0,7,0c1.3-0.2,2.5,0.5,3,1.7c0.5,1.2,0.1,2.6-0.9,3.4
			C100,27.2,94.6,32.6,89.2,38c-0.7,0.7-1.7,1.1-2.7,1.1C85.1,39.1,83.6,39.1,82.2,39.1z M78.6,33.5c2.2,0,4.2,0,6.3,0
			c0.6,0,1.1-0.2,1.5-0.6c3.3-3.2,6.5-6.4,9.7-9.6c0.2-0.2,0.4-0.5,0.8-0.9c-1.5,0-2.8,0-4.1,0c-1.5,0.1-2.9-1-3-2.6
			c0-0.1,0-0.3,0-0.4c0-1.3,0-2.6,0-4c-0.2,0.1-0.3,0.1-0.4,0.2C85.9,19,82.4,22.4,79,25.9c-0.2,0.3-0.4,0.6-0.4,1
			C78.6,29,78.6,31.2,78.6,33.5z"/>
		<path class="st0" d="M56.2,78.1c-12.3,0-22.3-10-22.3-22.4c0-10.8,7.8-20,18.4-21.9c1.2-0.2,2.5-0.3,3.7-0.4c1.5-0.1,2.9,1,3,2.5
			c0,0,0,0.1,0,0.1c0.1,1.5-1.1,2.8-2.6,2.9c-0.1,0-0.1,0-0.2,0c-2.3,0-4.5,0.5-6.6,1.4c-8.5,3.6-12.4,13.5-8.8,22s13.5,12.4,22,8.8
			c5.9-2.5,9.9-8.2,10.1-14.6c0.1-2.3,1.2-3.6,3-3.5s2.8,1.5,2.7,3.8C78,68.8,68.1,78.2,56.2,78.1z"/>
	</g>
</g>
</svg>
