<svg xmlns="http://www.w3.org/2000/svg" viewBox="0 0 112 112"><defs><style>.cls-1{fill:#fff;}</style></defs><g id="Layer_2" data-name="Layer 2"><g id="Layer_1-2" data-name="Layer 1"><path class="cls-1" d="M59.54,0c2.05.29,4.11.49,6.14.88,2.25.43,4.48,1,6.69,1.58a2.82,2.82,0,0,1,2.22,3.65c-.48,1.53-2,2.25-3.84,1.69A49.11,49.11,0,0,0,53.59,5.68,49.5,49.5,0,0,0,19.54,21.23C11.43,29.68,6.59,39.83,5.82,51.49,4.44,72.66,13,89,31.21,99.9a46.53,46.53,0,0,0,32.56,6c18.82-3.27,32-13.9,39.24-31.6a48.1,48.1,0,0,0,1.27-32.78c-.74-2.51.93-4.3,2.85-4.09a2.7,2.7,0,0,1,2.46,2.29,88.87,88.87,0,0,1,2.16,11.13c1.39,15.93-3.1,30.11-13.64,42.15a53.66,53.66,0,0,1-35.56,18.66c-19,2-35.23-4.1-48.18-18.2A54.35,54.35,0,0,1,.2,60.6,9.43,9.43,0,0,0,0,59.54v-7c.06-.32.14-.63.19-1,.45-2.84.72-5.72,1.37-8.51A56,56,0,0,1,46.38.86c2-.34,4.1-.58,6.15-.86Z"/><path class="cls-1" d="M56.28,95.15A39.49,39.49,0,0,1,17.7,62.36a39,39,0,0,1,33.13-45.2,58.91,58.91,0,0,1,7.53-.27,2.93,2.93,0,0,1,3,2.1,2.64,2.64,0,0,1-2.91,3.5,32.19,32.19,0,0,0-18,3.81A33.49,33.49,0,1,0,89.32,60.7a46.28,46.28,0,0,0,.22-7c0-1.75.89-3.08,2.51-3.27a2.71,2.71,0,0,1,3.08,2.79,47.33,47.33,0,0,1-.51,9.47C91.15,79.29,81.1,89.74,64.7,94A75.84,75.84,0,0,1,56.28,95.15Z"/><path class="cls-1" d="M82.16,39.11c-1.35,0-2.7,0-4,0A2.52,2.52,0,0,0,76,40q-8.59,8.66-17.24,17.26a7.78,7.78,0,0,1-1.15,1,2.77,2.77,0,0,1-3.74-3.91,7.92,7.92,0,0,1,1-1Q63.51,44.61,72.19,36A2.42,2.42,0,0,0,73,34.05c0-2.74,0-5.47,0-8.21a4.1,4.1,0,0,1,1.27-3.12q8-7.93,15.94-15.93a3,3,0,0,1,3.44-.94,2.83,2.83,0,0,1,1.71,3c0,2.34,0,4.67,0,7,0,.73.24.94.94.93,2.34,0,4.67,0,7,0a2.85,2.85,0,0,1,3,1.72,2.92,2.92,0,0,1-.89,3.36Q97.24,29.92,89.18,38a3.5,3.5,0,0,1-2.65,1.09C85.08,39.09,83.62,39.11,82.16,39.11Zm-3.59-5.6c2.18,0,4.25,0,6.32,0a2.43,2.43,0,0,0,1.5-.62c3.26-3.19,6.47-6.43,9.69-9.65.21-.22.4-.47.75-.87-1.51,0-2.81,0-4.1,0a2.79,2.79,0,0,1-3-3c0-1.29,0-2.59,0-4-.23.12-.34.14-.4.21Q84.14,20.73,79,25.92a1.5,1.5,0,0,0-.39.95C78.55,29,78.57,31.17,78.57,33.51Z"/><path class="cls-1" d="M56.17,78.16a22.31,22.31,0,0,1-3.89-44.27A24.14,24.14,0,0,1,56,33.53a2.78,2.78,0,0,1,3,2.65,2.74,2.74,0,0,1-2.77,2.9,18.41,18.41,0,0,0-6.6,1.37A16.74,16.74,0,1,0,72.93,56.6c.1-2.34,1.18-3.62,3-3.53s2.76,1.47,2.65,3.79A22.33,22.33,0,0,1,56.17,78.16Z"/></g></g></svg>