<svg width="36" height="36" viewBox="0 0 36 36" fill="none" xmlns="http://www.w3.org/2000/svg">
<path d="M16.905 0L0.00585938 8.13663V12.3697H35.0059V8.11417L16.905 0ZM32.6725 10.0364H2.33919V9.60283L16.9401 2.57279L32.6725 9.62529V10.0364Z" fill="white"/>
<path d="M32.6723 28.7034H2.33896V31.0368H32.6723V28.7034Z" fill="white"/>
<path d="M35.0059 32.7865H0.00585938V35.1199H35.0059V32.7865Z" fill="white"/>
<path d="M5.25609 14.7034H2.92276V26.3701H5.25609V14.7034Z" fill="white"/>
<path d="M32.0892 14.7034H29.7559V26.3701H32.0892V14.7034Z" fill="white"/>
<path d="M25.0892 14.7034H22.7559V26.3701H25.0892V14.7034Z" fill="white"/>
<path d="M12.2561 14.7034H9.92276V26.3701H12.2561V14.7034Z" fill="white"/>
<path d="M18.6723 14.7034H16.339V26.3701H18.6723V14.7034Z" fill="white"/>
</svg>
