<svg width="38" height="36" viewBox="0 0 38 36" fill="none" xmlns="http://www.w3.org/2000/svg">
<path d="M24.8695 23.2727C24.8695 21.5155 19.8836 20.0909 13.7331 20.0909M24.8695 23.2727C24.8695 25.03 19.8836 26.4545 13.7331 26.4545C7.58269 26.4545 2.59677 25.03 2.59677 23.2727M24.8695 23.2727V31.1267C24.8695 32.9395 19.8836 34.4091 13.7331 34.4091C7.58269 34.4091 2.59677 32.9395 2.59677 31.1267V23.2727M24.8695 23.2727C30.9524 23.2727 36.0059 21.7023 36.0059 20.0909V4.18182M13.7331 20.0909C7.58269 20.0909 2.59677 21.5155 2.59677 23.2727M13.7331 20.0909C6.70405 20.0909 1.00586 18.5205 1.00586 16.9091V8.95455M13.7331 5.77273C6.70405 5.77273 1.00586 7.19728 1.00586 8.95455M1.00586 8.95455C1.00586 10.7118 6.70405 12.1364 13.7331 12.1364C13.7331 13.7478 18.909 15.3182 24.9919 15.3182C31.0747 15.3182 36.0059 13.7478 36.0059 12.1364M36.0059 4.18182C36.0059 2.42455 31.0747 1 24.9919 1C18.909 1 13.9779 2.42455 13.9779 4.18182M36.0059 4.18182C36.0059 5.93909 31.0747 7.36364 24.9919 7.36364C18.909 7.36364 13.9779 5.93909 13.9779 4.18182M13.9779 4.18182V20.355" stroke="white" stroke-width="2"/>
</svg>
