<svg width="36" height="32" viewBox="0 0 36 32" fill="none" xmlns="http://www.w3.org/2000/svg">
<path d="M16.4762 8.76804L19.7737 9.63694C19.8857 9.66313 19.986 9.72558 20.0588 9.81458C20.1317 9.90359 20.1731 10.0142 20.1766 10.1291C20.1766 10.4086 19.9281 10.6395 19.6224 10.6395H17.4593C17.2262 10.6389 16.9954 10.5935 16.7794 10.5058C16.461 10.3722 16.094 10.4026 15.8497 10.6274L14.6952 11.6907C14.6418 11.7375 14.5957 11.7919 14.5585 11.8523C14.5108 11.9305 14.4791 12.0174 14.4652 12.1079C14.4512 12.1984 14.4553 12.2907 14.4772 12.3796C14.4992 12.4685 14.5385 12.5522 14.5929 12.6259C14.6473 12.6995 14.7157 12.7617 14.7943 12.8088C15.4336 13.1925 16.1495 13.431 16.8912 13.5075V14.583C16.8912 15.1177 17.3669 15.5552 17.9466 15.5552H19.0021C19.5823 15.5552 20.0581 15.1177 20.0581 14.583V13.5136C22.059 13.2949 23.5726 11.63 23.3089 9.68555C23.1175 8.28801 21.9442 7.17606 20.4798 6.78718L17.1822 5.91827C17.0702 5.89209 16.97 5.82964 16.8972 5.74064C16.8243 5.65163 16.7829 5.54106 16.7794 5.4261C16.7794 5.14659 17.0279 4.91569 17.3335 4.91569H19.4967C19.7306 4.91606 19.9623 4.96144 20.179 5.04937C20.4968 5.18305 20.8644 5.15267 21.1087 4.92784L22.2632 3.8645C22.3148 3.81875 22.3593 3.7655 22.395 3.70652C22.4431 3.62836 22.4752 3.54145 22.4895 3.45082C22.5038 3.36018 22.5 3.26761 22.4783 3.17845C22.4566 3.0893 22.4174 3.00533 22.3631 2.93139C22.3088 2.85745 22.2403 2.79501 22.1617 2.74768C21.5221 2.36399 20.8061 2.12545 20.0642 2.04891V0.972201C20.0642 0.437491 19.589 0 19.0087 0H17.9533C17.373 0 16.8979 0.437491 16.8979 0.972201V2.04162C14.8994 2.26037 13.3827 3.92526 13.6465 5.86966C13.8372 7.2672 15.0142 8.37916 16.4762 8.76804ZM34.3531 19.9362C33.6361 19.286 32.5181 19.3286 31.7646 19.9362L26.1502 24.4266C25.461 24.9795 24.6032 25.2797 23.7197 25.2772H16.5333C16.2754 25.2772 16.0282 25.1748 15.8458 24.9925C15.6635 24.8102 15.5611 24.5629 15.5611 24.305C15.5611 24.0472 15.6635 23.7999 15.8458 23.6176C16.0282 23.4353 16.2754 23.3328 16.5333 23.3328H21.2904C22.2565 23.3328 23.1564 22.6705 23.3107 21.7165C23.3298 21.607 23.3391 21.496 23.3387 21.3848C23.3377 20.8697 23.1324 20.3761 22.7679 20.0122C22.4034 19.6484 21.9093 19.444 21.3943 19.444H11.6723C10.0327 19.4445 8.44302 20.0084 7.16977 21.0415L4.34431 23.3328H0.978061C0.720217 23.3328 0.472934 23.4353 0.290611 23.6176C0.108287 23.7999 0.00585938 24.0472 0.00585938 24.305L0.00585938 30.1382C0.00585938 30.3961 0.108287 30.6434 0.290611 30.8257C0.472934 31.008 0.720217 31.1104 0.978061 31.1104H22.6563C23.5396 31.1111 24.3968 30.8111 25.0868 30.2598L34.276 22.9075C34.497 22.7307 34.6768 22.5078 34.8027 22.2543C34.9287 22.0008 34.9978 21.7229 35.0052 21.4399C35.0126 21.157 34.9581 20.8758 34.8456 20.6161C34.7331 20.3563 34.5652 20.1243 34.3537 19.9362H34.3531Z" fill="white"/>
</svg>
