<svg width="38" height="34" viewBox="0 0 38 34" fill="none" xmlns="http://www.w3.org/2000/svg">
<path d="M32.117 32.8847H4.89475C2.74697 32.8847 1.00586 31.1437 1.00586 28.9958V11.4958C1.00586 9.34805 2.74697 7.60693 4.89475 7.60693H32.117C34.2648 7.60693 36.0059 9.34805 36.0059 11.4958V28.9958C36.0059 31.1437 34.2648 32.8847 32.117 32.8847Z" stroke="white" stroke-width="2"/>
<path d="M27.256 21.2183C26.7191 21.2183 26.2838 20.7829 26.2838 20.2461C26.2838 19.7092 26.7191 19.2738 27.256 19.2738C27.7929 19.2738 28.2282 19.7092 28.2282 20.2461C28.2282 20.7829 27.7929 21.2183 27.256 21.2183Z" fill="#0E4E8C" stroke="white" stroke-width="2" stroke-linecap="round" stroke-linejoin="round"/>
<path d="M30.1725 7.60697V4.89101C30.1725 2.33589 27.7505 0.475079 25.2817 1.13343L3.89272 6.83715C2.19036 7.29112 1.00586 8.83287 1.00586 10.5947V11.4959" stroke="white" stroke-width="2"/>
</svg>
