<svg xmlns="http://www.w3.org/2000/svg" viewBox="0 0 40 41.24"><defs><style>.cls-1{fill:#fff;}</style></defs><g id="Layer_2" data-name="Layer 2"><g id="Layer_1-2" data-name="Layer 1"><path class="cls-1" d="M24,0l.17.08a3.19,3.19,0,0,1,2.47,2.71c.13.69.22,1.38.34,2.06a2.42,2.42,0,0,0,3.18,1.91c.68-.23,1.35-.51,2-.76a3.21,3.21,0,0,1,4.08,1.46q1.65,2.85,3.29,5.71a3.2,3.2,0,0,1-.76,4.23c-.55.45-1.11.89-1.64,1.36a2.38,2.38,0,0,0,0,3.72c.55.48,1.12.92,1.68,1.39A3.18,3.18,0,0,1,39.55,28q-1.66,2.94-3.37,5.85a3.19,3.19,0,0,1-3.93,1.42c-.67-.23-1.33-.5-2-.74a2.4,2.4,0,0,0-3.33,2c-.12.75-.24,1.51-.4,2.25a3.15,3.15,0,0,1-3.08,2.47c-2.25,0-4.51,0-6.76,0a3.21,3.21,0,0,1-3.27-2.78c-.12-.69-.22-1.38-.34-2.06a2.41,2.41,0,0,0-3.21-1.9c-.67.23-1.33.5-2,.74a3.18,3.18,0,0,1-4.07-1.45Q2.13,30.93.49,28.07a3.18,3.18,0,0,1,.79-4.25c.53-.45,1.08-.88,1.61-1.34a2.38,2.38,0,0,0,0-3.72c-.55-.48-1.12-.92-1.67-1.39a3.17,3.17,0,0,1-.77-4.13Q2.12,10.3,3.82,7.39A3.2,3.2,0,0,1,7.78,6c.67.24,1.33.51,2,.74a2.39,2.39,0,0,0,3.3-2c.11-.67.21-1.35.34-2A3.17,3.17,0,0,1,15.92.07.83.83,0,0,0,16.05,0Zm12.8,26.38L35.2,25.1a5.64,5.64,0,0,1,0-9c.51-.41,1-.83,1.54-1.27L33.37,9c-.8.3-1.56.6-2.33.86a5.64,5.64,0,0,1-7.26-4.29c-.14-.77-.27-1.55-.41-2.33H16.62c-.11.66-.23,1.3-.33,2A5.64,5.64,0,0,1,8.68,9.76L6.63,9,3.25,14.85l1.56,1.28a5.65,5.65,0,0,1,0,9c-.51.41-1,.83-1.54,1.27l3.38,5.85,2.11-.79a5.63,5.63,0,0,1,7.48,4.22c.15.77.27,1.55.41,2.33h6.75c.11-.66.24-1.31.33-2a5.63,5.63,0,0,1,7.53-4.59c.71.24,1.4.52,2.13.79Z"/><path class="cls-1" d="M20,28.58a8,8,0,1,1,8-8A8,8,0,0,1,20,28.58Zm-4.72-7.95A4.72,4.72,0,1,0,20,15.9,4.73,4.73,0,0,0,15.28,20.63Z"/></g></g></svg>