<svg width="21" height="29" viewBox="0 0 21 29" fill="none" xmlns="http://www.w3.org/2000/svg">
<path d="M10.4068 6.60645C9.64936 6.60645 8.90889 6.83106 8.27908 7.25189C7.64926 7.67273 7.15837 8.27087 6.8685 8.97069C6.57862 9.6705 6.50278 10.4406 6.65056 11.1835C6.79833 11.9264 7.16309 12.6088 7.69871 13.1444C8.23433 13.6801 8.91674 14.0448 9.65967 14.1926C10.4026 14.3404 11.1726 14.2645 11.8725 13.9747C12.5723 13.6848 13.1704 13.1939 13.5913 12.5641C14.0121 11.9343 14.2367 11.1938 14.2367 10.4363C14.2356 9.42093 13.8317 8.44745 13.1137 7.72947C12.3957 7.01148 11.4222 6.6076 10.4068 6.60645ZM10.4068 12.3512C10.0281 12.3512 9.65787 12.2389 9.34296 12.0285C9.02805 11.8181 8.7826 11.519 8.63767 11.1691C8.49273 10.8192 8.45481 10.4342 8.5287 10.0627C8.60258 9.69127 8.78496 9.35006 9.05277 9.08225C9.32058 8.81444 9.66179 8.63206 10.0333 8.55817C10.4047 8.48429 10.7897 8.52221 11.1397 8.66715C11.4896 8.81208 11.7886 9.05752 11.999 9.37243C12.2095 9.68734 12.3218 10.0576 12.3218 10.4363C12.3212 10.944 12.1192 11.4307 11.7603 11.7897C11.4013 12.1487 10.9145 12.3507 10.4068 12.3512Z" fill="white"/>
<path d="M17.7663 3.07089C15.9467 1.25172 13.5177 0.171066 10.9482 0.0374833C8.37862 -0.0960993 5.85068 0.726862 3.85222 2.34753C1.85377 3.96821 0.526488 6.2717 0.126535 8.81344C-0.273418 11.3552 0.282315 13.955 1.68648 16.1111L8.92176 27.2185C9.08277 27.4656 9.30292 27.6687 9.56226 27.8092C9.82159 27.9498 10.1119 28.0234 10.4069 28.0234C10.7019 28.0234 10.9922 27.9498 11.2515 27.8092C11.5108 27.6687 11.731 27.4656 11.892 27.2185L19.1275 16.1111C20.4304 14.111 21.0062 11.7238 20.7584 9.34968C20.5106 6.97556 19.4542 4.75877 17.7663 3.07089ZM17.5231 15.0658L10.4069 25.9899L3.29071 15.0658C1.11248 11.7219 1.57966 7.24694 4.40156 4.42492C5.19018 3.63628 6.12643 3.01068 7.15683 2.58387C8.18723 2.15705 9.29161 1.93737 10.4069 1.93737C11.5222 1.93737 12.6266 2.15705 13.657 2.58387C14.6874 3.01068 15.6236 3.63628 16.4123 4.42492C19.2342 7.24694 19.7013 11.7219 17.5231 15.0658Z" fill="white"/>
</svg>
