<svg width="30" height="22" viewBox="0 0 30 22" fill="none" xmlns="http://www.w3.org/2000/svg">
<path d="M26.8138 0.192383H3.18945C2.36094 0.193326 1.56663 0.522869 0.980786 1.10872C0.394939 1.69456 0.065396 2.48887 0.0644531 3.31738V18.7299C0.065396 19.5584 0.394939 20.3527 0.980786 20.9385C1.56663 21.5244 2.36094 21.8539 3.18945 21.8549H26.8137C27.6422 21.8539 28.4365 21.5244 29.0224 20.9385C29.6082 20.3527 29.9378 19.5584 29.9387 18.7299V3.31738C29.9378 2.48887 29.6083 1.69455 29.0224 1.1087C28.4366 0.522849 27.6423 0.193309 26.8138 0.192383ZM21.2575 11.0194L28.6888 5.18701V18.2331L21.2575 11.0194ZM3.18945 1.44238H26.8137C27.3108 1.44295 27.7874 1.64067 28.1389 1.99218C28.4904 2.34369 28.6881 2.82027 28.6887 3.31738V3.59801L16.6631 13.0366C16.2234 13.3799 15.6815 13.5661 15.1237 13.5657C14.5659 13.5652 14.0243 13.3781 13.5852 13.0341L1.31445 3.59563V3.31738C1.31502 2.82027 1.51274 2.34369 1.86425 1.99218C2.21576 1.64067 2.69235 1.44295 3.18945 1.44238ZM8.96683 11.0586L1.31445 18.2583V5.17263L8.96683 11.0586ZM26.8138 20.6049H3.18945C2.86935 20.6047 2.55463 20.5226 2.27524 20.3664C1.99585 20.2101 1.7611 19.985 1.59333 19.7124L9.97045 11.8311L12.8193 14.0224C13.4782 14.537 14.2903 14.8165 15.1263 14.8163C15.9623 14.816 16.7742 14.5362 17.4328 14.0212L20.2653 11.7986L28.4131 19.7074C28.2456 19.9814 28.0106 20.2078 27.7306 20.3649C27.4506 20.5221 27.1349 20.6047 26.8138 20.6049Z" fill="white"/>
</svg>
