<svg width="23" height="23" viewBox="0 0 23 23" fill="none" xmlns="http://www.w3.org/2000/svg">
<path d="M1.1143 2.80918V5.0451C1.1143 13.9685 8.34817 21.2024 17.2716 21.2024H19.5002C20.4233 21.2024 21.1716 20.4541 21.1716 19.531V16.6727C21.1716 15.9533 20.7113 15.3146 20.0287 15.0871L16.4817 13.9047C15.7666 13.6663 14.9805 13.9361 14.5624 14.5632L13.7501 15.7816C13.332 16.4088 12.5459 16.6785 11.8308 16.4402L10.1311 15.8736C8.38799 15.2926 7.05064 13.8788 6.5672 12.1062L5.86847 9.54422C5.63506 8.68839 6.11089 7.79929 6.95246 7.51877L7.62389 7.29496C8.32633 7.06081 8.75403 6.35044 8.63231 5.62007L8.11803 2.5344C7.9837 1.72844 7.28639 1.13773 6.46932 1.13773H2.78574C1.86263 1.13773 1.1143 1.88607 1.1143 2.80918ZM0 2.80918C0 1.27066 1.24722 0.0234375 2.78574 0.0234375H6.46932C7.8311 0.0234375 8.99329 1.00795 9.21716 2.35121L9.73144 5.43689C9.94331 6.7081 9.19888 7.94453 7.97626 8.35207L7.30483 8.57588C7.02431 8.66939 6.8657 8.96576 6.9435 9.25103L7.64223 11.813C8.02764 13.2262 9.09381 14.3533 10.4834 14.8165L12.1832 15.383C12.4215 15.4625 12.6836 15.3726 12.8229 15.1635L13.6352 13.9451C14.3321 12.8999 15.6423 12.4503 16.834 12.8476L20.3811 14.0299C21.5187 14.4091 22.2859 15.4737 22.2859 16.6727V19.531C22.2859 21.0695 21.0387 22.3167 19.5002 22.3167H17.2716C7.73276 22.3167 0 14.5839 0 5.0451V2.80918Z" fill="white"/>
</svg>
