<svg width="22" height="23" viewBox="0 0 22 23" fill="none" xmlns="http://www.w3.org/2000/svg">
<g clip-path="url(#clip0_348_1456)">
<path d="M14.6673 20.8334V17.2859C14.7017 16.8488 14.6427 16.4094 14.4941 15.9969C14.3455 15.5844 14.1108 15.2082 13.8057 14.8934C16.684 14.5726 19.709 13.4817 19.709 8.47673C19.7088 7.19691 19.2165 5.96616 18.334 5.03923C18.7519 3.91953 18.7223 2.68189 18.2515 1.5834C18.2515 1.5834 17.1698 1.26256 14.6673 2.94007C12.5663 2.37065 10.3516 2.37065 8.25065 2.94007C5.74815 1.26256 4.66648 1.5834 4.66648 1.5834C4.19566 2.68189 4.16612 3.91953 4.58398 5.03923C3.69493 5.97304 3.20213 7.21491 3.20898 8.50423C3.20898 13.4726 6.23398 14.5634 9.11232 14.9209C8.81073 15.2325 8.57814 15.6042 8.42968 16.0117C8.28123 16.4191 8.22023 16.8533 8.25065 17.2859V20.8334M8.25065 18.0834C3.66732 19.4584 3.66732 15.7917 1.83398 15.3334L8.25065 18.0834Z" stroke="white" stroke-width="2" stroke-linecap="round" stroke-linejoin="round"/>
</g>
<defs>
<clipPath id="clip0_348_1456">
<rect width="22" height="22" fill="white" transform="translate(0 0.666748)"/>
</clipPath>
</defs>
</svg>
