<svg width="22" height="23" viewBox="0 0 22 23" fill="none" xmlns="http://www.w3.org/2000/svg">
<path d="M14.666 8.00024C16.1247 8.00024 17.5237 8.57971 18.5551 9.61116C19.5866 10.6426 20.166 12.0416 20.166 13.5002V19.9169H16.4994V13.5002C16.4994 13.014 16.3062 12.5477 15.9624 12.2039C15.6186 11.8601 15.1522 11.6669 14.666 11.6669C14.1798 11.6669 13.7135 11.8601 13.3697 12.2039C13.0258 12.5477 12.8327 13.014 12.8327 13.5002V19.9169H9.16602V13.5002C9.16602 12.0416 9.74548 10.6426 10.7769 9.61116C11.8084 8.57971 13.2073 8.00024 14.666 8.00024V8.00024Z" stroke="white" stroke-width="2" stroke-linecap="round" stroke-linejoin="round"/>
<path d="M5.50065 8.91675H1.83398V19.9167H5.50065V8.91675Z" stroke="white" stroke-width="2" stroke-linecap="round" stroke-linejoin="round"/>
<path d="M3.66732 6.16691C4.67984 6.16691 5.50065 5.3461 5.50065 4.33358C5.50065 3.32106 4.67984 2.50024 3.66732 2.50024C2.6548 2.50024 1.83398 3.32106 1.83398 4.33358C1.83398 5.3461 2.6548 6.16691 3.66732 6.16691Z" stroke="white" stroke-width="2" stroke-linecap="round" stroke-linejoin="round"/>
</svg>
