<svg width="22" height="23" viewBox="0 0 22 23" fill="none" xmlns="http://www.w3.org/2000/svg">
<g clip-path="url(#clip0_348_1450)">
<path d="M21.0827 3.41669C20.2049 4.03588 19.2329 4.50946 18.2043 4.81919C17.6523 4.18441 16.9186 3.73449 16.1025 3.53029C15.2864 3.32609 14.4272 3.37745 13.6413 3.67744C12.8553 3.97742 12.1804 4.51156 11.7079 5.2076C11.2354 5.90363 10.9881 6.728 10.9993 7.56919V8.48585C9.38843 8.52763 7.79218 8.17035 6.35277 7.44585C4.91336 6.72134 3.67547 5.6521 2.74935 4.33336C2.74935 4.33336 -0.917318 12.5834 7.33268 16.25C5.44483 17.5315 3.19591 18.174 0.916016 18.0834C9.16602 22.6667 19.2493 18.0834 19.2493 7.54169C19.2485 7.28635 19.224 7.03165 19.176 6.78086C20.1116 5.85822 20.7718 4.69334 21.0827 3.41669V3.41669Z" stroke="white" stroke-width="2" stroke-linecap="round" stroke-linejoin="round"/>
</g>
<defs>
<clipPath id="clip0_348_1450">
<rect width="22" height="22" fill="white" transform="translate(0 0.666748)"/>
</clipPath>
</defs>
</svg>
