<svg xmlns="http://www.w3.org/2000/svg" viewBox="0 0 105.41 96.36"><defs><style>.cls-1{fill:#6f7dbd;}.cls-2{fill:#f8f3f1;}.cls-3{fill:#5567b0;}.cls-4{fill:#efe2dd;}.cls-5{fill:#c5d3dd;}.cls-6{fill:#90bac5;}.cls-7{fill:#564f57;}.cls-8{fill:#444044;}.cls-9{fill:#fff;}.cls-10{fill:#ffd15c;}.cls-11{fill:#76cede;}.cls-12{fill:#fcb239;}.cls-13{fill:#ef5893;}.cls-14{fill:#dd4197;}</style></defs><title>ekyc</title><g id="Layer_2" data-name="Layer 2"><g id="Layer_1-2" data-name="Layer 1"><path class="cls-1" d="M97,77.41l-22,0-4.1,0a1.71,1.71,0,0,1-1.16.28c-1.74,0-3.47,0-5.21,0s-3.72,0-5.59,0q-6.16.07-12.33,0c-3.63.06-7.26,0-10.88,0a1.66,1.66,0,0,1-1.08-.28l-24.76,0c-1.92,0-3.84-.09-5.75,0A3.81,3.81,0,0,1,0,75.36V5.78A3.74,3.74,0,0,1,2.48,3.67c3.29-.12,6.58,0,9.86,0,1,0,2,0,3,0C17,3.62,17,3.64,17,5.25c0,1.19,0,2.39,0,3.59a2.07,2.07,0,0,1-.26,1.29,2.25,2.25,0,0,1-1.48.3H8.47c-1.62,0-1.75.13-1.75,1.77q0,16,0,32,0,8.58,0,17.18c0,2.09,0,2.13,2.11,2.13H92.15c2.22,0,4.43,0,6.65,0,.53.2.52.68.52,1.12,0,3.24.06,6.49,0,9.74A2.88,2.88,0,0,1,97,77.41Z"/><path class="cls-2" d="M16.63,10.09c0-1.78,0-3.56.05-5.33,0-.84-.2-1.1-1.07-1.1-4.38,0-8.75,0-13.13,0,.33-.28.73-.15,1.09-.15,4,0,8,0,12,0,.87,0,1.11-.27,1.08-1.11C16.61-.13,16.59,0,19.07,0H81.94a1.24,1.24,0,0,1,.72,1.16c0,.41,0,.82,0,1.23V48.67c0,.41,0,.82,0,1.23-.05.7-.35,1.18-1.1,1.25a6.11,6.11,0,0,1-1.13.05H19.08c-2.7,0-2.74,0-2.74-2.78q0-18.21,0-36.43A3,3,0,0,1,16.63,10.09Z"/><path class="cls-3" d="M97,77.41a3.81,3.81,0,0,0,2.08-4c-.1-2.91,0-5.82,0-8.73,0-.37.13-.76-.17-1.08a1.42,1.42,0,0,1-.16-.9c0-17.42,0-34.84,0-52.26,0-1.06,0-2.13,0-3.19a3.23,3.23,0,0,0-1.34-2.94A.76.76,0,0,1,97,3.66a46.72,46.72,0,0,1,5.55,0,2.81,2.81,0,0,1,2.87,3.05q0,9.66,0,19.34V73.94c0,2.44-1.07,3.51-3.5,3.5C100.26,77.44,98.61,77.42,97,77.41Z"/><path class="cls-4" d="M81.47,50.89c.73,0,.9-.41.89-1.07,0-1.75,0-3.5,0-5.25v-43A2.06,2.06,0,0,0,81.94,0c1.81,0,3.63,0,5.44,0,1,0,1.37.31,1.37,1.31,0,2.2,0,2.2,2.19,2.2l5.64,0c-.23.6-.77.47-1.22.48-1.71,0-3.42,0-5.13,0-1.08,0-1.16.11-1.18,1.19,0,1.64,0,3.28,0,4.92.07.93,0,1.85,0,2.78v36c0,2.11-.36,2.46-2.44,2.48-1.3,0-2.61,0-3.91,0C82.26,51.37,81.72,51.47,81.47,50.89Z"/><path class="cls-5" d="M58.87,77.46h5.55a1.51,1.51,0,0,1,.34,1.24q0,5.07,0,10.14A1.82,1.82,0,0,1,64.49,90a2.35,2.35,0,0,1-1.49.28H36.12c-.53,0-1.11.1-1.54-.37q0-6.24,0-12.48h12c.26.27.22.63.28,1,.6,3,3.88,6.4,8,4.69a6.34,6.34,0,0,0,3.7-4.39C58.61,78.29,58.54,77.82,58.87,77.46Z"/><path class="cls-1" d="M34.58,89.94H64.42c1.48-.53,3-.22,4.51-.21,2.78.86,4.25,2.66,4.22,5.12a1.37,1.37,0,0,1-.87,1.47l-14.6,0H28c-1.57,0-1.92-.4-1.79-2a4.69,4.69,0,0,1,4.7-4.4C32.11,90,33.35,90,34.58,89.94Z"/><path class="cls-6" d="M69.19,90l-4.77,0V77.47h6.4V89.94C70.29,90.42,69.73,90.05,69.19,90Z"/><path class="cls-1" d="M88.8,10.1c0-1.85,0-3.7,0-5.55,0-.68.2-.89.88-.87,2,0,3.9,0,5.86,0a1.78,1.78,0,0,0,1.09-.15c1.66,0,3.32,0,5,0,.33,0,.69-.12,1,.15H97a3.57,3.57,0,0,1,2,3.7c-.09,1,0,2-.05,3a2,2,0,0,1-.88-.14,43.18,43.18,0,0,0-6.33.09A4.5,4.5,0,0,1,88.8,10.1Z"/><path class="cls-3" d="M69.19,90l1.63,0c1.3,0,2.6,0,3.91,0a4.73,4.73,0,0,1,4.51,5.37,1.09,1.09,0,0,1-1.2,1l-5.76,0c1.15-1.45.48-4.19-1.39-5.47A15.91,15.91,0,0,0,69.19,90Z"/><path class="cls-7" d="M88.8,10.1c2.84,0,5.68-.27,8.52-.18.37,0,.76-.12,1.09.17a1.72,1.72,0,0,1-1.36.33c-1,0-2.06,0-3.09,0-.76,0-1.07.3-1,1,0,.17,0,.34,0,.51q0,24.84,0,49.67c0,.79.24,1.7-.73,2.18l-23.87,0H8.05c-1.62,0-1.67-.05-1.67-1.69V11.72c0-1.59.06-1.65,1.61-1.65l8.64,0,0,21.2c0,6.11,0,12.22,0,18.32C16.64,50.6,17,51,18,51H81.06a2.7,2.7,0,0,0,.41,0,48.23,48.23,0,0,0,6.36.11.87.87,0,0,0,.93-1c0-.3,0-.61,0-.92V11.33C88.77,10.92,88.79,10.51,88.8,10.1Z"/><path class="cls-8" d="M92.23,63.82a1.9,1.9,0,0,0,.42-1.42q0-25.87,0-51.75c0-.64.29-.54.65-.54l5.15,0,.58.29c0,.37,0,.75,0,1.13V62.33a2.32,2.32,0,0,1-.17,1.3,2.61,2.61,0,0,1-1.6.23C95.58,63.86,93.9,63.84,92.23,63.82Z"/><path class="cls-9" d="M58.87,77.46c.27,2.58-2.63,6.5-6.27,6.37a6.53,6.53,0,0,1-6.06-6.37Z"/><path class="cls-10" d="M81.48,72.06c-.41,0-.82,0-1.23,0a1.55,1.55,0,0,1-1.54-1.5A1.53,1.53,0,0,1,80.17,69,23.44,23.44,0,0,1,83,69a1.48,1.48,0,0,1,1.43,1.49,1.52,1.52,0,0,1-1.46,1.56A13.81,13.81,0,0,1,81.48,72.06Z"/><path class="cls-10" d="M90,72.06a9.73,9.73,0,0,1-1.43,0,1.41,1.41,0,0,1-1.33-1.44A1.39,1.39,0,0,1,88.53,69a14.74,14.74,0,0,1,3,0,1.4,1.4,0,0,1,1.34,1.54,1.44,1.44,0,0,1-1.38,1.5A11.52,11.52,0,0,1,90,72.06Z"/><path class="cls-11" d="M54.78,24.19C54.6,16.32,61,10.41,69.19,11.4c5.68.7,9.37,5.1,10.46,10.46.25,1.23-.28,2-1.29,2.17-.84.13-1.5-.58-1.79-1.74-1-4-3.24-6.93-7.43-7.73-4.81-.93-10.19,1.92-11.06,7.38-.9,5.71,1.16,10.33,5.79,13.79.95.72,1.23,1.44.73,2.25a1.58,1.58,0,0,1-2.41.34C58.1,35.64,56,31.71,55,27.05a10,10,0,0,1-.2-1.32C54.75,25.22,54.78,24.7,54.78,24.19Z"/><path class="cls-1" d="M44.92,31.12c-.36.29-.79.18-1.19.18l-15.3,0c-2.2,0-2.95-.78-2.95-3,0-1.13,0-2.26,0-3.39a4.84,4.84,0,0,1,5.07-5.11l.82,0c.79,0,1.18.73,1.83,1a6.51,6.51,0,0,0,4.75.41c.36-.07.69-.32,1.08-.11a5.49,5.49,0,0,1,1.58,3.8,28.34,28.34,0,0,1,0,3.8,2.76,2.76,0,0,1-1.08,2.23c1.51-.09,3-.05,4.54,0A1,1,0,0,1,44.92,31.12Z"/><path class="cls-12" d="M38.91,21.05a6.17,6.17,0,0,1-6-.23c.07-.45.44-.67.74-.95a6,6,0,0,0,2.1-4.71c0-.75,0-1.5,0-2.25a6.13,6.13,0,0,0-2-4.65c-.31-.27-.81-.45-.75-1a6.32,6.32,0,0,1,9.44,5.13c0,1.09,0,2.19,0,3.28a6.79,6.79,0,0,1-1.68,4.08A2,2,0,0,1,38.91,21.05Z"/><path class="cls-13" d="M39.13,43.2c-3.9,0-7.8,0-11.7,0-1.33,0-1.93-.64-2-2,0-.86,0-1.71,0-2.57a1.65,1.65,0,0,1,1.85-1.83c3.93,0,7.87,0,11.8,0,.17.12.4.1.56.22,1.44,1.09.89,2.66.91,4.06A1.84,1.84,0,0,1,39.13,43.2Z"/><path class="cls-11" d="M60.31,24.21a6.74,6.74,0,0,1,7-6.94,1.44,1.44,0,0,1,1.53,1.35,1.41,1.41,0,0,1-1.13,1.6,3.93,3.93,0,0,1-.91.15,3.63,3.63,0,0,0-3,5.33,46,46,0,0,0,7.51,10.5c1,1.12,1.24,2.07.54,2.76s-1.7.49-2.73-.59a49.62,49.62,0,0,1-8-11A5.72,5.72,0,0,1,60.31,24.21Z"/><path class="cls-3" d="M38.91,21.05c.61-.43,1.21-.87,1.81-1.31a13.8,13.8,0,0,1,2,.13,4.93,4.93,0,0,1,3.92,4.85c0,1.33,0,2.66,0,4a2.27,2.27,0,0,1-1.77,2.41h-6c1.49-1,1.53-2.36,1.46-3.73a27.09,27.09,0,0,0-.15-3.48A10,10,0,0,0,38.91,21.05Z"/><path class="cls-10" d="M33,7.25c1.49,1.15,2.76,2.51,2.93,4.47.24,2.7.64,5.47-1.45,7.77a19.29,19.29,0,0,1-1.52,1.33,9.16,9.16,0,0,1-1.55-1.08c-2.16-2.57-2-5.58-1.46-8.57A5.5,5.5,0,0,1,33,7.25Z"/><path class="cls-11" d="M68.15,23.91a1.79,1.79,0,0,1,1.41,1,44.35,44.35,0,0,0,6.25,8.25,1.5,1.5,0,0,1,0,2.34,1.48,1.48,0,0,1-2.18-.18,42.51,42.51,0,0,1-6.82-9A1.57,1.57,0,0,1,68.15,23.91Z"/><path class="cls-14" d="M39.13,43.2a2.53,2.53,0,0,0,1.22-2.41,13.45,13.45,0,0,1,0-1.42,2.52,2.52,0,0,0-1.23-2.5c1.91,0,3.83,0,5.74,0a1.75,1.75,0,0,1,1.84,1.79,25.6,25.6,0,0,1,0,2.77,1.79,1.79,0,0,1-1.93,1.82C42.89,43.25,41,43.22,39.13,43.2Z"/><path class="cls-11" d="M77.7,31.32a1.35,1.35,0,0,1-1.14-.5,37.32,37.32,0,0,1-6-8.39A1.55,1.55,0,1,1,73.27,21a35.52,35.52,0,0,0,3.51,5.3c.66.84,1.39,1.61,2.06,2.43a1.4,1.4,0,0,1,.26,1.62A1.43,1.43,0,0,1,77.7,31.32Z"/></g></g></svg>